<?xml version="1.0" encoding="UTF-8"?>
<!DOCTYPE svg PUBLIC "-//W3C//DTD SVG 1.1//EN" "http://www.w3.org/Graphics/SVG/1.1/DTD/svg11.dtd">
<svg xmlns="http://www.w3.org/2000/svg" version="1.1" width="1260px" height="1090px" style="shape-rendering:geometricPrecision; text-rendering:geometricPrecision; image-rendering:optimizeQuality; fill-rule:evenodd; clip-rule:evenodd" xmlns:xlink="http://www.w3.org/1999/xlink">
<g><path style="opacity:0.99" fill="#232222" d="M 312.5,-0.5 C 400.833,-0.5 489.167,-0.5 577.5,-0.5C 577.5,12.5 577.5,25.5 577.5,38.5C 496.497,38.1667 415.497,38.5 334.5,39.5C 238.586,206.33 142.419,372.997 46,539.5C 45.1925,543.027 45.3592,546.36 46.5,549.5C 117.111,672.466 187.778,795.466 258.5,918.5C 249.201,924.822 239.535,930.655 229.5,936C 228.619,936.708 227.953,937.542 227.5,938.5C 223.109,932.741 218.943,926.741 215,920.5C 143.392,795.607 71.5591,670.941 -0.5,546.5C -0.5,544.5 -0.5,542.5 -0.5,540.5C 104.083,360.338 208.416,180.005 312.5,-0.5 Z"/></g>
<g><path style="opacity:0.994" fill="#232222" d="M 604.5,-0.5 C 717.833,-0.5 831.167,-0.5 944.5,-0.5C 988.569,76.6358 1032.9,153.636 1077.5,230.5C 1066.9,235.466 1056.57,240.966 1046.5,247C 1044.63,247.711 1043.13,247.211 1042,245.5C 1002.57,176.408 962.733,107.575 922.5,39C 816.501,38.5 710.501,38.3333 604.5,38.5C 604.5,25.5 604.5,12.5 604.5,-0.5 Z"/></g>
<g><path style="opacity:1" fill="#c03232" d="M 577.5,-0.5 C 586.5,-0.5 595.5,-0.5 604.5,-0.5C 604.5,12.5 604.5,25.5 604.5,38.5C 710.501,38.3333 816.501,38.5 922.5,39C 962.733,107.575 1002.57,176.408 1042,245.5C 1043.13,247.211 1044.63,247.711 1046.5,247C 1056.57,240.966 1066.9,235.466 1077.5,230.5C 1082.57,236.961 1086.9,243.961 1090.5,251.5C 1080.9,257.308 1071.23,263.141 1061.5,269C 1059.2,270.263 1058.37,272.097 1059,274.5C 1111.11,364.392 1162.94,454.392 1214.5,544.5C 1206.89,543.924 1199.56,544.59 1192.5,546.5C 1191.24,541.968 1189.4,537.635 1187,533.5C 1139.07,449.908 1090.73,366.574 1042,283.5C 1041.28,282.941 1040.44,282.608 1039.5,282.5C 1031.55,286.141 1023.88,290.308 1016.5,295C 1015.48,296.049 1015.32,297.216 1016,298.5C 1063.26,380.691 1110.76,462.691 1158.5,544.5C 1152.21,543.947 1146.21,544.614 1140.5,546.5C 1136.05,535.859 1130.88,525.526 1125,515.5C 1084.07,444.634 1042.9,373.967 1001.5,303.5C 993.918,307.205 986.751,311.538 980,316.5C 979.333,317.833 979.333,319.167 980,320.5C 1022.59,395.357 1065.43,470.024 1108.5,544.5C 1104.82,544.06 1101.49,544.727 1098.5,546.5C 1096.77,539.712 1093.94,533.378 1090,527.5C 1053,463.5 1016,399.5 979,335.5C 976.236,330.962 973.236,326.629 970,322.5C 961.826,326.416 953.993,330.583 946.5,335C 947,336.5 947.5,338 948,339.5C 987.19,407.888 1026.36,476.221 1065.5,544.5C 931.167,544.5 796.833,544.5 662.5,544.5C 662.187,434.829 662.687,325.162 664,215.5C 664.333,205.5 664.667,195.5 665,185.5C 668.136,176.031 674.636,170.531 684.5,169C 739.495,167.327 794.495,167.16 849.5,168.5C 876.081,215.33 902.914,261.997 930,308.5C 931.263,310.797 933.097,311.63 935.5,311C 941.331,307.919 946.998,304.585 952.5,301C 954.124,299.883 955.124,298.383 955.5,296.5C 926.855,245.212 897.689,194.212 868,143.5C 867.097,142.299 865.931,141.465 864.5,141C 777.834,140.5 691.167,140.333 604.5,140.5C 604.833,323.667 604.5,506.667 603.5,689.5C 603.5,641.167 603.5,592.833 603.5,544.5C 467.167,544.5 330.833,544.5 194.5,544.5C 266.695,419.279 339.029,294.112 411.5,169C 466.774,167.512 522.108,167.012 577.5,167.5C 577.5,164.833 577.5,162.167 577.5,159.5C 578.491,153.021 578.824,146.354 578.5,139.5C 565.989,139.171 553.655,139.505 541.5,140.5C 492.162,140.167 442.829,140.5 393.5,141.5C 319.333,269.833 245.167,398.167 171,526.5C 167.6,532.629 164.766,538.963 162.5,545.5C 158.438,543.824 154.771,544.158 151.5,546.5C 150.402,545.399 150.235,544.066 151,542.5C 229.616,404.761 309.116,267.594 389.5,131C 390.793,130.51 392.127,130.343 393.5,130.5C 455.167,130.5 516.833,130.5 578.5,130.5C 578.825,122.648 578.492,114.982 577.5,107.5C 577.5,105.5 577.5,103.5 577.5,101.5C 509.497,101.167 441.497,101.5 373.5,102.5C 288.001,248.187 203.501,394.521 120,541.5C 119.51,542.793 119.343,544.127 119.5,545.5C 116.585,544.878 113.585,544.544 110.5,544.5C 107.41,544.522 104.743,545.188 102.5,546.5C 101.903,546.265 101.57,545.765 101.5,545C 188.185,392.993 275.685,241.493 364,90.5C 365.789,88.771 367.956,88.1043 370.5,88.5C 439.833,88.5 509.167,88.5 578.5,88.5C 578.827,78.3194 578.494,68.3194 577.5,58.5C 500.164,58.1667 422.83,58.5 345.5,59.5C 253.081,219.337 160.914,379.337 69,539.5C 68.187,541.436 67.687,543.436 67.5,545.5C 60.5878,544.538 53.5878,544.205 46.5,544.5C 46.5,546.167 46.5,547.833 46.5,549.5C 45.3592,546.36 45.1925,543.027 46,539.5C 142.419,372.997 238.586,206.33 334.5,39.5C 415.497,38.5 496.497,38.1667 577.5,38.5C 577.5,25.5 577.5,12.5 577.5,-0.5 Z"/></g>
<g><path style="opacity:1" fill="#232222" d="M 577.5,58.5 C 577.5,68.1667 577.5,77.8333 577.5,87.5C 508.331,87.1675 439.331,87.5008 370.5,88.5C 367.956,88.1043 365.789,88.771 364,90.5C 275.685,241.493 188.185,392.993 101.5,545C 101.57,545.765 101.903,546.265 102.5,546.5C 167.301,660.825 232.801,774.825 299,888.5C 301.038,891.379 300.871,894.046 298.5,896.5C 291.626,900.437 284.626,904.103 277.5,907.5C 206.998,787.169 136.998,666.502 67.5,545.5C 67.687,543.436 68.187,541.436 69,539.5C 160.914,379.337 253.081,219.337 345.5,59.5C 422.83,58.5 500.164,58.1667 577.5,58.5 Z"/></g>
<g><path style="opacity:1" fill="#242222" d="M 604.5,58.5 C 707.167,58.3333 809.834,58.5 912.5,59C 951.265,124.526 989.265,190.526 1026.5,257C 1019.15,263.468 1010.82,268.635 1001.5,272.5C 1000.91,272.291 1000.41,271.957 1000,271.5C 964.9,210.964 930.067,150.298 895.5,89.5C 798.502,88.5 701.502,88.1667 604.5,88.5C 604.5,78.5 604.5,68.5 604.5,58.5 Z"/></g>
<g><path style="opacity:1" fill="#892d2c" d="M 577.5,58.5 C 578.494,68.3194 578.827,78.3194 578.5,88.5C 509.167,88.5 439.833,88.5 370.5,88.5C 439.331,87.5008 508.331,87.1675 577.5,87.5C 577.5,77.8333 577.5,68.1667 577.5,58.5 Z"/></g>
<g><path style="opacity:1" fill="#242222" d="M 604.5,101.5 C 698.169,101.167 791.836,101.5 885.5,102.5C 919.634,161.796 953.967,220.963 988.5,280C 980.931,285.23 973.098,290.063 965,294.5C 932.914,239.997 901.081,185.331 869.5,130.5C 781.169,129.5 692.836,129.167 604.5,129.5C 604.5,120.167 604.5,110.833 604.5,101.5 Z"/></g>
<g><path style="opacity:1" fill="#242222" d="M 577.5,107.5 C 577.5,114.833 577.5,122.167 577.5,129.5C 515.998,129.168 454.664,129.501 393.5,130.5C 392.127,130.343 390.793,130.51 389.5,131C 309.116,267.594 229.616,404.761 151,542.5C 150.235,544.066 150.402,545.399 151.5,546.5C 159.134,561.766 167.3,576.766 176,591.5C 229.919,684.337 283.586,777.337 337,870.5C 337.711,872.367 337.211,873.867 335.5,875C 329.167,878.5 322.833,882 316.5,885.5C 250.317,772.466 184.65,659.133 119.5,545.5C 119.343,544.127 119.51,542.793 120,541.5C 203.501,394.521 288.001,248.187 373.5,102.5C 441.497,101.5 509.497,101.167 577.5,101.5C 577.5,103.5 577.5,105.5 577.5,107.5 Z"/></g>
<g><path style="opacity:1" fill="#902d2d" d="M 577.5,107.5 C 578.492,114.982 578.825,122.648 578.5,130.5C 516.833,130.5 455.167,130.5 393.5,130.5C 454.664,129.501 515.998,129.168 577.5,129.5C 577.5,122.167 577.5,114.833 577.5,107.5 Z"/></g>
<g><path style="opacity:1" fill="#992f2e" d="M 541.5,140.5 C 553.655,139.505 565.989,139.171 578.5,139.5C 578.824,146.354 578.491,153.021 577.5,159.5C 577.5,153.167 577.5,146.833 577.5,140.5C 565.5,140.5 553.5,140.5 541.5,140.5 Z"/></g>
<g><path style="opacity:1" fill="#242222" d="M 541.5,140.5 C 553.5,140.5 565.5,140.5 577.5,140.5C 577.5,146.833 577.5,153.167 577.5,159.5C 577.5,162.167 577.5,164.833 577.5,167.5C 522.108,167.012 466.774,167.512 411.5,169C 339.029,294.112 266.695,419.279 194.5,544.5C 193.588,545.738 193.421,547.072 194,548.5C 252.333,649.5 310.667,750.5 369,851.5C 369.781,852.944 369.614,854.277 368.5,855.5C 362.227,859.554 355.727,863.22 349,866.5C 346.679,865.513 345.013,863.846 344,861.5C 282.716,756.597 222.216,651.263 162.5,545.5C 164.766,538.963 167.6,532.629 171,526.5C 245.167,398.167 319.333,269.833 393.5,141.5C 442.829,140.5 492.162,140.167 541.5,140.5 Z"/></g>
<g><path style="opacity:1" fill="#232222" d="M 662.5,544.5 C 661.672,585.762 661.172,627.096 661,668.5C 660.747,692.947 656.414,716.614 648,739.5C 624.901,786.476 587.068,806.976 534.5,801C 520.144,799.743 506.144,796.909 492.5,792.5C 492.5,790.167 492.5,787.833 492.5,785.5C 507.139,787.854 521.806,788.02 536.5,786C 562.434,780.738 580.6,765.904 591,741.5C 597.393,724.704 601.559,707.37 603.5,689.5C 604.5,506.667 604.833,323.667 604.5,140.5C 691.167,140.333 777.834,140.5 864.5,141C 865.931,141.465 867.097,142.299 868,143.5C 897.689,194.212 926.855,245.212 955.5,296.5C 955.124,298.383 954.124,299.883 952.5,301C 946.998,304.585 941.331,307.919 935.5,311C 933.097,311.63 931.263,310.797 930,308.5C 902.914,261.997 876.081,215.33 849.5,168.5C 794.495,167.16 739.495,167.327 684.5,169C 674.636,170.531 668.136,176.031 665,185.5C 664.667,195.5 664.333,205.5 664,215.5C 662.687,325.162 662.187,434.829 662.5,544.5 Z"/></g>
<g><path style="opacity:0.991" fill="#232222" d="M 1090.5,251.5 C 1146.85,348.866 1203.18,446.199 1259.5,543.5C 1259.5,545.833 1259.5,548.167 1259.5,550.5C 1239.28,585.268 1218.78,619.935 1198,654.5C 1171.04,703.755 1143.04,752.422 1114,800.5C 1099.08,826.672 1084.41,853.005 1070,879.5C 1064.39,888.772 1058.39,897.772 1052,906.5C 1017.14,967.555 982.31,1028.55 947.5,1089.5C 796.833,1089.5 646.167,1089.5 495.5,1089.5C 495.868,1077.17 496.202,1064.83 496.5,1052.5C 639.5,1052.67 782.5,1052.5 925.5,1052C 1022.51,883.651 1119.51,715.317 1216.5,547C 1216.36,545.699 1215.69,544.866 1214.5,544.5C 1162.94,454.392 1111.11,364.392 1059,274.5C 1058.37,272.097 1059.2,270.263 1061.5,269C 1071.23,263.141 1080.9,257.308 1090.5,251.5 Z"/></g>
<g><path style="opacity:1" fill="#232222" d="M 1192.5,546.5 C 1186.69,557.446 1180.86,568.446 1175,579.5C 1087.58,730.003 1000.41,880.67 913.5,1031.5C 774.168,1032.5 634.835,1032.83 495.5,1032.5C 495.5,1023.17 495.5,1013.83 495.5,1004.5C 629.225,1004.86 762.892,1004.02 896.5,1002C 984.174,850.317 1071.84,698.651 1159.5,547C 1159.26,546.098 1158.92,545.265 1158.5,544.5C 1110.76,462.691 1063.26,380.691 1016,298.5C 1015.32,297.216 1015.48,296.049 1016.5,295C 1023.88,290.308 1031.55,286.141 1039.5,282.5C 1040.44,282.608 1041.28,282.941 1042,283.5C 1090.73,366.574 1139.07,449.908 1187,533.5C 1189.4,537.635 1191.24,541.968 1192.5,546.5 Z"/></g>
<g><path style="opacity:1" fill="#232222" d="M 1140.5,546.5 C 1136.63,554.565 1132.47,562.565 1128,570.5C 1047.63,709.415 967.126,848.249 886.5,987C 756.167,987.5 625.834,987.667 495.5,987.5C 495.5,979.167 495.5,970.833 495.5,962.5C 620.835,962.444 746.168,961.944 871.5,961C 950.726,824.713 1029.56,688.213 1108,551.5C 1109.42,549.157 1109.58,546.823 1108.5,544.5C 1065.43,470.024 1022.59,395.357 980,320.5C 979.333,319.167 979.333,317.833 980,316.5C 986.751,311.538 993.918,307.205 1001.5,303.5C 1042.9,373.967 1084.07,444.634 1125,515.5C 1130.88,525.526 1136.05,535.859 1140.5,546.5 Z"/></g>
<g><path style="opacity:1" fill="#232222" d="M 1098.5,546.5 C 1021.97,681.228 944.632,815.562 866.5,949.5C 742.837,950.924 619.171,951.59 495.5,951.5C 495.833,942.833 496.167,934.167 496.5,925.5C 614.17,925.782 731.837,925.282 849.5,924C 922.293,798.248 994.96,672.415 1067.5,546.5C 1067.14,545.478 1066.48,544.811 1065.5,544.5C 1026.36,476.221 987.19,407.888 948,339.5C 947.5,338 947,336.5 946.5,335C 953.993,330.583 961.826,326.416 970,322.5C 973.236,326.629 976.236,330.962 979,335.5C 1016,399.5 1053,463.5 1090,527.5C 1093.94,533.378 1096.77,539.712 1098.5,546.5 Z"/></g>
<g><path style="opacity:1" fill="#c93b3b" d="M 67.5,545.5 C 136.998,666.502 206.998,787.169 277.5,907.5C 284.626,904.103 291.626,900.437 298.5,896.5C 300.871,894.046 301.038,891.379 299,888.5C 232.801,774.825 167.301,660.825 102.5,546.5C 104.743,545.188 107.41,544.522 110.5,544.5C 113.585,544.544 116.585,544.878 119.5,545.5C 184.65,659.133 250.317,772.466 316.5,885.5C 322.833,882 329.167,878.5 335.5,875C 337.211,873.867 337.711,872.367 337,870.5C 283.586,777.337 229.919,684.337 176,591.5C 167.3,576.766 159.134,561.766 151.5,546.5C 154.771,544.158 158.438,543.824 162.5,545.5C 222.216,651.263 282.716,756.597 344,861.5C 345.013,863.846 346.679,865.513 349,866.5C 355.727,863.22 362.227,859.554 368.5,855.5C 369.614,854.277 369.781,852.944 369,851.5C 310.667,750.5 252.333,649.5 194,548.5C 193.421,547.072 193.588,545.738 194.5,544.5C 330.833,544.5 467.167,544.5 603.5,544.5C 603.5,592.833 603.5,641.167 603.5,689.5C 601.559,707.37 597.393,724.704 591,741.5C 580.6,765.904 562.434,780.738 536.5,786C 521.806,788.02 507.139,787.854 492.5,785.5C 492.5,787.833 492.5,790.167 492.5,792.5C 506.144,796.909 520.144,799.743 534.5,801C 587.068,806.976 624.901,786.476 648,739.5C 656.414,716.614 660.747,692.947 661,668.5C 661.172,627.096 661.672,585.762 662.5,544.5C 796.833,544.5 931.167,544.5 1065.5,544.5C 1066.48,544.811 1067.14,545.478 1067.5,546.5C 994.96,672.415 922.293,798.248 849.5,924C 731.837,925.282 614.17,925.782 496.5,925.5C 496.167,934.167 495.833,942.833 495.5,951.5C 619.171,951.59 742.837,950.924 866.5,949.5C 944.632,815.562 1021.97,681.228 1098.5,546.5C 1101.49,544.727 1104.82,544.06 1108.5,544.5C 1109.58,546.823 1109.42,549.157 1108,551.5C 1029.56,688.213 950.726,824.713 871.5,961C 746.168,961.944 620.835,962.444 495.5,962.5C 495.5,970.833 495.5,979.167 495.5,987.5C 625.834,987.667 756.167,987.5 886.5,987C 967.126,848.249 1047.63,709.415 1128,570.5C 1132.47,562.565 1136.63,554.565 1140.5,546.5C 1146.21,544.614 1152.21,543.947 1158.5,544.5C 1158.92,545.265 1159.26,546.098 1159.5,547C 1071.84,698.651 984.174,850.317 896.5,1002C 762.892,1004.02 629.225,1004.86 495.5,1004.5C 495.5,1013.83 495.5,1023.17 495.5,1032.5C 634.835,1032.83 774.168,1032.5 913.5,1031.5C 1000.41,880.67 1087.58,730.003 1175,579.5C 1180.86,568.446 1186.69,557.446 1192.5,546.5C 1199.56,544.59 1206.89,543.924 1214.5,544.5C 1215.69,544.866 1216.36,545.699 1216.5,547C 1119.51,715.317 1022.51,883.651 925.5,1052C 782.5,1052.5 639.5,1052.67 496.5,1052.5C 496.202,1064.83 495.868,1077.17 495.5,1089.5C 487.167,1089.5 478.833,1089.5 470.5,1089.5C 470.324,1034.83 469.991,980.165 469.5,925.5C 450.144,925.787 430.811,925.287 411.5,924C 401.968,908.631 392.635,893.131 383.5,877.5C 338.84,902.495 294.507,927.995 250.5,954C 246.781,956.364 242.781,957.864 238.5,958.5C 233.822,952.484 230.155,945.817 227.5,938.5C 227.953,937.542 228.619,936.708 229.5,936C 239.535,930.655 249.201,924.822 258.5,918.5C 187.778,795.466 117.111,672.466 46.5,549.5C 46.5,547.833 46.5,546.167 46.5,544.5C 53.5878,544.205 60.5878,544.538 67.5,545.5 Z"/></g>
<g><path style="opacity:0.998" fill="#232222" d="M 470.5,1089.5 C 418.167,1089.5 365.833,1089.5 313.5,1089.5C 288.259,1046.02 263.259,1002.36 238.5,958.5C 242.781,957.864 246.781,956.364 250.5,954C 294.507,927.995 338.84,902.495 383.5,877.5C 392.635,893.131 401.968,908.631 411.5,924C 430.811,925.287 450.144,925.787 469.5,925.5C 469.991,980.165 470.324,1034.83 470.5,1089.5 Z"/></g>
</svg>
