<!DOCTYPE svg PUBLIC "-//W3C//DTD SVG 20010904//EN" "http://www.w3.org/TR/2001/REC-SVG-20010904/DTD/svg10.dtd">
<svg version="1.0" xmlns="http://www.w3.org/2000/svg" width="1138px" height="1141px" viewBox="0 0 11380 11410" preserveAspectRatio="xMidYMid meet">
<g id="layer101" fill="#010101" stroke="none">
<path d="M5595 11399 c-33 -4 -150 -13 -260 -19 -733 -42 -1488 -241 -2181 -575 -256 -123 -432 -231 -764 -469 -205 -146 -522 -407 -518 -424 1 -4 -81 -90 -183 -192 -310 -309 -543 -595 -765 -937 -600 -924 -914 -1986 -914 -3093 0 -1379 488 -2684 1394 -3730 128 -148 408 -428 556 -556 865 -749 1921 -1219 3040 -1353 297 -36 478 -44 775 -38 366 9 599 30 900 83 1936 339 3564 1665 4293 3494 209 524 328 1036 384 1640 16 174 16 746 0 920 -72 777 -253 1422 -587 2090 -281 561 -628 1037 -1092 1497 -101 100 -183 185 -183 189 0 7 -117 124 -124 124 -3 0 -60 44 -128 98 -144 116 -365 276 -502 364 -115 75 -456 264 -600 334 -255 123 -624 260 -926 344 -63 17 -170 49 -236 70 -272 86 -482 113 -1064 136 -69 2 -154 6 -190 8 -36 1 -92 -1 -125 -5z"/>
</g>
<g id="layer102" fill="#3c3c3c" stroke="none">
<path d="M5595 11399 c-33 -4 -150 -13 -260 -19 -733 -42 -1488 -241 -2181 -575 -256 -123 -432 -231 -764 -469 -205 -146 -522 -407 -518 -424 1 -4 -81 -90 -183 -192 -310 -309 -543 -595 -765 -937 -600 -924 -914 -1986 -914 -3093 0 -1379 488 -2684 1394 -3730 128 -148 408 -428 556 -556 865 -749 1921 -1219 3040 -1353 297 -36 478 -44 775 -38 366 9 599 30 900 83 1936 339 3564 1665 4293 3494 209 524 328 1036 384 1640 16 174 16 746 0 920 -72 777 -253 1422 -587 2090 -281 561 -628 1037 -1092 1497 -101 100 -183 185 -183 189 0 7 -117 124 -124 124 -3 0 -60 44 -128 98 -144 116 -365 276 -502 364 -115 75 -456 264 -600 334 -255 123 -624 260 -926 344 -63 17 -170 49 -236 70 -272 86 -482 113 -1064 136 -69 2 -154 6 -190 8 -36 1 -92 -1 -125 -5z m-1427 -6072 c2 -10 -3 -17 -12 -17 -10 0 -16 9 -16 21 0 24 23 21 28 -4z m3057 3 c3 -6 3 -20 0 -31 -6 -19 -9 -20 -22 -6 -9 9 -13 23 -10 31 7 18 23 21 32 6z m-2805 -20 c0 -11 -4 -20 -9 -20 -11 0 -22 26 -14 34 12 12 23 5 23 -14z m2515 -26 c0 -10 -8 -20 -17 -22 -18 -3 -26 27 -11 42 12 11 28 0 28 -20z m-2301 -31 c9 -23 -12 -43 -24 -23 -5 8 -10 21 -10 28 0 18 27 15 34 -5z m2062 -8 c4 -8 0 -22 -7 -31 -10 -13 -14 -13 -26 -1 -16 16 -7 47 13 47 8 0 17 -7 20 -15z m-279 -31 c8 -21 -13 -42 -28 -27 -13 13 -5 43 11 43 6 0 13 -7 17 -16z m-1499 -56 c19 -19 14 -30 -10 -26 -13 2 -24 11 -26 21 -4 20 18 23 36 5z m-598 -64 c0 -8 -4 -14 -10 -14 -5 0 -10 9 -10 21 0 11 5 17 10 14 6 -3 10 -13 10 -21z m227 -40 c8 -22 -15 -43 -27 -24 -5 8 -10 21 -10 28 0 17 30 15 37 -4z m2537 -30 c8 -20 -1 -34 -20 -34 -8 0 -14 8 -14 18 0 33 23 44 34 16z m-281 -28 c3 -8 -1 -22 -8 -33 -13 -17 -15 -17 -31 -1 -14 14 -15 20 -4 32 16 20 36 20 43 2z m-605 -38 c3 -24 0 -28 -23 -28 -27 0 -41 20 -31 46 10 27 51 13 54 -18z m320 -4 c-4 -25 -32 -24 -36 0 -4 21 18 40 31 27 5 -5 7 -17 5 -27z m-1698 -34 c0 -11 -7 -20 -15 -20 -17 0 -39 36 -30 50 10 16 45 -8 45 -30z m478 -9 c8 -5 12 -17 10 -27 -5 -26 -71 -27 -76 -1 -2 11 5 21 20 26 29 12 30 12 46 2z m-854 -37 c7 -19 -2 -37 -15 -29 -12 8 -12 45 0 45 5 0 12 -7 15 -16z m252 -89 c17 -26 12 -45 -11 -45 -19 0 -45 39 -38 56 8 22 31 17 49 -11z m1597 -27 c8 -12 7 -21 -2 -32 -18 -22 -38 -20 -51 5 -22 40 29 66 53 27z m351 6 c8 -22 -12 -56 -31 -52 -26 5 -39 34 -24 52 17 20 47 21 55 0z m271 -4 c10 -16 -5 -50 -21 -50 -17 0 -28 24 -20 45 6 17 32 20 41 5z m225 -19 c0 -24 -16 -45 -29 -37 -12 8 -15 48 -5 59 10 10 34 -5 34 -22z m-1941 -54 c17 -21 -21 -51 -54 -43 -24 6 -34 34 -18 49 11 12 60 7 72 -6z m-619 -77 c12 -23 6 -40 -15 -40 -13 0 -25 21 -25 46 0 21 28 17 40 -6z m1613 -61 c15 -24 1 -49 -27 -49 -27 0 -39 27 -24 54 11 20 37 18 51 -5z m222 1 c7 -23 -10 -50 -31 -50 -20 0 -34 31 -23 52 13 24 46 23 54 -2z m323 -47 c3 -22 -22 -48 -38 -38 -14 8 -13 38 2 53 16 16 32 10 36 -15z m-1733 1 c12 -12 13 -19 4 -30 -24 -29 -79 -13 -79 22 0 20 5 24 29 24 16 0 37 -7 46 -16z m309 10 c9 -3 16 -12 16 -20 0 -19 -46 -48 -65 -40 -20 7 -19 43 3 55 20 12 25 13 46 5z m1612 -15 c3 -6 -1 -18 -10 -27 -15 -15 -18 -15 -26 -2 -5 9 -5 19 2 27 13 16 25 17 34 2z m-2309 -94 c3 -9 3 -19 -1 -22 -7 -7 -36 16 -36 28 0 15 30 10 37 -6z m1679 -60 c4 -8 3 -27 0 -41 -5 -19 -12 -25 -29 -22 -22 3 -34 35 -23 64 7 19 45 18 52 -1z m-1476 -29 c-13 -13 -35 7 -25 24 5 8 11 8 21 -1 10 -8 12 -15 4 -23z m310 -1 c22 -26 4 -47 -37 -43 -41 3 -51 18 -28 42 20 20 49 21 65 1z m1360 -25 c0 -13 -7 -20 -20 -20 -19 0 -27 20 -13 33 13 14 33 6 33 -13z m174 11 c8 -12 -19 -45 -32 -38 -14 9 -3 47 14 47 7 0 15 -4 18 -9z m-2363 -161 c66 -13 107 -16 114 -10 8 6 37 -11 93 -55 221 -178 346 -387 330 -553 -9 -97 -101 -243 -177 -281 -53 -27 -171 -51 -280 -58 -81 -4 -115 -1 -216 22 -179 40 -248 77 -371 200 l-102 102 -7 89 c-10 115 4 218 41 292 35 69 140 176 211 214 109 60 203 70 364 38z m2994 5 c85 -23 150 -62 224 -135 114 -113 152 -229 136 -414 l-7 -89 -102 -102 c-123 -123 -192 -160 -371 -200 -101 -23 -135 -26 -216 -22 -109 7 -227 31 -280 58 -76 38 -168 184 -177 281 -16 166 109 375 330 553 55 44 85 61 93 55 7 -6 45 -3 106 9 117 24 188 25 264 6z"/>
<path d="M3920 3933 c-29 -15 -36 -24 -38 -54 -4 -51 19 -73 67 -64 20 4 44 11 53 16 23 12 33 55 22 88 -12 33 -55 39 -104 14z"/>
<path d="M3825 3684 c-25 -27 -25 -41 -4 -124 22 -83 192 -214 220 -169 17 27 9 64 -36 153 -78 160 -127 197 -180 140z"/>
<path d="M7321 3932 c-14 -26 -14 -58 -1 -82 9 -17 65 -40 97 -40 22 0 43 32 43 65 0 41 -28 64 -89 72 -32 4 -41 2 -50 -15z"/>
<path d="M7410 3673 c-39 -48 -120 -212 -120 -244 0 -39 14 -53 46 -45 61 16 168 119 183 176 21 83 21 97 -4 124 -34 37 -67 34 -105 -11z"/>
</g>
<g id="layer103" fill="#743c3c" stroke="none">
<path d="M5535 11394 c-27 -2 -126 -8 -220 -14 -727 -46 -1477 -246 -2161 -575 -256 -123 -432 -231 -764 -469 -205 -146 -522 -407 -518 -424 1 -4 -81 -90 -183 -192 -310 -309 -543 -595 -765 -937 -600 -924 -914 -1986 -914 -3093 0 -1379 488 -2684 1394 -3730 128 -148 408 -428 556 -556 865 -749 1921 -1219 3040 -1353 297 -36 478 -44 775 -38 366 9 599 30 900 83 1936 339 3564 1665 4293 3494 209 524 328 1036 384 1640 16 174 16 746 0 920 -72 777 -253 1422 -587 2090 -281 561 -628 1037 -1092 1497 -101 100 -183 185 -183 189 0 7 -117 124 -124 124 -3 0 -60 44 -128 98 -178 143 -427 321 -558 398 -276 164 -507 288 -679 364 -186 81 -559 213 -796 280 -60 17 -165 49 -231 70 -224 71 -405 100 -739 120 -191 12 -616 20 -700 14z m-2124 -5474 c17 -80 35 -149 39 -155 4 -5 15 -37 25 -70 29 -94 94 -240 138 -305 86 -130 167 -172 375 -195 43 -5 62 -11 62 -21 0 -8 -2 -14 -5 -14 -28 0 -210 32 -231 41 -16 7 -35 13 -41 15 -58 12 -166 125 -219 229 -20 38 -40 75 -44 80 -4 6 -13 26 -20 45 -7 19 -28 78 -47 130 -19 52 -36 105 -36 118 -1 12 -5 22 -10 22 -4 0 -4 12 -1 26 4 17 3 25 -3 21 -6 -4 -8 4 -5 20 4 19 2 24 -8 18 -9 -5 -10 -2 -5 14 4 12 2 27 -3 34 -10 13 -17 90 -13 142 3 34 -2 53 52 -195z m4571 115 c-3 -27 -9 -55 -14 -62 -5 -7 -7 -22 -3 -34 5 -16 4 -19 -5 -14 -10 6 -12 1 -8 -18 3 -16 1 -24 -5 -20 -6 4 -7 -4 -3 -21 3 -14 3 -26 -1 -26 -5 0 -9 -10 -10 -22 0 -13 -17 -66 -36 -118 -19 -52 -40 -111 -47 -130 -7 -19 -16 -39 -20 -45 -4 -5 -24 -42 -44 -80 -53 -104 -161 -217 -219 -229 -6 -2 -25 -8 -41 -15 -21 -9 -203 -41 -231 -41 -3 0 -5 6 -5 14 0 10 19 16 63 21 84 10 177 31 229 54 70 30 147 125 203 246 50 112 56 124 75 187 11 35 25 72 30 83 10 20 63 251 77 335 7 43 7 44 13 15 4 -16 5 -52 2 -80z m-3246 -273 c56 -17 135 -34 175 -37 41 -4 90 -11 109 -16 19 -4 121 -15 225 -24 105 -8 217 -22 250 -30 36 -8 110 -14 185 -14 75 0 149 6 185 14 33 8 146 22 250 30 105 9 206 20 225 24 19 5 68 12 109 16 40 3 119 21 175 38 99 31 105 32 278 31 186 -2 355 -25 365 -52 8 -18 2 -22 -63 -37 -33 -7 -73 -21 -89 -29 -21 -11 -60 -16 -135 -16 -114 -1 -216 -26 -420 -103 -87 -33 -229 -77 -340 -106 -132 -35 -128 -34 -270 -60 -69 -13 -103 -40 -133 -108 -45 -102 -57 -215 -57 -531 0 -157 5 -315 11 -351 14 -91 68 -300 85 -333 26 -51 76 -99 130 -124 58 -27 225 -57 307 -55 26 1 47 -2 47 -7 0 -12 -100 -96 -139 -117 -117 -60 -268 -85 -521 -85 -253 0 -404 25 -521 85 -39 21 -139 105 -139 117 0 5 21 8 48 7 81 -2 248 28 306 55 54 25 104 73 130 124 17 33 71 242 85 333 6 36 11 194 11 351 0 316 -12 429 -57 531 -30 68 -64 95 -133 108 -142 26 -138 25 -270 60 -111 29 -253 73 -340 106 -204 77 -306 102 -420 103 -75 0 -114 5 -135 16 -16 8 -56 22 -89 29 -65 15 -71 19 -63 37 5 15 157 46 247 52 30 2 109 2 175 1 103 -1 135 -6 221 -33z m-556 -436 c0 -22 -25 -37 -38 -24 -13 13 -16 41 -6 51 10 9 44 -12 44 -27z m100 3 c0 -11 -4 -17 -10 -14 -5 3 -10 13 -10 21 0 8 5 14 10 14 6 0 10 -9 10 -21z m2950 6 c13 -16 6 -65 -9 -65 -14 0 -41 29 -41 44 0 13 20 36 31 36 4 0 12 -7 19 -15z m-2802 -19 c2 -10 -1 -23 -8 -30 -14 -14 -41 19 -33 40 8 20 37 13 41 -10z m2662 -6 c0 -21 -15 -27 -25 -10 -7 12 2 30 16 30 5 0 9 -9 9 -20z m-2565 -8 c0 -18 -20 -15 -23 4 -3 10 1 15 10 12 7 -3 13 -10 13 -16z m2415 3 c18 -22 3 -57 -23 -53 -25 3 -34 32 -17 53 16 19 24 19 40 0z m-132 -32 c-5 -25 -28 -28 -28 -4 0 12 6 21 16 21 9 0 14 -7 12 -17z m-2167 -14 c9 -17 8 -25 -6 -38 -15 -15 -17 -15 -31 3 -8 11 -14 28 -14 38 0 25 37 23 51 -3z m2058 -3 c14 -16 -5 -66 -24 -66 -25 0 -39 29 -27 55 13 28 34 32 51 11z m-275 -40 c9 -13 7 -20 -7 -31 -35 -26 -66 12 -35 43 15 15 28 11 42 -12z m146 10 c0 -18 -16 -29 -30 -21 -13 8 -1 35 16 35 8 0 14 -6 14 -14z m-1823 -11 c3 -9 3 -19 -1 -22 -8 -9 -37 18 -30 28 8 14 24 11 31 -6z m190 -61 c30 -46 -21 -63 -56 -18 -15 19 -18 30 -11 39 15 18 48 7 67 -21z m-610 -68 c-4 -9 -11 -16 -17 -16 -15 0 -24 26 -16 47 6 15 8 15 23 1 9 -9 13 -24 10 -32z m113 -2 c0 -16 -16 -19 -25 -4 -8 13 4 32 16 25 5 -4 9 -13 9 -21z m-310 -7 c0 -21 -219 -160 -290 -184 -105 -36 -243 -28 -338 20 -42 21 -162 105 -162 113 0 2 24 -10 53 -27 158 -90 273 -126 362 -112 45 7 175 72 250 124 42 30 113 75 123 78 1 1 2 -5 2 -12z m3218 -74 c54 -41 194 -109 237 -116 89 -14 204 22 363 112 28 17 52 29 52 27 0 -8 -120 -92 -162 -113 -95 -48 -233 -56 -338 -20 -70 24 -290 163 -290 184 0 13 78 -28 138 -74z m-2798 56 c14 -25 6 -49 -14 -49 -19 0 -40 36 -32 56 8 21 34 17 46 -7z m2538 -44 c4 -31 -15 -50 -35 -33 -16 13 -17 40 -1 56 18 18 33 9 36 -23z m-2428 -19 c-13 -13 -35 7 -25 24 5 8 11 8 21 -1 10 -8 12 -15 4 -23z m2270 14 c0 -11 -7 -20 -15 -20 -8 0 -15 9 -15 20 0 11 7 20 15 20 8 0 15 -9 15 -20z m-122 -6 c20 -36 -15 -77 -44 -53 -15 12 -19 51 -7 62 12 13 42 7 51 -9z m-604 -20 c21 -20 20 -30 -4 -54 -24 -24 -63 -14 -68 19 -7 45 40 67 72 35z m330 -10 c7 -19 -10 -54 -27 -54 -35 0 -50 52 -20 68 20 12 39 6 47 -14z m126 12 c0 -8 -5 -18 -11 -22 -14 -8 -33 11 -25 25 10 16 36 13 36 -3z m-1840 -40 c25 -27 21 -56 -6 -56 -26 0 -54 30 -54 57 0 31 30 30 60 -1z m1516 13 c10 -17 -13 -36 -27 -22 -12 12 -4 33 11 33 5 0 12 -5 16 -11z m-2006 -29 c0 -5 -11 -17 -24 -25 -13 -9 -26 -25 -29 -37 -5 -18 -8 -19 -21 -9 -13 11 -30 7 -98 -22 -166 -71 -362 -113 -468 -102 -121 14 -310 73 -310 98 0 10 3 9 94 -22 126 -44 211 -55 328 -42 96 10 158 25 213 50 11 6 56 22 100 37 44 15 104 40 134 56 55 29 81 35 81 18z m2761 -18 c30 -16 90 -41 134 -56 44 -15 89 -31 100 -37 55 -25 117 -40 213 -50 117 -13 202 -2 328 42 91 31 94 32 94 22 0 -16 -60 -41 -165 -70 -179 -48 -350 -31 -573 58 -108 42 -205 92 -210 107 -6 20 21 14 79 -16z m-1780 8 c23 -13 25 -43 3 -60 -22 -19 -75 -16 -90 4 -16 22 -9 40 19 54 29 14 44 14 68 2z m-861 -35 c16 -19 3 -57 -18 -53 -22 4 -30 68 -9 68 8 0 20 -7 27 -15z m638 -22 c2 -8 -6 -13 -22 -13 -17 0 -26 5 -26 16 0 19 41 16 48 -3z m-540 -27 c3 -12 -1 -17 -10 -14 -7 3 -15 13 -16 22 -3 12 1 17 10 14 7 -3 15 -13 16 -22z m166 -51 c19 -51 -7 -78 -49 -51 -29 19 -42 60 -25 81 10 13 16 13 40 0 15 -8 30 -22 34 -30z m1931 -5 c38 -42 -18 -105 -61 -70 -21 18 -17 57 8 74 29 20 31 20 53 -4z m-347 -2 c21 -21 14 -57 -13 -70 -22 -10 -29 -9 -47 10 -19 18 -20 25 -10 47 13 27 49 34 70 13z m627 -18 c7 -23 -10 -60 -28 -60 -18 0 -37 21 -37 40 0 38 54 55 65 20z m215 6 c16 -20 9 -56 -13 -70 -14 -8 -20 -8 -27 4 -13 21 -12 54 2 68 16 16 23 15 38 -2z m-3040 -1 c0 -17 -33 -65 -67 -97 -31 -31 -53 -41 -123 -57 -133 -32 -338 -17 -355 27 -6 16 5 15 115 -13 44 -11 83 -15 120 -11 30 4 69 8 85 10 71 7 195 88 195 127 0 10 7 19 15 19 8 0 15 -2 15 -5z m2707 -30 c21 -19 45 -35 53 -35 8 0 48 -23 88 -50 40 -27 90 -54 110 -61 20 -6 42 -15 47 -19 11 -7 173 -60 240 -78 22 -6 59 -15 81 -21 58 -15 287 -13 359 3 105 24 173 45 212 66 21 11 45 20 55 20 9 0 19 4 22 9 3 5 15 11 26 14 17 4 19 3 9 -9 -6 -8 -16 -14 -22 -14 -5 0 -15 -7 -21 -15 -6 -8 -47 -28 -91 -43 -257 -91 -487 -90 -760 0 -104 35 -355 160 -401 201 -18 15 -39 27 -48 27 -9 0 -16 8 -16 20 0 28 14 25 57 -15z m463 16 c0 -39 124 -120 195 -127 17 -2 55 -6 85 -10 37 -4 76 0 120 11 110 28 121 29 115 13 -17 -44 -222 -59 -355 -27 -70 16 -92 26 -123 57 -34 32 -67 80 -67 97 0 3 7 5 15 5 8 0 15 -9 15 -19z m-800 -11 c0 -11 -7 -20 -15 -20 -8 0 -15 9 -15 20 0 11 7 20 15 20 8 0 15 -9 15 -20z m-1934 -29 c-37 -38 -300 -172 -411 -209 -273 -90 -503 -91 -760 0 -44 15 -85 35 -91 43 -6 8 -16 15 -21 15 -6 0 -16 6 -22 14 -10 12 -8 13 9 9 11 -3 23 -9 26 -14 3 -5 13 -9 22 -9 10 0 34 -9 55 -20 39 -21 107 -42 212 -66 72 -16 301 -18 359 -3 22 6 59 15 81 21 67 18 229 71 240 78 6 4 28 13 50 20 60 20 93 47 88 74 -6 28 22 43 35 20 8 -14 13 -13 48 3 21 9 52 28 68 41 38 30 47 19 12 -17z m360 -12 c11 -18 -13 -34 -31 -19 -8 7 -15 16 -15 21 0 13 38 11 46 -2z m322 -17 c6 -42 -53 -66 -99 -42 -10 6 -19 19 -19 28 0 30 22 43 70 40 38 -3 45 -6 48 -26z m-632 -67 c19 -30 12 -55 -15 -55 -22 0 -41 27 -41 59 0 30 36 27 56 -4z m1841 -61 c3 -9 1 -26 -5 -40 -14 -30 -57 -33 -72 -5 -14 28 -13 38 10 61 17 17 24 18 41 10 11 -6 23 -18 26 -26z m-227 12 c17 -21 9 -56 -17 -73 -19 -13 -24 -12 -42 6 -25 25 -27 44 -5 65 19 20 48 20 64 2z m-1425 -26 c3 -5 4 -14 0 -20 -8 -13 -35 -1 -35 16 0 16 26 19 35 4z m1779 -15 c3 -9 -1 -18 -10 -22 -19 -7 -28 2 -21 22 8 19 23 19 31 0z m186 -1 c21 -24 1 -69 -30 -69 -20 0 -26 6 -28 28 -6 48 31 74 58 41z m-1731 -4 c45 -24 24 -70 -31 -70 -48 0 -87 48 -61 73 10 10 72 8 92 -3z m329 -22 c5 -44 -65 -77 -96 -46 -32 32 9 81 63 76 24 -2 31 -8 33 -30z m1596 6 c8 -22 -12 -56 -32 -52 -18 3 -27 30 -18 54 7 19 42 18 50 -2z m-2329 -80 c22 -12 27 -45 8 -51 -6 -2 -20 5 -30 16 l-19 21 -53 -40 c-58 -44 -100 -55 -169 -46 -66 9 -166 45 -199 73 l-28 23 26 -9 c15 -5 50 -22 79 -37 73 -38 168 -44 232 -14 26 12 64 37 84 57 20 19 40 31 43 26 3 -4 15 -13 26 -19z m2200 -8 c20 -19 57 -44 83 -56 64 -30 159 -24 232 14 29 15 64 32 79 37 l26 9 -28 -23 c-38 -32 -142 -68 -216 -74 -48 -5 -68 -2 -103 16 -50 25 -91 59 -107 90 -16 29 -8 26 34 -13z m-501 -68 c7 -11 7 -26 0 -45 -7 -22 -16 -28 -39 -28 -27 0 -30 4 -33 33 -2 18 2 40 9 48 15 19 49 14 63 -8z m-1470 -10 c8 -13 7 -21 -1 -29 -23 -23 -74 15 -57 42 9 15 45 6 58 -13z m310 -14 c20 -20 20 -29 0 -49 -11 -11 -30 -15 -58 -13 -36 3 -41 6 -44 31 -3 21 2 29 20 36 35 15 65 13 82 -5z m1354 -25 c2 -9 -5 -24 -14 -34 -15 -14 -19 -15 -31 -2 -22 21 -8 59 20 55 12 -2 23 -10 25 -19z m172 -3 c0 -26 -24 -51 -40 -41 -11 7 -14 48 -3 58 3 4 15 7 25 7 12 0 18 -7 18 -24z m-2465 -50 c65 -17 205 -76 205 -86 0 -4 33 -32 73 -63 92 -71 214 -196 259 -267 74 -116 90 -159 96 -252 5 -84 3 -90 -31 -161 -85 -179 -187 -231 -457 -231 -167 0 -252 18 -380 80 -61 30 -95 57 -180 143 -139 140 -158 169 -176 272 -24 140 5 253 93 365 43 53 141 132 205 165 90 46 203 60 293 35z m3174 -15 c123 -47 257 -164 310 -273 45 -90 55 -172 37 -277 -18 -103 -37 -132 -176 -272 -85 -86 -119 -113 -180 -143 -128 -62 -213 -80 -380 -80 -270 0 -372 52 -457 231 -34 71 -36 77 -31 161 6 93 22 136 96 252 45 71 167 196 260 267 39 31 72 59 72 63 0 9 134 67 200 86 61 18 182 11 249 -15z"/>
</g>
<g id="layer104" fill="#ba2c2c" stroke="none">
<path d="M5535 11394 c-27 -2 -126 -8 -220 -14 -727 -46 -1477 -246 -2161 -575 -256 -123 -432 -231 -764 -469 -210 -150 -523 -407 -517 -425 1 -4 -77 -86 -173 -182 -482 -479 -826 -958 -1116 -1554 -314 -647 -490 -1287 -556 -2025 -16 -188 -16 -732 0 -920 67 -752 245 -1391 572 -2055 483 -982 1222 -1783 2172 -2358 307 -186 789 -408 1118 -515 544 -178 1042 -266 1623 -288 l177 -7 0 900 0 901 63 5 c34 3 91 6 127 6 136 3 423 34 577 61 172 31 680 208 797 279 17 10 56 32 87 49 266 146 508 379 630 608 15 28 48 80 72 115 48 68 73 111 118 197 16 30 32 59 37 65 6 7 20 44 32 82 22 73 27 82 166 354 206 403 359 849 463 1349 14 66 14 450 1 627 -48 647 -56 1381 -20 1835 65 839 235 1533 556 2280 l92 215 -59 57 c-32 32 -61 58 -63 58 -3 0 -60 44 -128 98 -178 143 -427 321 -558 398 -276 164 -507 288 -679 364 -186 81 -559 213 -796 280 -60 17 -165 49 -231 70 -224 71 -405 100 -739 120 -191 12 -616 20 -700 14z m114 -505 c17 -28 31 -52 31 -54 0 -3 16 -29 35 -60 19 -30 40 -65 45 -77 6 -13 19 -36 30 -53 11 -16 28 -46 38 -65 11 -19 49 -86 86 -148 36 -62 66 -115 66 -117 0 -3 16 -29 35 -60 l36 -55 424 0 424 0 -29 -50 c-17 -28 -30 -53 -30 -56 0 -2 -22 -39 -48 -82 -27 -42 -51 -85 -55 -94 -3 -10 -22 -43 -42 -73 -19 -31 -35 -57 -35 -60 0 -3 -16 -29 -35 -59 -19 -30 -35 -58 -35 -61 0 -4 -14 -31 -32 -61 l-32 -53 -29 46 c-33 52 -34 45 32 158 34 58 48 82 86 150 15 28 35 61 44 75 10 14 22 36 29 50 7 14 21 40 32 58 l20 32 -379 0 -379 0 -28 48 c-16 26 -37 61 -46 77 -10 17 -27 48 -38 70 -11 22 -25 49 -32 60 -53 84 -79 125 -97 158 -45 81 -61 107 -85 146 -15 22 -26 45 -26 50 0 19 -20 22 -27 4 -3 -10 -14 -29 -23 -43 -10 -14 -28 -45 -42 -70 -14 -25 -35 -63 -48 -85 -13 -22 -34 -60 -48 -85 -14 -25 -32 -56 -41 -70 -9 -14 -23 -37 -31 -52 -12 -26 -18 -28 -72 -28 l-58 0 21 38 c12 20 25 42 29 47 8 11 35 57 83 145 17 30 37 66 46 80 35 56 41 66 51 88 5 12 26 47 45 77 19 31 35 57 35 60 0 6 61 105 64 105 2 0 17 -23 35 -51z m-1269 -954 c18 -33 36 -64 41 -69 5 -6 9 -185 9 -399 l0 -388 -24 -42 c-13 -23 -33 -60 -46 -82 -12 -22 -24 -42 -26 -44 -2 -2 -4 245 -4 549 0 319 4 550 9 545 5 -6 23 -37 41 -70z m1207 -174 c78 -57 77 -53 81 -521 3 -301 7 -417 15 -422 7 -4 77 -8 157 -8 l146 0 36 62 37 62 12 -30 c7 -16 19 -37 27 -46 12 -14 10 -24 -17 -72 -16 -30 -46 -80 -65 -111 -20 -30 -36 -58 -36 -60 0 -3 -18 -35 -40 -71 -22 -36 -40 -68 -40 -70 0 -2 -16 -28 -35 -58 -19 -30 -35 -57 -35 -60 0 -3 -14 -29 -31 -58 -18 -29 -41 -69 -52 -88 -11 -19 -28 -48 -38 -65 -9 -16 -30 -54 -45 -83 -39 -75 -49 -81 -74 -40 -25 41 -25 49 0 93 11 19 30 52 41 73 12 20 37 66 57 102 19 36 43 77 53 92 11 14 19 28 19 31 0 2 30 56 66 118 98 168 104 179 104 184 0 3 -79 5 -175 5 l-175 0 0 443 c0 477 -4 515 -53 572 -18 21 -32 26 -74 28 -53 2 -69 11 -35 20 9 3 42 5 73 6 47 1 62 -4 96 -28z m-2176 -3841 c17 -80 35 -149 39 -155 4 -5 15 -37 25 -70 29 -94 94 -240 138 -305 86 -130 167 -172 375 -195 43 -5 62 -11 62 -21 0 -8 -2 -14 -5 -14 -28 0 -210 32 -231 41 -16 7 -35 13 -41 15 -58 12 -166 125 -219 229 -20 38 -40 75 -44 80 -4 6 -13 26 -20 45 -7 19 -28 78 -47 130 -19 52 -36 105 -36 118 -1 12 -5 22 -10 22 -4 0 -4 12 -1 26 4 17 3 25 -3 21 -6 -4 -8 4 -5 20 4 19 2 24 -8 18 -9 -5 -10 -2 -5 14 4 12 2 27 -3 34 -10 13 -17 90 -13 142 3 34 -2 53 52 -195z m4571 115 c-3 -27 -9 -55 -14 -62 -5 -7 -7 -22 -3 -34 5 -16 4 -19 -5 -14 -10 6 -12 1 -8 -18 3 -16 1 -24 -5 -20 -6 4 -7 -4 -3 -21 3 -14 3 -26 -1 -26 -5 0 -9 -10 -10 -22 0 -13 -17 -66 -36 -118 -19 -52 -40 -111 -47 -130 -7 -19 -16 -39 -20 -45 -4 -5 -24 -42 -44 -80 -53 -104 -161 -217 -219 -229 -6 -2 -25 -8 -41 -15 -21 -9 -203 -41 -231 -41 -3 0 -5 6 -5 14 0 10 19 16 63 21 84 10 177 31 229 54 70 30 147 125 203 246 50 112 56 124 75 187 11 35 25 72 30 83 10 20 63 251 77 335 7 43 7 44 13 15 4 -16 5 -52 2 -80z m-3246 -273 c56 -17 135 -34 175 -37 41 -4 90 -11 109 -16 19 -4 121 -15 225 -24 105 -8 217 -22 250 -30 36 -8 110 -14 185 -14 75 0 149 6 185 14 33 8 146 22 250 30 105 9 206 20 225 24 19 5 68 12 109 16 40 3 119 21 175 38 99 31 105 32 278 31 186 -2 355 -25 365 -52 8 -18 2 -22 -63 -37 -33 -7 -73 -21 -89 -29 -21 -11 -60 -16 -135 -16 -114 -1 -216 -26 -420 -103 -87 -33 -229 -77 -340 -106 -132 -35 -128 -34 -270 -60 -69 -13 -103 -40 -133 -108 -45 -102 -57 -215 -57 -531 0 -157 5 -315 11 -351 14 -91 68 -300 85 -333 26 -51 76 -99 130 -124 58 -27 225 -57 307 -55 26 1 47 -2 47 -7 0 -12 -100 -96 -139 -117 -117 -60 -268 -85 -521 -85 -253 0 -404 25 -521 85 -39 21 -139 105 -139 117 0 5 21 8 48 7 81 -2 248 28 306 55 54 25 104 73 130 124 17 33 71 242 85 333 6 36 11 194 11 351 0 316 -12 429 -57 531 -30 68 -64 95 -133 108 -142 26 -138 25 -270 60 -111 29 -253 73 -340 106 -204 77 -306 102 -420 103 -75 0 -114 5 -135 16 -16 8 -56 22 -89 29 -65 15 -71 19 -63 37 5 15 157 46 247 52 30 2 109 2 175 1 103 -1 135 -6 221 -33z m-556 -436 c0 -22 -25 -37 -38 -24 -13 13 -16 41 -6 51 10 9 44 -12 44 -27z m100 3 c0 -11 -4 -17 -10 -14 -5 3 -10 13 -10 21 0 8 5 14 10 14 6 0 10 -9 10 -21z m2950 6 c13 -16 6 -65 -9 -65 -14 0 -41 29 -41 44 0 13 20 36 31 36 4 0 12 -7 19 -15z m-2802 -19 c2 -10 -1 -23 -8 -30 -14 -14 -41 19 -33 40 8 20 37 13 41 -10z m2662 -6 c0 -21 -15 -27 -25 -10 -7 12 2 30 16 30 5 0 9 -9 9 -20z m-2565 -8 c0 -18 -20 -15 -23 4 -3 10 1 15 10 12 7 -3 13 -10 13 -16z m2415 3 c18 -22 3 -57 -23 -53 -25 3 -34 32 -17 53 16 19 24 19 40 0z m-132 -32 c-5 -25 -28 -28 -28 -4 0 12 6 21 16 21 9 0 14 -7 12 -17z m-2167 -14 c9 -17 8 -25 -6 -38 -15 -15 -17 -15 -31 3 -8 11 -14 28 -14 38 0 25 37 23 51 -3z m2058 -3 c14 -16 -5 -66 -24 -66 -25 0 -39 29 -27 55 13 28 34 32 51 11z m-275 -40 c9 -13 7 -20 -7 -31 -35 -26 -66 12 -35 43 15 15 28 11 42 -12z m146 10 c0 -18 -16 -29 -30 -21 -13 8 -1 35 16 35 8 0 14 -6 14 -14z m-1823 -11 c3 -9 3 -19 -1 -22 -8 -9 -37 18 -30 28 8 14 24 11 31 -6z m190 -61 c30 -46 -21 -63 -56 -18 -15 19 -18 30 -11 39 15 18 48 7 67 -21z m-610 -68 c-4 -9 -11 -16 -17 -16 -15 0 -24 26 -16 47 6 15 8 15 23 1 9 -9 13 -24 10 -32z m113 -2 c0 -16 -16 -19 -25 -4 -8 13 4 32 16 25 5 -4 9 -13 9 -21z m-310 -7 c0 -21 -219 -160 -290 -184 -105 -36 -243 -28 -338 20 -42 21 -162 105 -162 113 0 2 24 -10 53 -27 158 -90 273 -126 362 -112 45 7 175 72 250 124 42 30 113 75 123 78 1 1 2 -5 2 -12z m3218 -74 c54 -41 194 -109 237 -116 89 -14 204 22 363 112 28 17 52 29 52 27 0 -8 -120 -92 -162 -113 -95 -48 -233 -56 -338 -20 -70 24 -290 163 -290 184 0 13 78 -28 138 -74z m-2798 56 c14 -25 6 -49 -14 -49 -19 0 -40 36 -32 56 8 21 34 17 46 -7z m2538 -44 c4 -31 -15 -50 -35 -33 -16 13 -17 40 -1 56 18 18 33 9 36 -23z m-2428 -19 c-13 -13 -35 7 -25 24 5 8 11 8 21 -1 10 -8 12 -15 4 -23z m2270 14 c0 -11 -7 -20 -15 -20 -8 0 -15 9 -15 20 0 11 7 20 15 20 8 0 15 -9 15 -20z m-122 -6 c20 -36 -15 -77 -44 -53 -15 12 -19 51 -7 62 12 13 42 7 51 -9z m-604 -20 c21 -20 20 -30 -4 -54 -24 -24 -63 -14 -68 19 -7 45 40 67 72 35z m330 -10 c7 -19 -10 -54 -27 -54 -35 0 -50 52 -20 68 20 12 39 6 47 -14z m126 12 c0 -8 -5 -18 -11 -22 -14 -8 -33 11 -25 25 10 16 36 13 36 -3z m-1840 -40 c25 -27 21 -56 -6 -56 -26 0 -54 30 -54 57 0 31 30 30 60 -1z m1516 13 c10 -17 -13 -36 -27 -22 -12 12 -4 33 11 33 5 0 12 -5 16 -11z m-2006 -29 c0 -5 -11 -17 -24 -25 -13 -9 -26 -25 -29 -37 -5 -18 -8 -19 -21 -9 -13 11 -30 7 -98 -22 -166 -71 -362 -113 -468 -102 -121 14 -310 73 -310 98 0 10 3 9 94 -22 126 -44 211 -55 328 -42 96 10 158 25 213 50 11 6 56 22 100 37 44 15 104 40 134 56 55 29 81 35 81 18z m2761 -18 c30 -16 90 -41 134 -56 44 -15 89 -31 100 -37 55 -25 117 -40 213 -50 117 -13 202 -2 328 42 91 31 94 32 94 22 0 -16 -60 -41 -165 -70 -179 -48 -350 -31 -573 58 -108 42 -205 92 -210 107 -6 20 21 14 79 -16z m-1780 8 c23 -13 25 -43 3 -60 -22 -19 -75 -16 -90 4 -16 22 -9 40 19 54 29 14 44 14 68 2z m-861 -35 c16 -19 3 -57 -18 -53 -22 4 -30 68 -9 68 8 0 20 -7 27 -15z m638 -22 c2 -8 -6 -13 -22 -13 -17 0 -26 5 -26 16 0 19 41 16 48 -3z m-540 -27 c3 -12 -1 -17 -10 -14 -7 3 -15 13 -16 22 -3 12 1 17 10 14 7 -3 15 -13 16 -22z m166 -51 c19 -51 -7 -78 -49 -51 -29 19 -42 60 -25 81 10 13 16 13 40 0 15 -8 30 -22 34 -30z m1931 -5 c38 -42 -18 -105 -61 -70 -21 18 -17 57 8 74 29 20 31 20 53 -4z m-347 -2 c21 -21 14 -57 -13 -70 -22 -10 -29 -9 -47 10 -19 18 -20 25 -10 47 13 27 49 34 70 13z m627 -18 c7 -23 -10 -60 -28 -60 -18 0 -37 21 -37 40 0 38 54 55 65 20z m215 6 c16 -20 9 -56 -13 -70 -14 -8 -20 -8 -27 4 -13 21 -12 54 2 68 16 16 23 15 38 -2z m-3040 -1 c0 -17 -33 -65 -67 -97 -31 -31 -53 -41 -123 -57 -133 -32 -338 -17 -355 27 -6 16 5 15 115 -13 44 -11 83 -15 120 -11 30 4 69 8 85 10 71 7 195 88 195 127 0 10 7 19 15 19 8 0 15 -2 15 -5z m2707 -30 c21 -19 45 -35 53 -35 8 0 48 -23 88 -50 40 -27 90 -54 110 -61 20 -6 42 -15 47 -19 11 -7 173 -60 240 -78 22 -6 59 -15 81 -21 58 -15 287 -13 359 3 105 24 173 45 212 66 21 11 45 20 55 20 9 0 19 4 22 9 3 5 15 11 26 14 17 4 19 3 9 -9 -6 -8 -16 -14 -22 -14 -5 0 -15 -7 -21 -15 -6 -8 -47 -28 -91 -43 -257 -91 -487 -90 -760 0 -104 35 -355 160 -401 201 -18 15 -39 27 -48 27 -9 0 -16 8 -16 20 0 28 14 25 57 -15z m463 16 c0 -39 124 -120 195 -127 17 -2 55 -6 85 -10 37 -4 76 0 120 11 110 28 121 29 115 13 -17 -44 -222 -59 -355 -27 -70 16 -92 26 -123 57 -34 32 -67 80 -67 97 0 3 7 5 15 5 8 0 15 -9 15 -19z m-800 -11 c0 -11 -7 -20 -15 -20 -8 0 -15 9 -15 20 0 11 7 20 15 20 8 0 15 -9 15 -20z m-1934 -29 c-37 -38 -300 -172 -411 -209 -273 -90 -503 -91 -760 0 -44 15 -85 35 -91 43 -6 8 -16 15 -21 15 -6 0 -16 6 -22 14 -10 12 -8 13 9 9 11 -3 23 -9 26 -14 3 -5 13 -9 22 -9 10 0 34 -9 55 -20 39 -21 107 -42 212 -66 72 -16 301 -18 359 -3 22 6 59 15 81 21 67 18 229 71 240 78 6 4 28 13 50 20 60 20 93 47 88 74 -6 28 22 43 35 20 8 -14 13 -13 48 3 21 9 52 28 68 41 38 30 47 19 12 -17z m360 -12 c11 -18 -13 -34 -31 -19 -8 7 -15 16 -15 21 0 13 38 11 46 -2z m322 -17 c6 -42 -53 -66 -99 -42 -10 6 -19 19 -19 28 0 30 22 43 70 40 38 -3 45 -6 48 -26z m-632 -67 c19 -30 12 -55 -15 -55 -22 0 -41 27 -41 59 0 30 36 27 56 -4z m1841 -61 c3 -9 1 -26 -5 -40 -14 -30 -57 -33 -72 -5 -14 28 -13 38 10 61 17 17 24 18 41 10 11 -6 23 -18 26 -26z m-227 12 c17 -21 9 -56 -17 -73 -19 -13 -24 -12 -42 6 -25 25 -27 44 -5 65 19 20 48 20 64 2z m-1425 -26 c3 -5 4 -14 0 -20 -8 -13 -35 -1 -35 16 0 16 26 19 35 4z m1779 -15 c3 -9 -1 -18 -10 -22 -19 -7 -28 2 -21 22 8 19 23 19 31 0z m186 -1 c21 -24 1 -69 -30 -69 -20 0 -26 6 -28 28 -6 48 31 74 58 41z m-1731 -4 c45 -24 24 -70 -31 -70 -48 0 -87 48 -61 73 10 10 72 8 92 -3z m329 -22 c5 -44 -65 -77 -96 -46 -32 32 9 81 63 76 24 -2 31 -8 33 -30z m1596 6 c8 -22 -12 -56 -32 -52 -18 3 -27 30 -18 54 7 19 42 18 50 -2z m-2329 -80 c22 -12 27 -45 8 -51 -6 -2 -20 5 -30 16 l-19 21 -53 -40 c-58 -44 -100 -55 -169 -46 -66 9 -166 45 -199 73 l-28 23 26 -9 c15 -5 50 -22 79 -37 73 -38 168 -44 232 -14 26 12 64 37 84 57 20 19 40 31 43 26 3 -4 15 -13 26 -19z m2200 -8 c20 -19 57 -44 83 -56 64 -30 159 -24 232 14 29 15 64 32 79 37 l26 9 -28 -23 c-38 -32 -142 -68 -216 -74 -48 -5 -68 -2 -103 16 -50 25 -91 59 -107 90 -16 29 -8 26 34 -13z m-501 -68 c7 -11 7 -26 0 -45 -7 -22 -16 -28 -39 -28 -27 0 -30 4 -33 33 -2 18 2 40 9 48 15 19 49 14 63 -8z m-1470 -10 c8 -13 7 -21 -1 -29 -23 -23 -74 15 -57 42 9 15 45 6 58 -13z m310 -14 c20 -20 20 -29 0 -49 -11 -11 -30 -15 -58 -13 -36 3 -41 6 -44 31 -3 21 2 29 20 36 35 15 65 13 82 -5z m1354 -25 c2 -9 -5 -24 -14 -34 -15 -14 -19 -15 -31 -2 -22 21 -8 59 20 55 12 -2 23 -10 25 -19z m172 -3 c0 -26 -24 -51 -40 -41 -11 7 -14 48 -3 58 3 4 15 7 25 7 12 0 18 -7 18 -24z m-2465 -50 c65 -17 205 -76 205 -86 0 -4 33 -32 73 -63 92 -71 214 -196 259 -267 74 -116 90 -159 96 -252 5 -84 3 -90 -31 -161 -85 -179 -187 -231 -457 -231 -167 0 -252 18 -380 80 -61 30 -95 57 -180 143 -139 140 -158 169 -176 272 -24 140 5 253 93 365 43 53 141 132 205 165 90 46 203 60 293 35z m3174 -15 c123 -47 257 -164 310 -273 45 -90 55 -172 37 -277 -18 -103 -37 -132 -176 -272 -85 -86 -119 -113 -180 -143 -128 -62 -213 -80 -380 -80 -270 0 -372 52 -457 231 -34 71 -36 77 -31 161 6 93 22 136 96 252 45 71 167 196 260 267 39 31 72 59 72 63 0 9 134 67 200 86 61 18 182 11 249 -15z"/>
</g>
<g id="layer105" fill="#727272" stroke="none">
<path d="M5535 11394 c-27 -2 -126 -8 -220 -14 -383 -24 -811 -98 -1191 -205 -396 -112 -947 -338 -1240 -510 -270 -158 -661 -441 -912 -658 -93 -80 -102 -91 -88 -106 21 -24 159 -350 236 -561 218 -593 346 -1200 400 -1890 36 -459 28 -1203 -20 -1855 -15 -195 -12 -496 5 -590 17 -94 79 -338 130 -515 77 -264 215 -609 341 -856 45 -89 87 -190 114 -275 65 -206 185 -412 404 -693 156 -200 343 -353 596 -489 185 -100 455 -200 720 -267 437 -112 1119 -124 1647 -30 172 31 680 208 797 279 17 10 56 32 87 49 266 146 508 379 630 608 15 28 48 80 72 115 48 68 73 111 118 197 16 30 32 59 37 65 6 7 20 44 32 82 22 73 27 82 166 354 206 403 359 849 463 1349 14 66 14 450 1 627 -48 647 -56 1381 -20 1835 65 839 235 1533 556 2280 l92 215 -59 57 c-32 32 -61 58 -63 58 -3 0 -60 44 -128 98 -178 143 -427 321 -558 398 -276 164 -507 288 -679 364 -186 81 -559 213 -796 280 -60 17 -165 49 -231 70 -224 71 -405 100 -739 120 -191 12 -616 20 -700 14z m114 -505 c17 -28 31 -52 31 -54 0 -3 16 -29 35 -60 19 -30 40 -65 45 -77 6 -13 19 -36 30 -53 11 -16 28 -46 38 -65 11 -19 49 -86 86 -148 36 -62 66 -115 66 -117 0 -3 16 -29 35 -60 l36 -55 424 0 424 0 -29 -50 c-17 -28 -30 -53 -30 -56 0 -2 -22 -39 -48 -82 -27 -42 -51 -85 -55 -94 -3 -10 -22 -43 -42 -73 -19 -31 -35 -57 -35 -60 0 -3 -16 -29 -35 -59 -19 -30 -35 -58 -35 -61 0 -4 -14 -31 -32 -61 l-32 -53 -29 46 c-33 52 -34 45 32 158 34 58 48 82 86 150 15 28 35 61 44 75 10 14 22 36 29 50 7 14 21 40 32 58 l20 32 -379 0 -379 0 -28 48 c-16 26 -37 61 -46 77 -10 17 -27 48 -38 70 -11 22 -25 49 -32 60 -53 84 -79 125 -97 158 -45 81 -61 107 -85 146 -15 22 -26 45 -26 50 0 19 -20 22 -27 4 -3 -10 -14 -29 -23 -43 -10 -14 -28 -45 -42 -70 -14 -25 -35 -63 -48 -85 -13 -22 -34 -60 -48 -85 -14 -25 -32 -56 -41 -70 -9 -14 -23 -37 -31 -52 -12 -26 -18 -28 -72 -28 l-58 0 21 38 c12 20 25 42 29 47 8 11 35 57 83 145 17 30 37 66 46 80 35 56 41 66 51 88 5 12 26 47 45 77 19 31 35 57 35 60 0 6 61 105 64 105 2 0 17 -23 35 -51z m-584 -689 c4 -6 -2 -25 -12 -43 l-19 -32 -271 -5 -272 -5 157 -272 c86 -150 160 -273 163 -273 4 0 51 77 105 170 55 94 138 236 185 318 l85 147 308 3 c174 1 314 -2 324 -7 10 -5 28 -28 40 -50 l23 -41 -319 0 -319 0 -299 -517 -299 -518 -5 -170 -5 -170 -29 75 c-15 41 -31 84 -35 94 -6 15 -20 -4 -68 -89 l-61 -108 36 -81 c86 -198 143 -338 139 -342 -2 -3 -64 88 -137 201 -116 180 -134 204 -153 199 -12 -3 -134 -35 -271 -72 l-249 -67 -23 -86 -24 -86 148 -149 c81 -82 158 -164 171 -183 l24 -33 -23 12 c-13 7 -75 43 -139 80 -159 92 -222 123 -232 113 -4 -4 -38 -75 -74 -158 -96 -220 -108 -245 -112 -241 -5 4 91 391 155 630 l49 180 322 86 c177 48 323 89 325 91 5 5 173 293 289 495 48 83 87 158 87 166 0 15 -26 61 -282 501 -76 131 -138 240 -138 242 0 10 729 5 735 -5z m1096 -208 c8 -15 51 -88 94 -162 43 -74 130 -225 193 -335 119 -207 141 -244 305 -520 98 -164 99 -165 145 -178 26 -8 171 -47 323 -87 l277 -74 71 -265 c76 -289 141 -554 137 -558 -2 -2 -29 56 -61 129 -97 225 -127 288 -137 288 -12 0 -149 -74 -282 -152 -54 -32 -101 -56 -104 -54 -2 3 74 84 169 181 l174 176 -23 87 c-13 48 -24 88 -25 88 -6 5 -539 145 -542 142 -2 -3 -49 -75 -222 -347 -69 -108 -50 -42 57 199 40 88 70 166 68 173 -5 23 -113 207 -120 207 -5 0 -8 -6 -8 -14 0 -26 -52 -156 -62 -156 -7 0 -8 54 -3 153 l7 154 -81 138 c-44 76 -82 143 -84 149 -3 6 -7 9 -9 6 -3 -3 -58 -97 -123 -210 -64 -113 -120 -208 -124 -212 -3 -4 -18 14 -33 41 l-27 48 125 217 125 217 -87 152 c-48 84 -101 177 -117 207 -17 30 -48 84 -70 120 -22 36 -41 68 -44 73 -2 4 20 7 49 7 47 0 55 -3 69 -28z m-1781 -57 c18 -33 36 -64 41 -69 5 -6 9 -185 9 -399 l0 -388 -24 -42 c-13 -23 -33 -60 -46 -82 -12 -22 -24 -42 -26 -44 -2 -2 -4 245 -4 549 0 319 4 550 9 545 5 -6 23 -37 41 -70z m2520 -477 l0 -553 -50 87 -50 88 0 382 0 382 48 83 c26 46 48 83 50 83 1 0 2 -249 2 -552z m-1313 303 c78 -57 77 -53 81 -521 3 -301 7 -417 15 -422 7 -4 77 -8 157 -8 l146 0 36 62 37 62 12 -30 c7 -16 19 -37 27 -46 12 -14 10 -24 -17 -72 -16 -30 -46 -80 -65 -111 -20 -30 -36 -58 -36 -60 0 -3 -18 -35 -40 -71 -22 -36 -40 -68 -40 -70 0 -2 -16 -28 -35 -58 -19 -30 -35 -57 -35 -60 0 -3 -14 -29 -31 -58 -18 -29 -41 -69 -52 -88 -11 -19 -28 -48 -38 -65 -9 -16 -30 -54 -45 -83 -39 -75 -49 -81 -74 -40 -25 41 -25 49 0 93 11 19 30 52 41 73 12 20 37 66 57 102 19 36 43 77 53 92 11 14 19 28 19 31 0 2 30 56 66 118 98 168 104 179 104 184 0 3 -79 5 -175 5 l-175 0 0 443 c0 477 -4 515 -53 572 -18 21 -32 26 -74 28 -53 2 -69 11 -35 20 9 3 42 5 73 6 47 1 62 -4 96 -28z m-501 -676 l158 -275 118 0 c108 0 117 -1 123 -20 4 -11 4 -34 0 -50 l-7 -30 -84 0 c-46 0 -84 -3 -84 -6 0 -4 46 -86 102 -183 56 -97 112 -195 125 -218 l24 -42 -20 -40 c-12 -22 -24 -42 -29 -45 -8 -5 -47 62 -456 773 l-187 325 23 43 c13 24 26 43 29 43 4 0 78 -124 165 -275z m-1675 -3165 c17 -80 35 -149 39 -155 4 -5 15 -37 25 -70 29 -94 94 -240 138 -305 86 -130 167 -172 375 -195 43 -5 62 -11 62 -21 0 -8 -2 -14 -5 -14 -28 0 -210 32 -231 41 -16 7 -35 13 -41 15 -58 12 -166 125 -219 229 -20 38 -40 75 -44 80 -4 6 -13 26 -20 45 -7 19 -28 78 -47 130 -19 52 -36 105 -36 118 -1 12 -5 22 -10 22 -4 0 -4 12 -1 26 4 17 3 25 -3 21 -6 -4 -8 4 -5 20 4 19 2 24 -8 18 -9 -5 -10 -2 -5 14 4 12 2 27 -3 34 -10 13 -17 90 -13 142 3 34 -2 53 52 -195z m4571 115 c-3 -27 -9 -55 -14 -62 -5 -7 -7 -22 -3 -34 5 -16 4 -19 -5 -14 -10 6 -12 1 -8 -18 3 -16 1 -24 -5 -20 -6 4 -7 -4 -3 -21 3 -14 3 -26 -1 -26 -5 0 -9 -10 -10 -22 0 -13 -17 -66 -36 -118 -19 -52 -40 -111 -47 -130 -7 -19 -16 -39 -20 -45 -4 -5 -24 -42 -44 -80 -53 -104 -161 -217 -219 -229 -6 -2 -25 -8 -41 -15 -21 -9 -203 -41 -231 -41 -3 0 -5 6 -5 14 0 10 19 16 63 21 84 10 177 31 229 54 70 30 147 125 203 246 50 112 56 124 75 187 11 35 25 72 30 83 10 20 63 251 77 335 7 43 7 44 13 15 4 -16 5 -52 2 -80z m-3246 -273 c56 -17 135 -34 175 -37 41 -4 90 -11 109 -16 19 -4 121 -15 225 -24 105 -8 217 -22 250 -30 36 -8 110 -14 185 -14 75 0 149 6 185 14 33 8 146 22 250 30 105 9 206 20 225 24 19 5 68 12 109 16 40 3 119 21 175 38 99 31 105 32 278 31 186 -2 355 -25 365 -52 8 -18 2 -22 -63 -37 -33 -7 -73 -21 -89 -29 -21 -11 -60 -16 -135 -16 -114 -1 -216 -26 -420 -103 -87 -33 -229 -77 -340 -106 -132 -35 -128 -34 -270 -60 -69 -13 -103 -40 -133 -108 -45 -102 -57 -215 -57 -531 0 -157 5 -315 11 -351 14 -91 68 -300 85 -333 26 -51 76 -99 130 -124 58 -27 225 -57 307 -55 26 1 47 -2 47 -7 0 -12 -100 -96 -139 -117 -117 -60 -268 -85 -521 -85 -253 0 -404 25 -521 85 -39 21 -139 105 -139 117 0 5 21 8 48 7 81 -2 248 28 306 55 54 25 104 73 130 124 17 33 71 242 85 333 6 36 11 194 11 351 0 316 -12 429 -57 531 -30 68 -64 95 -133 108 -142 26 -138 25 -270 60 -111 29 -253 73 -340 106 -204 77 -306 102 -420 103 -75 0 -114 5 -135 16 -16 8 -56 22 -89 29 -65 15 -71 19 -63 37 5 15 157 46 247 52 30 2 109 2 175 1 103 -1 135 -6 221 -33z m-556 -436 c0 -22 -25 -37 -38 -24 -13 13 -16 41 -6 51 10 9 44 -12 44 -27z m100 3 c0 -11 -4 -17 -10 -14 -5 3 -10 13 -10 21 0 8 5 14 10 14 6 0 10 -9 10 -21z m2950 6 c13 -16 6 -65 -9 -65 -14 0 -41 29 -41 44 0 13 20 36 31 36 4 0 12 -7 19 -15z m-2802 -19 c2 -10 -1 -23 -8 -30 -14 -14 -41 19 -33 40 8 20 37 13 41 -10z m2662 -6 c0 -21 -15 -27 -25 -10 -7 12 2 30 16 30 5 0 9 -9 9 -20z m-2565 -8 c0 -18 -20 -15 -23 4 -3 10 1 15 10 12 7 -3 13 -10 13 -16z m2415 3 c18 -22 3 -57 -23 -53 -25 3 -34 32 -17 53 16 19 24 19 40 0z m-132 -32 c-5 -25 -28 -28 -28 -4 0 12 6 21 16 21 9 0 14 -7 12 -17z m-2167 -14 c9 -17 8 -25 -6 -38 -15 -15 -17 -15 -31 3 -8 11 -14 28 -14 38 0 25 37 23 51 -3z m2058 -3 c14 -16 -5 -66 -24 -66 -25 0 -39 29 -27 55 13 28 34 32 51 11z m-275 -40 c9 -13 7 -20 -7 -31 -35 -26 -66 12 -35 43 15 15 28 11 42 -12z m146 10 c0 -18 -16 -29 -30 -21 -13 8 -1 35 16 35 8 0 14 -6 14 -14z m-1823 -11 c3 -9 3 -19 -1 -22 -8 -9 -37 18 -30 28 8 14 24 11 31 -6z m190 -61 c30 -46 -21 -63 -56 -18 -15 19 -18 30 -11 39 15 18 48 7 67 -21z m-610 -68 c-4 -9 -11 -16 -17 -16 -15 0 -24 26 -16 47 6 15 8 15 23 1 9 -9 13 -24 10 -32z m113 -2 c0 -16 -16 -19 -25 -4 -8 13 4 32 16 25 5 -4 9 -13 9 -21z m-310 -7 c0 -21 -219 -160 -290 -184 -105 -36 -243 -28 -338 20 -42 21 -162 105 -162 113 0 2 24 -10 53 -27 158 -90 273 -126 362 -112 45 7 175 72 250 124 42 30 113 75 123 78 1 1 2 -5 2 -12z m3218 -74 c54 -41 194 -109 237 -116 89 -14 204 22 363 112 28 17 52 29 52 27 0 -8 -120 -92 -162 -113 -95 -48 -233 -56 -338 -20 -70 24 -290 163 -290 184 0 13 78 -28 138 -74z m-2798 56 c14 -25 6 -49 -14 -49 -19 0 -40 36 -32 56 8 21 34 17 46 -7z m2538 -44 c4 -31 -15 -50 -35 -33 -16 13 -17 40 -1 56 18 18 33 9 36 -23z m-2428 -19 c-13 -13 -35 7 -25 24 5 8 11 8 21 -1 10 -8 12 -15 4 -23z m2270 14 c0 -11 -7 -20 -15 -20 -8 0 -15 9 -15 20 0 11 7 20 15 20 8 0 15 -9 15 -20z m-122 -6 c20 -36 -15 -77 -44 -53 -15 12 -19 51 -7 62 12 13 42 7 51 -9z m-604 -20 c21 -20 20 -30 -4 -54 -24 -24 -63 -14 -68 19 -7 45 40 67 72 35z m330 -10 c7 -19 -10 -54 -27 -54 -35 0 -50 52 -20 68 20 12 39 6 47 -14z m126 12 c0 -8 -5 -18 -11 -22 -14 -8 -33 11 -25 25 10 16 36 13 36 -3z m-1840 -40 c25 -27 21 -56 -6 -56 -26 0 -54 30 -54 57 0 31 30 30 60 -1z m1516 13 c10 -17 -13 -36 -27 -22 -12 12 -4 33 11 33 5 0 12 -5 16 -11z m-2006 -29 c0 -5 -11 -17 -24 -25 -13 -9 -26 -25 -29 -37 -5 -18 -8 -19 -21 -9 -13 11 -30 7 -98 -22 -166 -71 -362 -113 -468 -102 -121 14 -310 73 -310 98 0 10 3 9 94 -22 126 -44 211 -55 328 -42 96 10 158 25 213 50 11 6 56 22 100 37 44 15 104 40 134 56 55 29 81 35 81 18z m2761 -18 c30 -16 90 -41 134 -56 44 -15 89 -31 100 -37 55 -25 117 -40 213 -50 117 -13 202 -2 328 42 91 31 94 32 94 22 0 -16 -60 -41 -165 -70 -179 -48 -350 -31 -573 58 -108 42 -205 92 -210 107 -6 20 21 14 79 -16z m-1780 8 c23 -13 25 -43 3 -60 -22 -19 -75 -16 -90 4 -16 22 -9 40 19 54 29 14 44 14 68 2z m-861 -35 c16 -19 3 -57 -18 -53 -22 4 -30 68 -9 68 8 0 20 -7 27 -15z m638 -22 c2 -8 -6 -13 -22 -13 -17 0 -26 5 -26 16 0 19 41 16 48 -3z m-540 -27 c3 -12 -1 -17 -10 -14 -7 3 -15 13 -16 22 -3 12 1 17 10 14 7 -3 15 -13 16 -22z m166 -51 c19 -51 -7 -78 -49 -51 -29 19 -42 60 -25 81 10 13 16 13 40 0 15 -8 30 -22 34 -30z m1931 -5 c38 -42 -18 -105 -61 -70 -21 18 -17 57 8 74 29 20 31 20 53 -4z m-347 -2 c21 -21 14 -57 -13 -70 -22 -10 -29 -9 -47 10 -19 18 -20 25 -10 47 13 27 49 34 70 13z m627 -18 c7 -23 -10 -60 -28 -60 -18 0 -37 21 -37 40 0 38 54 55 65 20z m215 6 c16 -20 9 -56 -13 -70 -14 -8 -20 -8 -27 4 -13 21 -12 54 2 68 16 16 23 15 38 -2z m-3040 -1 c0 -17 -33 -65 -67 -97 -31 -31 -53 -41 -123 -57 -133 -32 -338 -17 -355 27 -6 16 5 15 115 -13 44 -11 83 -15 120 -11 30 4 69 8 85 10 71 7 195 88 195 127 0 10 7 19 15 19 8 0 15 -2 15 -5z m2707 -30 c21 -19 45 -35 53 -35 8 0 48 -23 88 -50 40 -27 90 -54 110 -61 20 -6 42 -15 47 -19 11 -7 173 -60 240 -78 22 -6 59 -15 81 -21 58 -15 287 -13 359 3 105 24 173 45 212 66 21 11 45 20 55 20 9 0 19 4 22 9 3 5 15 11 26 14 17 4 19 3 9 -9 -6 -8 -16 -14 -22 -14 -5 0 -15 -7 -21 -15 -6 -8 -47 -28 -91 -43 -257 -91 -487 -90 -760 0 -104 35 -355 160 -401 201 -18 15 -39 27 -48 27 -9 0 -16 8 -16 20 0 28 14 25 57 -15z m463 16 c0 -39 124 -120 195 -127 17 -2 55 -6 85 -10 37 -4 76 0 120 11 110 28 121 29 115 13 -17 -44 -222 -59 -355 -27 -70 16 -92 26 -123 57 -34 32 -67 80 -67 97 0 3 7 5 15 5 8 0 15 -9 15 -19z m-800 -11 c0 -11 -7 -20 -15 -20 -8 0 -15 9 -15 20 0 11 7 20 15 20 8 0 15 -9 15 -20z m-1934 -29 c-37 -38 -300 -172 -411 -209 -273 -90 -503 -91 -760 0 -44 15 -85 35 -91 43 -6 8 -16 15 -21 15 -6 0 -16 6 -22 14 -10 12 -8 13 9 9 11 -3 23 -9 26 -14 3 -5 13 -9 22 -9 10 0 34 -9 55 -20 39 -21 107 -42 212 -66 72 -16 301 -18 359 -3 22 6 59 15 81 21 67 18 229 71 240 78 6 4 28 13 50 20 60 20 93 47 88 74 -6 28 22 43 35 20 8 -14 13 -13 48 3 21 9 52 28 68 41 38 30 47 19 12 -17z m360 -12 c11 -18 -13 -34 -31 -19 -8 7 -15 16 -15 21 0 13 38 11 46 -2z m322 -17 c6 -42 -53 -66 -99 -42 -10 6 -19 19 -19 28 0 30 22 43 70 40 38 -3 45 -6 48 -26z m-632 -67 c19 -30 12 -55 -15 -55 -22 0 -41 27 -41 59 0 30 36 27 56 -4z m1841 -61 c3 -9 1 -26 -5 -40 -14 -30 -57 -33 -72 -5 -14 28 -13 38 10 61 17 17 24 18 41 10 11 -6 23 -18 26 -26z m-227 12 c17 -21 9 -56 -17 -73 -19 -13 -24 -12 -42 6 -25 25 -27 44 -5 65 19 20 48 20 64 2z m-1425 -26 c3 -5 4 -14 0 -20 -8 -13 -35 -1 -35 16 0 16 26 19 35 4z m1779 -15 c3 -9 -1 -18 -10 -22 -19 -7 -28 2 -21 22 8 19 23 19 31 0z m186 -1 c21 -24 1 -69 -30 -69 -20 0 -26 6 -28 28 -6 48 31 74 58 41z m-1731 -4 c45 -24 24 -70 -31 -70 -48 0 -87 48 -61 73 10 10 72 8 92 -3z m329 -22 c5 -44 -65 -77 -96 -46 -32 32 9 81 63 76 24 -2 31 -8 33 -30z m1596 6 c8 -22 -12 -56 -32 -52 -18 3 -27 30 -18 54 7 19 42 18 50 -2z m-2329 -80 c22 -12 27 -45 8 -51 -6 -2 -20 5 -30 16 l-19 21 -53 -40 c-58 -44 -100 -55 -169 -46 -66 9 -166 45 -199 73 l-28 23 26 -9 c15 -5 50 -22 79 -37 73 -38 168 -44 232 -14 26 12 64 37 84 57 20 19 40 31 43 26 3 -4 15 -13 26 -19z m2200 -8 c20 -19 57 -44 83 -56 64 -30 159 -24 232 14 29 15 64 32 79 37 l26 9 -28 -23 c-38 -32 -142 -68 -216 -74 -48 -5 -68 -2 -103 16 -50 25 -91 59 -107 90 -16 29 -8 26 34 -13z m-501 -68 c7 -11 7 -26 0 -45 -7 -22 -16 -28 -39 -28 -27 0 -30 4 -33 33 -2 18 2 40 9 48 15 19 49 14 63 -8z m-1470 -10 c8 -13 7 -21 -1 -29 -23 -23 -74 15 -57 42 9 15 45 6 58 -13z m310 -14 c20 -20 20 -29 0 -49 -11 -11 -30 -15 -58 -13 -36 3 -41 6 -44 31 -3 21 2 29 20 36 35 15 65 13 82 -5z m1354 -25 c2 -9 -5 -24 -14 -34 -15 -14 -19 -15 -31 -2 -22 21 -8 59 20 55 12 -2 23 -10 25 -19z m172 -3 c0 -26 -24 -51 -40 -41 -11 7 -14 48 -3 58 3 4 15 7 25 7 12 0 18 -7 18 -24z m-2465 -50 c65 -17 205 -76 205 -86 0 -4 33 -32 73 -63 92 -71 214 -196 259 -267 74 -116 90 -159 96 -252 5 -84 3 -90 -31 -161 -85 -179 -187 -231 -457 -231 -167 0 -252 18 -380 80 -61 30 -95 57 -180 143 -139 140 -158 169 -176 272 -24 140 5 253 93 365 43 53 141 132 205 165 90 46 203 60 293 35z m3174 -15 c123 -47 257 -164 310 -273 45 -90 55 -172 37 -277 -18 -103 -37 -132 -176 -272 -85 -86 -119 -113 -180 -143 -128 -62 -213 -80 -380 -80 -270 0 -372 52 -457 231 -34 71 -36 77 -31 161 6 93 22 136 96 252 45 71 167 196 260 267 39 31 72 59 72 63 0 9 134 67 200 86 61 18 182 11 249 -15z"/>
<path d="M3931 3932 c-46 -23 -58 -44 -45 -79 8 -24 16 -28 52 -31 34 -3 47 2 67 22 29 29 31 52 9 84 -18 27 -38 28 -83 4z"/>
<path d="M3835 3684 c-46 -49 -28 -125 47 -205 62 -65 98 -89 132 -89 47 0 44 39 -13 153 -53 107 -99 167 -126 167 -9 0 -27 -12 -40 -26z"/>
<path d="M7326 3929 c-22 -33 -20 -56 9 -84 32 -33 99 -35 115 -4 24 45 -10 92 -76 105 -26 5 -35 2 -48 -17z"/>
<path d="M7420 3678 c-17 -18 -53 -78 -81 -135 -57 -114 -60 -153 -13 -153 34 0 70 24 132 89 75 80 93 156 47 205 -32 34 -50 33 -85 -6z"/>
</g>
<g id="layer106" fill="#a0a09f" stroke="none">
<path d="M5535 11394 c-27 -2 -126 -8 -220 -14 -383 -24 -811 -98 -1191 -205 -396 -112 -947 -338 -1240 -510 -270 -158 -661 -441 -912 -658 -93 -80 -102 -91 -88 -106 21 -24 159 -350 236 -561 218 -593 346 -1200 400 -1890 36 -459 28 -1203 -20 -1855 -15 -195 -12 -496 5 -590 17 -94 79 -338 130 -515 77 -264 215 -609 341 -856 45 -89 87 -190 114 -275 65 -206 185 -412 404 -693 156 -200 343 -353 596 -489 185 -100 455 -200 720 -267 346 -88 886 -117 1326 -71 111 12 252 30 313 41 124 23 454 127 619 196 399 167 708 410 867 682 32 53 84 136 116 185 33 48 59 89 59 91 0 2 23 45 51 97 47 87 64 127 99 234 7 22 42 93 77 159 232 426 409 924 522 1464 14 66 14 431 1 607 -48 652 -56 1396 -20 1855 54 690 182 1297 400 1890 60 164 199 501 235 570 13 24 10 28 -46 82 -32 32 -61 58 -63 58 -3 0 -60 44 -128 98 -178 143 -427 321 -558 398 -276 164 -507 288 -679 364 -186 81 -559 213 -796 280 -60 17 -165 49 -231 70 -224 71 -405 100 -739 120 -191 12 -616 20 -700 14z m193 -639 c54 -93 147 -254 206 -357 l108 -188 429 0 c236 0 429 -3 429 -7 0 -4 -37 -70 -82 -148 -91 -156 -195 -335 -253 -437 -21 -37 -41 -65 -44 -63 -3 2 -17 23 -30 48 l-24 44 50 89 c28 49 89 155 136 236 l85 148 -381 2 -381 3 -90 157 c-216 374 -262 451 -271 450 -6 0 -66 -98 -135 -216 l-124 -216 -59 0 -59 0 23 38 c12 20 80 138 152 262 179 312 198 343 207 333 5 -4 53 -84 108 -178z m-663 -555 c4 -6 -2 -25 -12 -43 l-19 -32 -271 -5 -272 -5 157 -272 c86 -150 160 -273 163 -273 4 0 51 77 105 170 55 94 138 236 185 318 l85 147 308 3 c174 1 314 -2 324 -7 10 -5 28 -28 40 -50 l23 -41 -319 0 -319 0 -299 -517 -299 -518 -5 -170 -5 -170 -29 75 c-15 41 -31 84 -35 94 -6 15 -20 -4 -68 -89 l-61 -108 36 -81 c86 -198 143 -338 139 -342 -2 -3 -64 88 -137 201 -116 180 -134 204 -153 199 -12 -3 -134 -35 -271 -72 l-249 -67 -23 -86 -24 -86 148 -149 c81 -82 158 -164 171 -183 l24 -33 -23 12 c-13 7 -75 43 -139 80 -159 92 -222 123 -232 113 -4 -4 -38 -75 -74 -158 -96 -220 -108 -245 -112 -241 -5 4 91 391 155 630 l49 180 322 86 c177 48 323 89 325 91 5 5 173 293 289 495 48 83 87 158 87 166 0 15 -26 61 -282 501 -76 131 -138 240 -138 242 0 10 729 5 735 -5z m1096 -208 c8 -15 51 -88 94 -162 43 -74 130 -225 193 -335 119 -207 141 -244 305 -520 98 -164 99 -165 145 -178 26 -8 171 -47 323 -87 l277 -74 71 -265 c76 -289 141 -554 137 -558 -2 -2 -29 56 -61 129 -97 225 -127 288 -137 288 -12 0 -149 -74 -282 -152 -54 -32 -101 -56 -104 -54 -2 3 74 84 169 181 l174 176 -23 87 c-13 48 -24 88 -25 88 -6 5 -539 145 -542 142 -2 -3 -49 -75 -222 -347 -69 -108 -50 -42 57 199 40 88 70 166 68 173 -5 23 -113 207 -120 207 -5 0 -8 -6 -8 -14 0 -26 -52 -156 -62 -156 -7 0 -8 54 -3 153 l7 154 -81 138 c-44 76 -82 143 -84 149 -3 6 -7 9 -9 6 -3 -3 -58 -97 -123 -210 -64 -113 -120 -208 -124 -212 -3 -4 -18 14 -33 41 l-27 48 125 217 125 217 -87 152 c-48 84 -101 177 -117 207 -17 30 -48 84 -70 120 -22 36 -41 68 -44 73 -2 4 20 7 49 7 47 0 55 -3 69 -28z m-1777 -63 l46 -81 0 -386 0 -385 -37 -66 c-20 -36 -42 -75 -50 -86 -11 -16 -13 67 -13 533 0 303 2 552 4 552 3 0 25 -36 50 -81z m2516 -471 l0 -553 -50 87 -50 88 0 382 0 382 48 83 c26 46 48 83 50 83 1 0 2 -249 2 -552z m-1330 317 c51 -26 81 -77 91 -152 4 -37 8 -230 9 -428 0 -267 3 -364 12 -373 8 -8 58 -12 158 -12 l146 0 35 59 c18 33 37 57 40 53 3 -4 16 -25 29 -48 l22 -41 -60 -99 c-33 -54 -139 -238 -237 -409 -98 -170 -183 -316 -190 -324 -12 -12 -17 -9 -34 20 -12 19 -21 40 -21 48 0 8 27 61 60 118 33 56 60 104 60 106 0 2 54 98 120 212 66 114 120 209 120 211 0 2 -79 4 -174 4 l-175 0 -3 463 c-3 444 -4 464 -24 507 -28 60 -43 71 -103 73 -28 1 -51 5 -51 9 0 21 131 23 170 3z m-484 -690 l158 -275 118 0 c108 0 117 -1 123 -20 4 -11 4 -34 0 -50 l-7 -30 -84 0 c-46 0 -84 -3 -84 -6 0 -4 46 -86 102 -183 56 -97 112 -195 125 -218 l24 -42 -20 -40 c-12 -22 -24 -42 -29 -45 -8 -5 -47 62 -456 773 l-187 325 23 43 c13 24 26 43 29 43 4 0 78 -124 165 -275z m-1676 -3149 c38 -173 77 -289 146 -432 61 -127 141 -225 210 -254 40 -18 152 -42 247 -55 47 -6 61 -20 31 -32 -23 -9 -167 14 -244 39 -56 18 -75 31 -140 97 -62 62 -85 95 -127 181 -48 97 -128 310 -153 407 -17 68 -30 191 -23 225 l7 33 8 -35 c4 -19 21 -98 38 -174z m4570 69 c-6 -44 -16 -102 -24 -130 -28 -106 -99 -294 -149 -395 -42 -86 -65 -119 -127 -181 -65 -66 -84 -79 -140 -97 -77 -25 -221 -48 -244 -39 -30 12 -16 26 32 32 94 13 206 37 246 55 135 57 278 332 355 681 16 74 33 152 37 174 l7 40 9 -30 c4 -17 3 -66 -2 -110z m-3255 -239 c49 -16 113 -29 165 -32 47 -3 101 -9 120 -14 19 -5 121 -16 225 -25 105 -8 217 -22 250 -30 37 -9 111 -14 195 -14 84 0 158 5 195 14 33 8 146 22 250 30 105 9 206 20 225 25 19 6 65 10 101 10 47 0 97 10 170 33 103 32 105 32 294 30 147 -2 208 -6 270 -21 96 -23 111 -45 43 -62 -24 -6 -67 -20 -96 -30 -40 -15 -80 -20 -155 -20 -111 -1 -215 -27 -417 -103 -130 -49 -311 -102 -455 -133 -38 -8 -84 -19 -101 -25 -17 -5 -40 -9 -53 -9 -46 0 -103 -45 -134 -105 -39 -78 -50 -181 -55 -495 -2 -200 0 -331 8 -380 14 -95 68 -306 86 -342 26 -51 76 -99 130 -124 54 -25 218 -54 312 -54 23 0 42 -4 42 -9 0 -13 -98 -95 -139 -116 -119 -61 -268 -85 -521 -85 -253 0 -402 24 -521 85 -41 21 -139 103 -139 116 0 5 19 9 43 9 93 0 257 29 311 54 54 25 104 73 130 124 18 36 72 247 86 342 8 49 10 180 8 380 -5 314 -16 417 -55 495 -31 60 -88 105 -134 105 -13 0 -36 4 -53 9 -17 6 -62 17 -101 25 -144 31 -325 84 -455 133 -202 76 -306 102 -417 103 -75 0 -115 5 -155 20 -29 10 -72 24 -96 30 -31 8 -42 16 -40 27 7 36 212 63 428 58 103 -2 139 -8 205 -29z m-545 -425 c13 -25 3 -51 -21 -51 -21 0 -43 35 -35 56 8 20 44 17 56 -5z m110 -12 c0 -20 -24 -26 -35 -9 -4 6 -4 17 -1 25 7 20 36 7 36 -16z m2939 17 c7 -8 11 -27 9 -43 -2 -22 -8 -28 -28 -28 -20 0 -26 6 -28 28 -3 27 12 57 28 57 4 0 13 -6 19 -14z m-2797 -21 c8 -19 8 -28 -2 -39 -17 -21 -50 -3 -50 28 0 43 34 51 52 11z m2663 -15 c0 -36 -29 -33 -33 3 -3 23 0 28 15 25 12 -2 18 -12 18 -28z m-2562 -3 c3 -8 1 -20 -3 -27 -7 -11 -11 -11 -24 -1 -9 8 -16 20 -16 27 0 18 36 18 43 1z m2415 -24 c2 -24 -1 -33 -17 -38 -29 -9 -41 1 -41 34 0 34 8 43 35 39 14 -2 21 -12 23 -35z m-132 2 c8 -20 -13 -45 -32 -38 -14 5 -19 34 -7 46 11 12 33 7 39 -8z m-2176 -14 c14 -28 12 -58 -5 -65 -21 -8 -45 21 -45 55 0 22 5 29 20 29 10 0 24 -9 30 -19z m2060 -5 c26 -32 -7 -87 -44 -73 -22 9 -21 63 2 76 23 14 28 13 42 -3z m-123 -32 c7 -19 -20 -49 -36 -40 -12 8 -15 39 -4 49 12 12 33 7 40 -9z m-1826 -15 c7 -15 8 -24 0 -32 -14 -14 -41 9 -41 34 0 26 27 24 41 -2z m1677 -11 c-3 -29 -6 -33 -33 -33 -21 0 -31 5 -33 18 -5 25 16 47 45 47 21 0 24 -4 21 -32z m-1493 -43 c30 -29 32 -51 5 -60 -35 -11 -102 48 -85 75 11 18 56 10 80 -15z m-607 -73 c-4 -33 -24 -39 -38 -13 -15 30 5 68 26 50 8 -7 14 -24 12 -37z m112 -8 c0 -31 -23 -28 -28 4 -2 15 2 22 12 22 11 0 16 -9 16 -26z m-310 -8 c0 -29 -220 -164 -309 -190 -110 -32 -284 -9 -364 48 -12 9 -46 32 -74 52 -73 50 -66 64 10 19 34 -20 96 -53 137 -73 70 -35 81 -37 170 -37 87 0 100 3 155 31 33 18 104 62 159 98 103 69 116 75 116 52z m418 2 c17 -17 15 -67 -3 -74 -22 -9 -45 14 -45 46 0 40 23 53 48 28z m2778 -54 c55 -36 126 -80 159 -98 55 -28 68 -31 155 -31 89 0 100 2 170 37 41 20 103 53 138 73 75 45 82 31 10 -19 -29 -20 -63 -43 -75 -52 -80 -57 -254 -80 -364 -48 -89 26 -309 161 -309 190 0 23 13 17 116 -52z m-238 24 c28 -28 2 -88 -33 -74 -27 10 -14 86 15 86 3 0 11 -5 18 -12z m-2430 -20 c7 -7 12 -20 12 -31 0 -30 -34 -16 -38 16 -4 29 6 35 26 15z m2277 2 c10 -16 -5 -50 -21 -50 -17 0 -28 24 -20 45 6 17 32 20 41 5z m-122 -21 c13 -20 2 -65 -18 -73 -42 -16 -71 40 -39 75 20 22 42 22 57 -2z m-612 -9 c22 -12 26 -59 7 -78 -7 -7 -24 -12 -38 -12 -48 0 -67 45 -33 82 18 20 36 23 64 8z m457 -17 c-3 -30 -25 -42 -34 -19 -9 22 2 46 21 46 12 0 15 -8 13 -27z m-123 -17 c0 -36 -27 -56 -52 -40 -40 25 -20 77 26 72 21 -2 26 -8 26 -32z m-1710 -17 c30 -37 29 -63 -4 -67 -29 -4 -71 33 -71 63 0 46 38 48 75 4z m1513 7 c6 -29 -15 -43 -35 -24 -14 14 -14 20 -3 33 16 19 34 15 38 -9z m-2003 -26 c3 -5 -5 -15 -19 -21 -14 -7 -26 -21 -28 -33 -2 -17 -9 -21 -34 -19 -18 2 -57 -8 -87 -21 -75 -34 -246 -83 -337 -97 -94 -14 -185 -5 -309 30 -95 27 -141 48 -141 63 0 12 15 10 57 -7 41 -16 93 -29 190 -50 95 -19 285 3 376 44 23 10 58 24 77 29 65 19 142 51 159 66 26 23 85 33 96 16z m2760 -16 c49 -26 102 -47 165 -66 19 -5 54 -19 77 -29 91 -41 281 -63 376 -44 97 21 149 34 190 50 42 17 57 19 57 7 0 -15 -46 -36 -141 -63 -178 -51 -278 -49 -489 12 -119 34 -335 133 -325 149 10 16 39 12 90 -16z m-1767 4 c31 -31 -3 -78 -58 -78 -47 0 -77 29 -61 58 6 11 16 23 23 25 25 10 84 7 96 -5z m-881 -20 c19 -25 22 -46 8 -64 -13 -18 -14 -18 -34 0 -20 18 -28 56 -14 69 10 11 30 8 40 -5z m643 -23 c16 -19 5 -35 -24 -35 -31 0 -50 22 -34 38 16 16 43 15 58 -3z m-536 -28 c8 -12 7 -20 -1 -28 -16 -16 -33 -2 -33 27 0 28 17 28 34 1z m166 -58 c33 -60 -17 -103 -64 -56 -56 56 -37 124 25 91 16 -8 33 -23 39 -35z m1932 -3 c12 -17 9 -71 -4 -84 -27 -27 -88 0 -88 40 0 28 45 69 67 61 10 -4 21 -11 25 -17z m-347 -6 c39 -43 -21 -115 -64 -76 -26 24 -31 51 -14 75 18 26 55 27 78 1z m623 -6 c11 -20 5 -53 -14 -75 -12 -13 -8 -18 29 -39 23 -13 53 -31 66 -41 12 -10 38 -21 57 -25 19 -3 34 -10 34 -15 0 -5 5 -9 11 -9 6 0 25 -6 42 -14 18 -7 64 -23 102 -35 182 -54 195 -56 355 -56 170 1 201 7 399 84 124 47 121 47 82 12 -66 -58 -279 -120 -442 -128 -135 -7 -271 15 -434 69 -127 42 -351 152 -398 197 -16 14 -38 26 -50 26 -15 0 -23 7 -25 23 -6 38 24 37 63 -2 40 -40 56 -46 48 -17 -12 47 52 85 75 45z m-2833 -33 c-3 -11 -25 -40 -48 -64 -52 -52 -129 -78 -258 -85 -95 -5 -172 8 -237 40 -67 32 -65 32 124 -5 84 -16 205 -6 270 22 50 23 113 77 125 110 12 30 34 14 24 -18z m3061 14 c11 -45 -41 -98 -62 -63 -8 13 -7 65 2 79 3 5 16 9 29 9 18 0 26 -7 31 -25z m114 1 c0 -20 77 -86 124 -106 83 -37 222 -41 336 -10 19 5 51 11 70 14 l35 6 -30 -20 c-46 -29 -140 -50 -226 -50 -87 0 -217 30 -258 59 -38 28 -85 97 -77 116 7 18 26 11 26 -9z m-802 5 c19 -11 11 -45 -11 -49 -19 -4 -32 20 -23 43 6 17 15 19 34 6z m-1908 -19 c0 -41 -251 -179 -435 -240 -163 -54 -299 -76 -434 -69 -163 8 -376 70 -442 128 -39 35 -42 35 82 -12 198 -77 229 -83 399 -84 160 0 173 2 355 56 39 12 84 28 102 35 17 8 36 14 42 14 6 0 11 4 11 9 0 5 14 11 32 15 53 10 98 47 98 79 0 29 17 35 48 16 15 -10 28 -5 73 24 56 37 69 42 69 29z m331 -32 c21 -12 25 -35 9 -45 -15 -9 -60 22 -60 40 0 17 23 19 51 5z m333 -6 c20 -20 20 -27 -3 -55 -26 -32 -105 -34 -127 -5 -18 26 -18 32 6 56 25 25 101 28 124 4z m-641 -71 c14 -17 21 -42 18 -70 -2 -23 -50 -14 -67 12 -33 51 9 101 49 58z m1621 -65 c20 -29 20 -47 -1 -70 -18 -21 -53 -24 -71 -6 -18 18 -15 75 6 87 27 16 50 13 66 -11z m223 -4 c15 -24 15 -29 2 -53 -29 -51 -89 -35 -89 23 0 59 55 78 87 30z m-1649 -16 c22 -22 14 -40 -15 -36 -34 4 -48 48 -16 48 11 0 24 -5 31 -12z m1777 -29 c0 -15 -7 -25 -18 -27 -22 -4 -33 24 -17 43 18 21 35 13 35 -16z m193 -27 c-6 -69 -73 -70 -73 -1 0 26 6 36 25 46 34 17 52 0 48 -45z m-1734 36 c37 -16 44 -48 16 -70 -54 -44 -160 9 -128 65 11 20 74 23 112 5z m320 6 c26 -10 20 -60 -10 -83 -44 -35 -104 -21 -104 24 0 43 66 78 114 59z m1604 -36 c4 -32 -33 -64 -55 -46 -28 23 -5 81 30 76 15 -2 23 -11 25 -30z m-2301 -95 c3 -8 -1 -21 -9 -29 -13 -13 -18 -12 -42 7 l-27 21 -32 -25 c-56 -43 -94 -57 -150 -57 -74 0 -181 34 -244 79 -49 34 -65 54 -26 32 10 -6 53 -26 95 -46 64 -30 89 -36 145 -37 83 0 124 16 181 71 l44 41 30 -21 c16 -12 32 -28 35 -36z m2175 15 c57 -54 98 -70 181 -70 56 1 81 7 145 37 42 20 85 40 95 46 39 22 23 2 -26 -32 -103 -73 -258 -99 -338 -59 -48 25 -122 97 -114 110 9 14 9 14 57 -32z m-503 -69 c12 -22 12 -29 0 -55 -26 -54 -89 -40 -89 19 0 63 60 88 89 36z m-1471 -2 c14 -11 16 -43 2 -52 -16 -10 -60 6 -71 27 -21 39 28 57 69 25z m320 -19 c49 -49 -67 -109 -120 -61 -22 20 -23 31 -1 55 19 21 102 25 121 6z m1337 -38 c0 -31 -3 -35 -27 -38 -25 -3 -28 0 -28 25 0 33 17 55 40 51 10 -2 15 -15 15 -38z m183 12 c4 -28 -14 -52 -38 -52 -26 0 -33 29 -15 57 20 29 49 26 53 -5z m-2442 -63 c76 -24 184 -75 184 -87 0 -5 21 -24 48 -43 79 -56 220 -199 266 -268 81 -122 98 -167 104 -263 5 -84 3 -90 -31 -161 -85 -179 -187 -231 -457 -231 -167 0 -253 18 -380 81 -80 39 -201 147 -289 258 -57 71 -59 78 -71 173 -20 151 18 266 122 377 149 160 329 218 504 164z m3125 1 c131 -44 278 -169 333 -283 35 -71 48 -165 36 -259 -12 -95 -14 -102 -71 -173 -88 -111 -209 -219 -289 -258 -127 -63 -213 -81 -380 -81 -270 0 -372 52 -457 231 -34 71 -36 77 -31 161 6 96 23 141 104 263 46 69 187 212 267 268 26 19 47 38 47 43 0 12 96 58 175 84 90 30 185 31 266 4z"/>
<path d="M3970 3941 c0 -5 -8 -7 -18 -4 -24 6 -72 -33 -72 -58 0 -40 19 -59 58 -59 55 0 78 20 77 67 0 21 -4 44 -8 51 -9 14 -37 16 -37 3z"/>
<path d="M3848 3699 c-10 -5 -18 -16 -18 -24 0 -7 -5 -15 -11 -17 -8 -3 -8 -21 1 -64 10 -51 19 -67 65 -114 57 -60 102 -90 133 -90 27 0 40 54 20 78 -8 9 -25 42 -38 72 -27 66 -72 133 -102 155 -26 18 -27 18 -50 4z"/>
<path d="M7333 3938 c-4 -7 -8 -30 -8 -51 -1 -47 22 -67 77 -67 39 0 58 19 58 59 0 25 -48 64 -72 58 -10 -3 -18 -1 -18 4 0 13 -28 11 -37 -3z"/>
<path d="M7442 3695 c-30 -22 -75 -89 -102 -155 -13 -30 -30 -63 -38 -72 -20 -24 -7 -78 20 -78 31 0 76 30 133 90 46 47 55 63 65 114 9 43 9 61 1 64 -6 2 -11 10 -11 17 0 8 -9 19 -19 25 -25 13 -22 13 -49 -5z"/>
</g>
<g id="layer107" fill="#f1eeed" stroke="none">
<path d="M5535 11394 c-27 -2 -126 -8 -220 -14 -383 -24 -811 -98 -1191 -205 -396 -112 -947 -338 -1240 -510 -270 -158 -661 -441 -912 -658 l-103 -89 20 -22 c25 -28 156 -332 241 -566 218 -593 346 -1200 400 -1890 36 -454 28 -1188 -20 -1835 -15 -196 -12 -516 5 -610 17 -93 78 -338 129 -511 76 -258 191 -552 326 -829 45 -92 96 -217 120 -293 26 -81 64 -173 98 -235 119 -219 306 -478 445 -618 275 -275 712 -493 1223 -608 519 -117 1263 -107 1757 24 658 174 1122 476 1348 877 28 51 74 126 101 165 73 110 153 267 187 368 16 50 53 133 82 185 222 406 406 922 518 1458 14 66 14 450 1 627 -48 647 -56 1381 -20 1835 54 690 182 1297 400 1890 72 196 218 544 244 581 15 22 13 25 -44 81 -33 32 -62 58 -64 58 -3 0 -60 44 -128 98 -119 96 -373 282 -384 282 -2 0 -31 19 -62 42 -31 24 -70 50 -87 59 -16 9 -44 25 -62 35 -273 162 -473 269 -643 344 -182 80 -504 194 -735 261 -77 22 -201 60 -275 84 -239 76 -413 105 -760 126 -187 11 -603 19 -695 13z m210 -664 c64 -113 158 -276 208 -362 l91 -158 428 0 c245 0 428 -4 428 -9 0 -5 -44 -85 -98 -177 -54 -93 -138 -238 -187 -321 -48 -84 -89 -153 -91 -153 -6 0 -54 87 -54 98 0 9 85 159 222 392 l38 65 -374 3 -374 2 -57 103 c-32 56 -101 176 -155 267 -53 91 -109 187 -124 213 -16 27 -32 45 -36 40 -8 -8 -98 -162 -202 -345 l-49 -88 -60 0 -61 0 31 53 c17 28 101 175 188 325 86 150 159 269 163 265 4 -4 60 -100 125 -213z m-665 -525 c0 -3 -11 -23 -25 -45 l-25 -40 -265 0 c-179 0 -265 -3 -265 -11 0 -5 17 -38 38 -73 20 -34 89 -153 152 -264 63 -111 118 -200 122 -199 4 1 40 58 79 127 40 69 85 148 101 175 16 28 66 113 111 190 l82 140 321 3 322 2 26 -50 26 -50 -319 0 -320 0 -14 -27 c-7 -16 -123 -217 -257 -448 -134 -231 -263 -454 -287 -495 l-43 -75 0 -170 0 -170 -26 60 c-14 33 -29 75 -34 93 -11 43 -18 50 -27 26 -4 -10 -30 -58 -59 -107 l-52 -89 45 -102 c101 -228 148 -346 139 -346 -2 0 -66 97 -141 215 -76 118 -138 215 -139 215 0 -1 -122 -33 -270 -73 l-269 -72 -23 -86 -23 -86 165 -168 c90 -92 169 -176 175 -188 l11 -20 -33 20 c-171 105 -357 205 -367 199 -4 -2 -50 -101 -102 -220 -52 -118 -96 -214 -97 -212 -3 3 139 568 185 735 l28 104 80 22 c43 13 183 50 309 84 127 34 237 64 245 66 9 3 33 35 55 72 21 38 88 154 148 258 178 307 187 324 187 336 0 9 -37 78 -110 204 -9 17 -51 89 -92 160 -41 72 -107 185 -147 253 -39 67 -71 125 -71 127 0 3 169 5 375 5 206 0 375 -2 375 -5z m-650 -741 l0 -391 -47 -84 -48 -84 -5 550 c-3 303 -3 554 -1 558 1 5 25 -29 52 -75 l49 -83 0 -391z m1796 419 c43 -76 84 -147 90 -158 6 -11 37 -65 69 -120 32 -55 63 -109 69 -120 17 -32 183 -313 230 -390 24 -38 71 -118 106 -177 71 -121 43 -105 265 -163 269 -71 440 -117 443 -120 4 -4 58 -210 147 -558 40 -159 71 -286 68 -283 -3 3 -48 100 -99 217 -51 116 -95 213 -98 216 -6 6 -131 -58 -270 -139 -65 -38 -120 -67 -122 -65 -7 6 150 176 248 269 l92 87 -23 88 c-12 49 -24 88 -24 89 -8 5 -540 145 -542 142 -1 -2 -62 -97 -135 -211 -73 -114 -134 -206 -136 -204 -6 6 49 146 114 288 34 74 62 140 62 147 0 14 -111 202 -119 202 -3 0 -19 -36 -34 -80 -16 -44 -33 -80 -39 -80 -8 0 -9 47 -5 157 l6 157 -63 105 c-35 58 -72 123 -82 144 -10 20 -21 37 -24 37 -4 0 -22 -28 -40 -62 -43 -81 -200 -351 -209 -361 -4 -4 -20 15 -34 42 l-27 49 125 216 125 217 -139 242 c-76 133 -148 259 -161 280 l-22 37 55 0 55 0 78 -137z m674 -425 l0 -553 -50 85 -50 85 0 385 0 385 47 83 c25 45 48 82 50 82 1 0 3 -249 3 -552z m-1320 310 c48 -33 68 -66 80 -127 6 -30 10 -220 10 -432 0 -364 1 -379 19 -389 11 -5 82 -10 158 -10 l139 0 34 60 c19 33 37 57 40 53 4 -5 17 -27 30 -50 l23 -41 -65 -109 c-36 -59 -145 -247 -243 -418 -98 -170 -181 -314 -185 -318 -4 -5 -19 12 -33 38 -24 41 -25 49 -13 68 8 12 43 74 78 137 36 63 110 194 166 291 56 97 102 179 102 183 0 3 -76 6 -169 6 l-168 0 -7 77 c-3 42 -6 253 -6 469 0 336 -2 399 -16 433 -20 50 -56 74 -111 74 -43 0 -58 12 -25 20 9 3 42 5 73 6 43 1 64 -4 89 -21z m-494 -683 l159 -275 117 0 c108 0 117 -1 123 -20 4 -11 4 -34 0 -50 l-7 -30 -84 0 c-46 0 -84 -3 -84 -6 0 -4 51 -95 114 -203 151 -262 140 -235 120 -273 -28 -55 -35 -61 -49 -41 -14 20 -95 160 -320 553 -84 146 -187 326 -230 400 l-77 134 23 43 c13 24 27 43 30 43 4 0 78 -124 165 -275z m-1676 -3135 c78 -362 206 -621 343 -692 22 -10 40 -18 42 -16 2 2 -1 24 -7 49 -20 86 11 157 80 186 19 8 73 17 121 19 47 3 101 11 120 16 58 18 242 10 317 -13 36 -11 118 -29 182 -40 65 -11 151 -28 193 -39 95 -24 349 -113 380 -133 13 -8 54 -24 90 -36 87 -28 169 -79 191 -117 46 -79 77 -370 59 -559 -22 -241 -89 -411 -197 -499 -133 -109 -232 -125 -443 -72 -99 25 -126 37 -198 85 -45 31 -126 94 -178 140 -88 78 -99 85 -142 88 -75 4 -184 42 -235 81 -26 20 -46 37 -44 39 2 2 44 -15 92 -37 49 -23 112 -44 139 -47 l50 -6 -80 84 c-44 46 -80 85 -81 87 -1 2 -45 -10 -98 -27 -187 -60 -404 -78 -553 -46 -161 34 -355 118 -338 145 3 5 22 0 43 -11 47 -23 154 -61 256 -89 65 -19 104 -23 220 -22 139 0 180 6 316 47 30 9 68 19 83 22 38 7 44 28 18 63 -11 16 -21 33 -21 37 -1 4 -11 21 -25 37 l-24 30 -40 -37 c-52 -47 -122 -68 -248 -74 -114 -6 -219 13 -263 48 l-25 20 50 -7 c28 -4 59 -12 70 -18 12 -6 68 -10 135 -10 130 1 196 20 263 75 40 33 45 50 22 69 -12 10 -31 8 -97 -11 -69 -20 -106 -24 -213 -23 -119 0 -138 3 -230 33 -83 27 -154 66 -142 77 1 1 54 -13 117 -32 63 -19 149 -37 191 -41 83 -6 215 9 292 34 43 13 48 18 43 39 -23 91 -40 102 -105 69 -60 -30 -151 -55 -201 -55 -91 0 -222 51 -318 124 -108 82 -73 77 68 -9 97 -60 221 -93 303 -81 26 4 78 23 116 42 l70 35 -17 29 c-56 93 -84 145 -92 165 -5 14 -27 32 -55 44 -141 62 -230 197 -344 519 -64 180 -90 318 -75 391 l7 36 8 -30 c5 -16 22 -95 39 -175z m4571 49 c-8 -75 -25 -137 -72 -270 -114 -323 -203 -458 -344 -520 -28 -12 -50 -30 -55 -44 -8 -20 -36 -72 -92 -165 l-17 -29 70 -35 c85 -43 143 -52 226 -37 75 14 107 28 230 98 128 74 139 69 31 -13 -96 -73 -228 -124 -318 -124 -50 0 -141 25 -201 55 -65 33 -82 22 -105 -69 -5 -21 0 -26 43 -39 77 -25 209 -40 292 -34 42 4 128 22 191 41 63 19 116 33 117 32 12 -11 -59 -50 -142 -77 -92 -30 -111 -33 -230 -33 -107 -1 -144 3 -213 23 -66 19 -85 21 -97 11 -23 -19 -18 -36 23 -69 66 -55 132 -74 262 -75 67 0 123 4 135 10 11 6 43 14 70 18 l50 7 -25 -20 c-44 -35 -149 -54 -263 -48 -126 6 -196 27 -248 74 l-40 37 -24 -30 c-14 -16 -24 -33 -25 -37 0 -4 -10 -21 -21 -37 -26 -35 -20 -56 18 -63 15 -3 53 -13 83 -22 136 -41 177 -47 316 -47 116 -1 155 3 220 22 102 28 209 66 256 89 21 11 40 16 43 11 17 -27 -177 -111 -338 -145 -149 -32 -366 -14 -553 46 -53 17 -97 29 -98 27 -1 -2 -37 -41 -81 -87 l-80 -84 50 6 c28 3 90 24 139 47 48 22 90 39 92 37 2 -2 -18 -19 -44 -39 -51 -39 -160 -77 -235 -81 -43 -3 -54 -10 -142 -88 -52 -46 -133 -109 -178 -140 -72 -48 -99 -60 -198 -85 -211 -53 -310 -37 -443 72 -108 88 -175 258 -197 499 -18 189 13 480 59 559 22 38 104 89 191 117 36 12 77 28 90 36 31 20 285 109 380 133 42 11 128 28 193 39 64 11 146 29 182 40 75 23 259 31 317 13 19 -5 73 -13 120 -16 48 -2 102 -11 121 -19 69 -29 100 -100 80 -186 -6 -25 -9 -47 -7 -49 8 -8 84 40 116 75 130 138 228 394 304 798 l8 40 10 -29 c6 -19 6 -60 -2 -127z m-2120 31 c269 -28 521 -137 584 -253 25 -47 48 -48 186 -4 101 31 109 32 271 31 132 -2 185 -6 260 -24 142 -33 148 -47 35 -81 -40 -11 -78 -26 -85 -32 -8 -6 -73 -14 -145 -18 -140 -7 -209 -24 -417 -102 -88 -33 -230 -78 -340 -106 -133 -35 -136 -36 -269 -60 -89 -17 -120 -58 -151 -199 -17 -76 -20 -129 -20 -406 0 -341 4 -380 53 -575 39 -156 68 -204 149 -244 54 -28 166 -50 311 -64 34 -3 57 -9 57 -16 0 -15 -63 -67 -127 -107 -114 -70 -271 -100 -533 -100 -262 0 -419 30 -533 100 -64 40 -127 92 -127 107 0 7 23 13 58 16 144 14 256 36 310 64 81 40 110 88 149 244 49 195 53 234 53 575 0 277 -3 330 -20 406 -31 141 -62 182 -151 199 -133 24 -136 25 -269 60 -110 28 -252 73 -340 106 -208 78 -277 95 -417 102 -72 4 -137 12 -145 18 -7 6 -45 21 -85 32 -113 34 -107 48 35 81 75 18 128 22 260 24 163 1 169 0 275 -33 l109 -33 63 69 c90 99 210 159 398 199 151 32 377 42 558 24z m-1561 -1810 c47 -18 96 -45 110 -59 14 -15 54 -49 90 -78 87 -69 199 -186 242 -253 74 -116 90 -159 96 -252 5 -84 3 -90 -31 -161 -85 -179 -187 -231 -457 -231 -167 0 -252 18 -380 81 -62 30 -96 57 -191 152 -63 64 -125 132 -136 151 -29 48 -47 172 -38 255 17 162 161 331 351 411 52 22 70 24 159 21 85 -3 113 -9 185 -37z m3074 20 c187 -70 344 -250 361 -415 9 -83 -9 -207 -38 -255 -11 -19 -73 -87 -136 -151 -95 -95 -129 -122 -191 -152 -128 -63 -213 -81 -380 -81 -270 0 -372 52 -457 231 -34 71 -36 77 -31 161 4 69 11 99 33 142 70 139 163 249 305 363 41 33 79 66 83 73 11 19 71 48 159 78 96 33 213 35 292 6z"/>
<path d="M3910 3896 c-18 -22 -5 -48 22 -44 17 2 23 10 23 28 0 29 -26 38 -45 16z"/>
<path d="M3844 3643 c-5 -18 -1 -38 12 -62 21 -40 41 -48 68 -28 24 18 16 54 -20 90 -34 34 -52 34 -60 0z"/>
<path d="M7384 3895 c-9 -23 3 -45 26 -45 25 0 37 25 20 45 -16 19 -39 19 -46 0z"/>
<path d="M7436 3643 c-36 -36 -44 -72 -20 -90 27 -20 47 -12 68 28 21 38 16 89 -8 89 -7 0 -25 -12 -40 -27z"/>
</g>


</svg>