<svg id="svg" version="1.1" xmlns="http://www.w3.org/2000/svg" xmlns:xlink="http://www.w3.org/1999/xlink" width="400" height="400" viewBox="0, 0, 400,400"><g id="svgg"><path id="path0" d="M148.491 101.202 C 148.558 101.377,147.725 103.030,146.503 105.148 C 145.346 107.153,144.400 108.841,144.400 108.900 C 144.400 109.043,140.604 115.419,140.291 115.800 C 140.083 116.054,86.667 208.525,86.044 209.711 C 85.857 210.067,86.733 211.688,92.531 221.711 C 121.003 270.934,131.185 288.663,131.079 288.834 C 131.011 288.944,131.399 288.778,131.942 288.467 C 137.988 284.992,137.777 285.131,137.576 284.755 C 137.341 284.316,106.933 231.685,99.646 219.106 L 94.436 210.111 94.748 209.506 C 94.920 209.173,95.718 207.800,96.523 206.457 C 97.891 204.172,148.818 115.964,151.607 111.050 L 152.883 108.800 177.025 108.800 C 196.151 108.800,201.188 108.852,201.268 109.050 C 201.323 109.188,201.376 107.522,201.384 105.350 L 201.400 101.400 175.140 101.400 C 154.400 101.400,148.827 101.347,148.628 101.150 C 148.426 100.950,148.399 100.960,148.491 101.202 M154.592 114.150 C 154.237 114.783,143.006 134.245,129.635 157.400 C 105.685 198.875,104.511 200.915,102.993 203.700 C 102.574 204.470,101.556 206.262,100.732 207.683 C 99.381 210.013,99.260 210.307,99.499 210.683 C 99.742 211.067,111.894 232.120,132.697 268.200 C 137.295 276.175,141.125 282.776,141.208 282.869 C 141.366 283.047,146.431 280.218,146.315 280.017 C 136.734 263.341,108.003 213.661,107.616 213.100 C 107.312 212.660,106.811 211.844,106.502 211.286 L 105.940 210.273 106.676 208.986 C 107.080 208.279,118.953 187.720,133.060 163.300 L 158.709 118.900 180.054 118.849 L 201.400 118.798 201.400 115.899 L 201.400 113.000 178.319 113.000 L 155.238 113.000 154.592 114.150 M159.539 123.650 C 158.672 125.128,119.494 192.970,111.558 206.735 L 109.578 210.170 111.765 213.935 C 112.967 216.006,121.847 231.380,131.497 248.100 C 141.147 264.820,149.055 278.513,149.071 278.529 C 149.216 278.677,153.494 275.944,153.474 275.716 C 153.460 275.554,144.973 260.744,134.615 242.805 L 115.783 210.187 116.505 208.844 C 116.902 208.105,127.671 189.410,140.435 167.300 L 163.643 127.100 182.522 127.152 L 201.400 127.204 201.400 124.502 L 201.400 121.800 181.012 121.800 L 160.623 121.800 159.539 123.650 M141.589 169.733 C 128.780 191.916,118.300 210.215,118.300 210.397 C 118.300 210.797,155.225 274.800,155.456 274.800 C 155.697 274.800,159.986 272.320,159.994 272.176 C 159.997 272.107,152.029 258.247,142.286 241.376 C 132.543 224.504,124.556 210.645,124.536 210.577 C 124.516 210.509,134.353 193.387,146.396 172.527 L 168.291 134.600 184.846 134.600 L 201.400 134.600 201.400 132.000 L 201.400 129.400 183.139 129.400 L 164.878 129.400 141.589 169.733 M300.827 153.692 C 299.247 154.613,297.873 155.447,297.774 155.546 C 297.668 155.652,299.969 159.836,303.422 165.813 C 306.627 171.361,310.574 178.195,312.192 181.000 C 316.407 188.304,323.612 200.752,326.657 205.991 L 329.268 210.483 328.602 211.691 C 328.235 212.356,318.050 230.023,305.968 250.951 C 293.886 271.879,284.000 289.039,284.000 289.086 C 284.000 289.132,281.541 293.429,278.537 298.635 C 275.532 303.841,272.596 308.933,272.012 309.950 L 270.950 311.800 227.975 311.800 L 185.000 311.800 185.000 315.500 L 185.000 319.201 230.021 319.150 L 275.043 319.100 285.709 300.619 C 291.576 290.455,296.455 282.085,296.552 282.019 C 296.649 281.954,303.190 270.695,311.087 257.000 C 318.984 243.305,325.588 231.875,325.762 231.600 C 325.936 231.325,326.093 230.965,326.111 230.800 C 326.148 230.456,327.800 227.610,327.800 227.890 C 327.800 227.991,330.050 224.174,332.800 219.408 C 335.550 214.642,337.800 210.653,337.800 210.544 C 337.800 210.288,333.793 203.364,333.491 203.100 C 333.219 202.861,331.455 199.816,331.364 199.428 C 331.329 199.278,328.852 194.913,325.860 189.728 C 322.868 184.543,316.748 173.934,312.260 166.154 C 307.772 158.374,304.010 152.011,303.900 152.014 C 303.790 152.017,302.407 152.772,300.827 153.692 M291.500 159.095 C 290.290 159.808,289.220 160.420,289.121 160.455 C 288.977 160.507,313.017 202.359,316.776 208.600 C 318.045 210.708,318.079 210.357,316.328 213.260 C 315.519 214.602,313.798 217.545,312.503 219.800 C 311.209 222.055,309.816 224.440,309.407 225.100 C 308.601 226.403,304.465 233.558,303.395 235.500 C 303.032 236.160,294.887 250.290,285.295 266.900 C 275.703 283.510,267.243 298.203,266.495 299.550 L 265.134 302.000 225.067 302.000 L 185.000 302.000 185.000 304.900 L 185.000 307.801 226.817 307.750 L 268.633 307.700 270.988 303.600 C 272.282 301.345,283.088 282.625,295.000 262.000 C 306.911 241.375,317.666 222.745,318.900 220.600 C 320.133 218.455,321.926 215.354,322.885 213.709 C 324.319 211.247,324.593 210.646,324.433 210.309 C 323.667 208.694,294.145 157.889,293.949 157.850 C 293.812 157.822,292.710 158.382,291.500 159.095 M284.047 163.395 C 282.811 164.108,281.800 164.798,281.800 164.928 C 281.800 165.059,287.657 175.307,294.815 187.701 C 307.272 209.270,308.234 211.000,307.777 211.000 C 307.667 211.000,307.632 211.090,307.700 211.200 C 307.768 211.310,307.723 211.400,307.600 211.400 C 307.477 211.400,307.432 211.491,307.501 211.601 C 307.569 211.712,307.485 211.857,307.314 211.922 C 307.142 211.988,307.052 212.122,307.113 212.221 C 307.174 212.319,307.123 212.400,307.000 212.400 C 306.877 212.400,306.832 212.490,306.900 212.600 C 306.968 212.710,306.923 212.800,306.800 212.800 C 306.677 212.800,306.632 212.891,306.701 213.001 C 306.769 213.112,306.685 213.257,306.514 213.322 C 306.342 213.388,306.252 213.522,306.313 213.621 C 306.374 213.719,306.323 213.800,306.200 213.800 C 306.077 213.800,306.026 213.881,306.087 213.979 C 306.148 214.078,306.058 214.212,305.886 214.278 C 305.715 214.343,305.631 214.488,305.699 214.599 C 305.768 214.709,305.743 214.800,305.645 214.800 C 305.547 214.800,305.465 214.913,305.462 215.050 C 305.458 215.267,302.232 220.958,301.807 221.500 C 301.664 221.681,261.927 290.485,260.743 292.600 L 260.239 293.500 222.620 293.551 L 185.000 293.601 185.000 296.301 L 185.000 299.001 224.113 298.951 L 263.227 298.900 281.785 266.768 C 291.992 249.095,300.390 234.515,300.447 234.368 C 300.504 234.220,301.969 231.670,303.703 228.700 C 311.509 215.325,313.861 211.273,314.034 210.898 C 314.188 210.566,312.240 207.068,302.786 190.698 C 296.498 179.809,290.214 168.920,288.824 166.500 L 286.295 162.100 284.047 163.395 M277.880 166.963 C 276.775 167.602,275.765 168.088,275.636 168.045 C 275.317 167.939,275.106 168.544,275.354 168.853 C 276.628 170.439,299.401 210.534,299.227 210.885 C 299.114 211.113,289.271 228.175,277.354 248.800 L 255.686 286.300 220.343 286.351 L 185.000 286.401 185.000 289.001 L 185.000 291.601 222.049 291.551 L 259.099 291.500 279.643 255.900 C 290.943 236.320,301.458 218.095,303.010 215.400 C 305.070 211.825,305.784 210.419,305.652 210.200 C 305.553 210.035,299.817 200.090,292.906 188.100 C 285.995 176.110,280.238 166.188,280.114 166.051 C 279.938 165.857,279.451 166.056,277.880 166.963 " stroke="none" fill="#bc2c2c" fill-rule="evenodd"></path><path id="path1" d="M206.800 105.099 L 206.800 108.800 238.650 108.802 L 270.500 108.804 271.214 110.052 C 272.218 111.808,294.662 150.686,294.717 150.765 C 294.752 150.814,300.892 147.320,301.157 147.100 C 301.262 147.013,297.342 140.304,297.044 140.060 C 296.883 139.928,291.772 131.198,285.687 120.660 L 274.623 101.500 240.711 101.449 L 206.800 101.399 206.800 105.099 M206.800 115.900 L 206.800 118.800 235.883 118.800 L 264.965 118.800 265.783 120.218 C 266.232 120.997,266.600 121.716,266.600 121.815 C 266.600 121.946,285.827 155.418,286.094 155.750 C 286.238 155.931,291.180 152.858,291.099 152.638 C 291.047 152.494,285.895 143.519,279.652 132.693 L 268.300 113.010 237.550 113.005 L 206.800 113.000 206.800 115.900 M206.800 124.500 L 206.800 127.200 233.350 127.203 L 259.900 127.206 269.200 143.330 C 274.315 152.198,278.590 159.575,278.700 159.722 C 278.859 159.935,279.377 159.713,281.222 158.641 C 282.894 157.669,283.482 157.232,283.322 157.078 C 283.200 156.960,278.555 148.976,273.000 139.335 L 262.900 121.806 234.850 121.803 L 206.800 121.800 206.800 124.500 M206.798 182.549 C 206.796 237.087,206.782 238.133,205.998 242.700 C 203.972 254.500,196.881 260.312,186.600 258.600 C 184.247 258.209,184.309 258.198,184.239 259.027 L 184.179 259.755 185.599 260.186 C 202.224 265.236,215.262 257.905,217.492 242.253 C 218.232 237.062,218.259 235.302,218.340 187.400 C 218.426 136.911,218.383 138.994,219.394 137.013 C 220.583 134.682,220.425 134.700,239.489 134.700 L 255.678 134.700 263.933 149.000 C 272.481 163.808,272.535 163.892,273.138 163.372 C 273.337 163.200,274.287 162.619,275.249 162.080 C 276.259 161.514,276.994 160.973,276.989 160.800 C 276.984 160.635,272.947 153.525,268.017 145.000 L 259.053 129.500 232.927 129.449 L 206.800 129.399 206.798 182.549 M161.400 277.296 C 160.795 277.660,155.260 280.865,149.100 284.418 C 142.940 287.972,136.978 291.413,135.850 292.066 C 133.658 293.337,133.366 293.766,134.155 294.555 C 134.351 294.751,136.276 297.969,138.433 301.705 C 140.590 305.442,143.320 310.165,144.498 312.200 C 145.677 314.235,146.900 316.440,147.217 317.100 C 147.533 317.760,147.973 318.593,148.194 318.951 L 148.596 319.602 164.248 319.551 L 179.900 319.500 179.900 302.800 L 179.900 286.100 174.210 286.000 L 168.520 285.900 165.963 281.500 C 164.557 279.080,163.406 276.988,163.404 276.850 C 163.397 276.418,162.542 276.609,161.400 277.296 " stroke="none" fill="#743c3c" fill-rule="evenodd"></path><path id="path2" d="M201.267 110.600 C 201.267 111.425,201.303 111.763,201.346 111.350 C 201.389 110.938,201.389 110.263,201.346 109.850 C 201.303 109.438,201.267 109.775,201.267 110.600 " stroke="none" fill="#c03434" fill-rule="evenodd"></path><path id="path3" d="M201.267 110.600 C 201.267 111.425,201.303 111.763,201.346 111.350 C 201.389 110.938,201.389 110.263,201.346 109.850 C 201.303 109.438,201.267 109.775,201.267 110.600 " stroke="none" fill="#c03434" fill-rule="evenodd"></path><path id="path4" d="M201.267 110.600 C 201.267 111.425,201.303 111.763,201.346 111.350 C 201.389 110.938,201.389 110.263,201.346 109.850 C 201.303 109.438,201.267 109.775,201.267 110.600 " stroke="none" fill="#c03434" fill-rule="evenodd"></path></g></svg>