<!DOCTYPE svg PUBLIC "-//W3C//DTD SVG 20010904//EN" "http://www.w3.org/TR/2001/REC-SVG-20010904/DTD/svg10.dtd">
<svg version="1.0" xmlns="http://www.w3.org/2000/svg" width="1138px" height="1141px" viewBox="0 0 11380 11410" preserveAspectRatio="xMidYMid meet">
<g id="layer101" fill="#010101" stroke="none">
<path d="M5595 11399 c-33 -4 -150 -13 -260 -19 -733 -42 -1488 -241 -2181 -575 -256 -123 -432 -231 -764 -469 -205 -146 -522 -407 -518 -424 1 -4 -81 -90 -183 -192 -441 -440 -753 -863 -1047 -1421 -292 -553 -503 -1229 -587 -1874 -60 -472 -60 -1026 0 -1490 119 -905 470 -1793 1008 -2544 196 -274 357 -462 611 -717 471 -471 952 -814 1541 -1100 660 -320 1327 -498 2079 -555 277 -21 773 -5 1111 37 2032 247 3799 1616 4563 3534 209 524 328 1036 384 1640 16 174 16 746 0 920 -72 777 -253 1422 -587 2090 -281 561 -628 1037 -1092 1497 -101 100 -183 185 -183 189 0 7 -117 124 -124 124 -3 0 -60 44 -128 98 -144 116 -365 276 -502 364 -115 75 -456 264 -600 334 -255 123 -624 260 -926 344 -63 17 -170 49 -236 70 -272 86 -482 113 -1064 136 -69 2 -154 6 -190 8 -36 1 -92 -1 -125 -5z"/>
</g>
<g id="layer102" fill="#303030" stroke="none">
<path d="M5595 11399 c-33 -4 -150 -13 -260 -19 -733 -42 -1488 -241 -2181 -575 -256 -123 -432 -231 -764 -469 -205 -146 -522 -407 -518 -424 1 -4 -81 -90 -183 -192 -441 -440 -753 -863 -1047 -1421 -292 -553 -503 -1229 -587 -1874 -46 -358 -58 -833 -30 -1180 98 -1224 562 -2333 1369 -3275 116 -135 441 -460 576 -576 959 -822 2091 -1287 3345 -1375 287 -20 752 -5 1090 37 2032 247 3799 1616 4563 3534 209 524 328 1036 384 1640 16 174 16 746 0 920 -72 777 -253 1422 -587 2090 -281 561 -628 1037 -1092 1497 -101 100 -183 185 -183 189 0 7 -117 124 -124 124 -3 0 -60 44 -128 98 -144 116 -365 276 -502 364 -115 75 -456 264 -600 334 -255 123 -624 260 -926 344 -63 17 -170 49 -236 70 -272 86 -482 113 -1064 136 -69 2 -154 6 -190 8 -36 1 -92 -1 -125 -5z m-1427 -6072 c2 -10 -3 -17 -12 -17 -10 0 -16 9 -16 21 0 24 23 21 28 -4z m3059 -3 c8 -21 -13 -42 -28 -27 -13 13 -5 43 11 43 6 0 13 -7 17 -16z m-2807 -15 c0 -11 -4 -17 -10 -14 -5 3 -10 13 -10 21 0 8 5 14 10 14 6 0 10 -9 10 -21z m2515 -25 c0 -10 -8 -20 -17 -22 -18 -3 -26 27 -11 42 12 11 28 0 28 -20z m-2301 -30 c4 -9 4 -19 2 -22 -10 -9 -36 8 -36 23 0 20 26 19 34 -1z m2061 -4 c3 -5 1 -19 -6 -31 -9 -19 -13 -19 -25 -7 -8 8 -12 22 -8 31 7 19 29 23 39 7z m-278 -36 c8 -20 -8 -36 -26 -25 -15 10 -8 41 9 41 6 0 13 -7 17 -16z m-1499 -56 c19 -19 14 -30 -10 -26 -13 2 -24 11 -26 21 -4 20 18 23 36 5z m-598 -63 c0 -8 -4 -15 -10 -15 -5 0 -10 7 -10 15 0 8 5 15 10 15 6 0 10 -7 10 -15z m225 -50 c0 -10 -5 -20 -11 -22 -13 -4 -27 24 -18 38 9 15 29 4 29 -16z m2539 -21 c8 -20 -1 -34 -20 -34 -8 0 -14 8 -14 18 0 33 23 44 34 16z m-284 -38 c0 -33 -20 -44 -36 -21 -10 14 -11 22 -3 32 18 21 39 15 39 -11z m-602 -28 c3 -24 0 -28 -23 -28 -27 0 -41 20 -31 46 10 27 51 13 54 -18z m322 3 c0 -11 -5 -23 -11 -27 -15 -9 -33 12 -26 30 9 23 37 20 37 -3z m-1700 -41 c0 -11 -6 -20 -13 -20 -16 0 -40 38 -32 50 10 16 45 -8 45 -30z m488 -32 c-2 -17 -11 -24 -32 -26 -16 -2 -32 2 -36 9 -14 22 1 39 37 39 30 0 34 -3 31 -22z m-865 -12 c6 -15 -1 -26 -15 -26 -4 0 -8 9 -8 20 0 23 15 27 23 6z m253 -92 c13 -19 14 -28 5 -37 -17 -17 -45 4 -49 37 -4 34 22 35 44 0z m1594 -19 c15 -18 7 -43 -16 -52 -24 -9 -46 24 -33 48 12 23 32 24 49 4z m349 -4 c13 -24 -9 -57 -33 -48 -23 9 -31 34 -16 52 17 20 37 19 49 -4z m276 -1 c9 -15 -4 -50 -20 -50 -16 0 -26 25 -19 45 7 17 30 20 39 5z m225 -17 c0 -10 -5 -25 -10 -33 -9 -13 -11 -13 -20 0 -17 25 -12 50 10 50 12 0 20 -7 20 -17z m-1943 -59 c9 -24 -21 -48 -51 -40 -27 7 -36 40 -13 49 26 11 58 6 64 -9z m-623 -70 c20 -20 20 -33 0 -41 -18 -7 -34 12 -34 40 0 21 14 22 34 1z m1616 -59 c16 -19 3 -55 -20 -55 -25 0 -41 29 -29 52 12 22 32 23 49 3z m225 -6 c8 -26 -16 -54 -39 -46 -16 6 -22 48 -9 60 14 14 42 6 48 -14z m323 -46 c3 -22 -22 -48 -38 -38 -14 8 -13 38 2 53 16 16 32 10 36 -15z m-1733 1 c12 -12 13 -19 4 -30 -24 -30 -79 -10 -79 28 0 23 52 25 75 2z m316 0 c11 -14 10 -19 -10 -36 -14 -10 -31 -17 -40 -16 -23 5 -26 39 -5 55 24 17 39 16 55 -3z m1604 -4 c10 -16 -16 -43 -28 -31 -11 11 -2 41 12 41 5 0 13 -5 16 -10z m-2310 -90 c11 -17 -5 -32 -21 -19 -8 6 -14 15 -14 20 0 12 27 11 35 -1z m1680 -70 c9 -30 -4 -60 -26 -60 -24 0 -33 21 -25 55 8 31 42 34 51 5z m-1470 -21 c-6 -9 -35 -1 -35 10 0 4 3 11 7 14 8 9 34 -13 28 -24z m304 -3 c19 -23 2 -46 -34 -46 -38 0 -52 22 -29 45 19 19 48 19 63 1z m1361 -26 c0 -13 -7 -20 -20 -20 -19 0 -27 20 -13 33 13 14 33 6 33 -13z m170 2 c0 -23 -8 -32 -25 -26 -17 7 -7 44 11 44 8 0 14 -8 14 -18z m-2359 -152 c65 -12 107 -16 114 -10 15 12 161 -105 242 -195 76 -85 153 -212 170 -284 24 -103 18 -149 -32 -249 -71 -142 -137 -185 -330 -211 -114 -16 -179 -13 -295 13 -193 44 -274 90 -402 225 l-76 82 -8 87 c-9 113 6 216 42 290 35 69 140 176 211 214 109 60 203 70 364 38z m2994 5 c85 -23 150 -62 224 -135 113 -112 152 -229 137 -412 l-8 -87 -76 -82 c-128 -135 -209 -181 -402 -225 -116 -26 -181 -29 -295 -13 -193 26 -259 69 -330 211 -50 100 -56 146 -32 249 17 72 94 199 170 284 81 89 227 207 242 195 7 -6 46 -2 106 9 117 24 188 25 264 6z"/>
<path d="M3920 3933 c-29 -15 -36 -24 -38 -54 -4 -51 19 -73 67 -64 20 4 44 11 53 16 23 12 33 55 22 88 -12 33 -55 39 -104 14z"/>
<path d="M3825 3684 c-25 -27 -25 -41 -4 -124 10 -40 64 -102 128 -148 66 -48 101 -41 101 21 0 29 -83 194 -120 240 -38 45 -71 48 -105 11z"/>
<path d="M7321 3932 c-14 -26 -14 -58 -1 -82 9 -17 65 -40 97 -40 22 0 43 32 43 65 0 41 -28 64 -89 72 -32 4 -41 2 -50 -15z"/>
<path d="M7410 3673 c-37 -46 -120 -211 -120 -240 0 -62 35 -69 101 -21 64 46 118 108 128 148 21 83 21 97 -4 124 -34 37 -67 34 -105 -11z"/>
</g>
<g id="layer103" fill="#743c3c" stroke="none">
<path d="M5595 11399 c-33 -4 -150 -13 -260 -19 -733 -42 -1488 -241 -2181 -575 -256 -123 -432 -231 -764 -469 -205 -146 -522 -407 -518 -424 1 -4 -81 -90 -183 -192 -102 -102 -230 -237 -285 -300 -681 -787 -1130 -1726 -1308 -2735 -132 -745 -112 -1539 55 -2270 355 -1546 1345 -2874 2734 -3667 741 -423 1554 -667 2434 -729 288 -20 745 -5 1086 37 2032 247 3799 1616 4563 3534 209 524 328 1036 384 1640 16 174 16 746 0 920 -72 777 -253 1422 -587 2090 -281 561 -628 1037 -1092 1497 -101 100 -183 185 -183 189 0 7 -117 124 -124 124 -3 0 -60 44 -128 98 -144 116 -365 276 -502 364 -115 75 -456 264 -600 334 -255 123 -624 260 -926 344 -63 17 -170 49 -236 70 -272 86 -482 113 -1064 136 -69 2 -154 6 -190 8 -36 1 -92 -1 -125 -5z m-17 -627 c4 -9 56 -102 116 -205 l109 -187 238 0 239 0 -23 -39 c-12 -21 -57 -99 -100 -175 -43 -75 -83 -136 -87 -136 -5 0 -14 9 -19 19 -9 15 3 43 64 147 40 70 71 132 69 136 -3 4 -98 8 -212 8 l-207 0 -29 53 c-16 28 -61 105 -99 171 -82 137 -65 139 -159 -26 -56 -98 -64 -108 -90 -108 l-29 0 37 68 c21 37 47 83 59 102 12 19 37 62 55 95 40 72 54 95 58 95 1 0 6 -8 10 -18z m-328 -412 c-10 -19 -21 -20 -155 -20 -79 0 -146 -4 -149 -8 -6 -10 156 -294 170 -299 5 -2 49 66 98 150 49 83 95 162 103 175 14 22 16 22 190 20 170 -3 176 -4 191 -25 l14 -23 -178 0 -179 0 -93 -163 c-51 -89 -125 -216 -165 -282 l-71 -120 -6 -90 -5 -90 -14 43 c-8 23 -17 42 -20 42 -3 0 -21 -28 -39 -63 l-33 -62 30 -70 c17 -39 35 -78 41 -87 5 -10 10 -23 10 -29 0 -15 -26 20 -79 106 -24 39 -45 71 -46 73 -3 3 -54 -8 -160 -37 -44 -12 -96 -26 -116 -31 -33 -9 -37 -14 -48 -62 l-11 -52 87 -88 c109 -109 106 -106 58 -78 -118 68 -167 92 -174 84 -4 -5 -24 -48 -46 -97 -21 -48 -40 -86 -42 -84 -2 2 1 17 7 33 7 16 15 47 20 69 8 43 55 220 71 271 9 30 15 33 112 59 56 15 122 33 147 40 25 8 59 16 75 20 26 5 42 26 130 177 55 94 104 179 108 188 8 17 -55 137 -184 346 -21 35 -39 69 -39 74 0 6 76 10 200 10 198 0 201 0 190 -20z m637 -132 c52 -95 153 -270 260 -450 102 -173 107 -178 147 -189 22 -6 61 -17 86 -24 25 -8 84 -23 133 -36 48 -12 91 -27 95 -33 5 -6 17 -42 26 -81 10 -38 24 -92 32 -120 34 -129 45 -177 41 -182 -3 -2 -8 6 -13 19 -17 54 -66 148 -77 148 -7 0 -57 -25 -112 -55 l-100 -56 98 99 99 99 -13 44 c-7 24 -15 47 -18 51 -5 6 -56 20 -256 73 -27 7 -50 13 -51 12 -1 -3 -69 -109 -102 -161 -18 -27 -32 -47 -32 -44 0 3 20 52 44 109 l45 103 -32 58 c-17 32 -34 58 -38 58 -4 0 -14 -19 -22 -42 l-15 -43 -1 84 c-1 81 -3 87 -47 163 -25 43 -49 78 -52 78 -4 0 -36 -52 -72 -115 -57 -100 -67 -113 -77 -98 -7 9 -13 22 -13 27 0 6 29 61 65 121 36 61 65 114 65 119 0 5 -20 43 -44 85 -24 42 -56 99 -71 126 -15 28 -34 59 -41 70 -20 28 -17 35 10 35 19 0 31 -12 53 -52z m-1008 -4 c20 -33 21 -50 21 -257 0 -204 -2 -225 -20 -254 -11 -18 -22 -33 -25 -33 -3 0 -5 131 -5 290 0 160 2 290 4 290 2 0 13 -16 25 -36z m1401 -261 l-1 -298 -24 45 c-23 43 -24 52 -25 259 0 201 1 215 22 252 12 22 23 39 25 39 2 0 3 -134 3 -297z m-715 156 c19 -18 20 -35 23 -261 2 -175 6 -245 15 -250 7 -4 48 -8 93 -8 77 0 81 1 92 25 13 29 27 32 40 8 7 -12 4 -27 -13 -52 -12 -20 -66 -112 -120 -206 -135 -236 -124 -220 -142 -202 -13 13 -3 35 86 190 56 97 101 181 101 187 0 6 -36 10 -94 10 l-93 0 -6 263 c-3 144 -8 269 -11 277 -4 9 -19 24 -34 33 l-27 18 35 -6 c19 -4 44 -16 55 -26z m-316 -332 c116 -202 101 -187 176 -187 58 0 65 -2 65 -20 0 -17 -7 -20 -50 -20 -27 0 -50 -4 -50 -9 0 -5 32 -64 71 -132 54 -93 69 -127 62 -138 -14 -22 -25 -18 -44 15 -9 16 -57 100 -108 188 -50 87 -91 160 -91 162 0 2 -27 48 -61 104 -47 77 -59 107 -55 125 4 14 10 25 14 25 4 0 36 -51 71 -113z m-523 -4025 c56 -17 135 -34 175 -37 41 -4 90 -11 109 -16 19 -4 121 -15 225 -24 105 -8 217 -22 250 -30 37 -9 111 -14 195 -14 84 0 158 5 195 14 33 8 146 22 250 30 105 9 206 20 225 24 19 5 68 12 109 16 40 3 119 21 175 38 98 31 105 32 273 30 137 -1 193 -6 268 -23 59 -13 95 -26 92 -33 -2 -6 -30 -19 -63 -29 -32 -9 -68 -23 -79 -29 -12 -7 -77 -16 -155 -20 -144 -7 -210 -23 -420 -102 -131 -50 -312 -102 -455 -133 -38 -8 -83 -19 -100 -24 -16 -4 -47 -11 -67 -14 -80 -14 -126 -86 -153 -241 -18 -105 -21 -649 -4 -754 14 -90 68 -300 85 -332 46 -89 125 -134 277 -156 56 -8 126 -15 155 -16 28 0 52 -3 52 -7 0 -10 -82 -75 -131 -103 -117 -69 -272 -97 -529 -97 -257 0 -412 28 -529 97 -49 28 -131 93 -131 103 0 4 24 7 53 7 28 1 98 8 154 16 152 22 231 67 277 156 17 32 71 242 85 332 17 105 14 649 -4 754 -27 155 -73 227 -153 241 -20 3 -50 10 -67 14 -16 5 -61 16 -100 24 -143 31 -324 83 -455 133 -210 79 -276 95 -420 102 -78 4 -143 13 -155 20 -11 6 -47 20 -79 29 -33 10 -61 23 -63 29 -5 15 119 44 227 53 169 15 295 6 406 -28z m-559 -423 c14 -14 6 -39 -12 -39 -12 0 -25 21 -25 41 0 13 24 11 37 -2z m263 -35 c0 -16 -26 -19 -35 -4 -4 6 -4 18 -1 27 5 12 9 13 21 3 8 -7 15 -19 15 -26z m2802 7 c-3 -31 -7 -35 -27 -28 -8 4 -15 18 -15 32 0 22 4 26 23 23 17 -2 21 -9 19 -27z m-150 -13 c-9 -9 -12 -7 -12 12 0 19 3 21 12 12 9 -9 9 -15 0 -24z m-142 -12 c0 -31 -18 -43 -36 -24 -19 18 -8 48 17 48 13 0 19 -7 19 -24z m-139 -19 c-13 -13 -26 -3 -16 12 3 6 11 8 17 5 6 -4 6 -10 -1 -17z m-2173 1 c17 -17 15 -48 -3 -48 -17 0 -34 29 -28 48 6 15 16 15 31 0z m2069 -14 c3 -8 0 -27 -6 -41 -9 -21 -14 -23 -26 -13 -18 15 -19 42 -3 58 16 16 27 15 35 -4z m-136 -37 c-13 -13 -26 -3 -16 12 3 6 11 8 17 5 6 -4 6 -10 -1 -17z m-138 -1 c10 -25 -33 -50 -47 -27 -10 16 5 41 24 41 10 0 20 -6 23 -14z m-1501 -53 c24 -21 23 -43 -1 -43 -19 0 -51 24 -51 39 0 25 27 27 52 4z m-599 -57 c7 -16 -1 -26 -20 -26 -7 0 -13 9 -13 20 0 23 25 27 33 6z m225 -70 c-2 -12 -7 -21 -12 -21 -15 0 -29 31 -22 50 5 14 9 15 22 5 8 -8 14 -23 12 -34z m2540 -15 c5 -33 -14 -49 -34 -29 -13 13 -14 20 -4 37 14 27 34 23 38 -8z m-163 -21 c-5 -8 -11 -8 -17 -2 -6 6 -7 16 -3 22 5 8 11 8 17 2 6 -6 7 -16 3 -22z m-127 11 c8 -4 12 -19 10 -32 -2 -18 -9 -24 -28 -24 -28 0 -39 27 -20 50 14 17 20 18 38 6z m-604 -24 c36 -26 -4 -84 -41 -61 -24 15 -27 38 -8 58 20 19 26 20 49 3z m458 -2 c0 -5 -5 -11 -11 -13 -6 -2 -11 4 -11 13 0 9 5 15 11 13 6 -2 11 -8 11 -13z m-125 -11 c7 -18 -6 -45 -25 -52 -18 -6 -36 37 -21 54 15 19 38 18 46 -2z m-1713 -30 c28 -27 16 -61 -17 -48 -17 6 -39 49 -30 58 11 11 31 6 47 -10z m503 -40 c9 -24 -10 -49 -41 -52 -26 -3 -56 12 -56 29 0 34 85 54 97 23z m-869 -37 c2 -19 -1 -27 -13 -27 -19 0 -30 24 -21 46 9 23 31 11 34 -19z m-168 14 c0 -12 -20 -25 -27 -18 -7 7 6 27 18 27 5 0 9 -4 9 -9z m800 -22 c0 -5 -7 -9 -15 -9 -15 0 -20 12 -9 23 8 8 24 -1 24 -14z m-384 -64 c28 -28 28 -58 1 -63 -24 -5 -57 26 -57 53 0 42 20 46 56 10z m1598 -27 c21 -30 4 -60 -32 -56 -30 3 -42 39 -22 64 17 20 36 17 54 -8z m344 10 c17 -17 15 -53 -3 -68 -33 -28 -75 22 -49 58 17 25 34 28 52 10z m277 -34 c0 -32 -31 -47 -46 -22 -12 18 -11 24 7 43 23 22 39 14 39 -21z m-144 3 c-13 -13 -26 -3 -16 12 3 6 11 8 17 5 6 -4 6 -10 -1 -17z m373 8 c6 -17 -12 -65 -25 -65 -18 0 -30 40 -19 60 13 24 35 26 44 5z m-674 -15 c0 -5 -7 -10 -15 -10 -8 0 -15 5 -15 10 0 6 7 10 15 10 8 0 15 -4 15 -10z m-1266 -45 c19 -20 12 -39 -20 -53 -32 -15 -74 1 -74 27 0 37 65 55 94 26z m-798 -16 c10 -17 -13 -36 -27 -22 -12 12 -4 33 11 33 5 0 12 -5 16 -11z m166 -56 c22 -20 24 -63 3 -63 -19 0 -49 46 -41 65 7 19 15 19 38 -2z m1627 -72 c12 -23 -5 -61 -27 -61 -24 0 -42 19 -42 47 0 40 50 51 69 14z m216 -10 c0 -41 -25 -62 -49 -42 -33 27 -12 85 29 79 16 -2 20 -11 20 -37z m-1648 -17 c-9 -9 -28 6 -21 18 4 6 10 6 17 -1 6 -6 8 -13 4 -17z m243 -12 c44 -35 -17 -79 -66 -47 -23 15 -32 44 -17 58 13 13 61 7 83 -11z m311 8 c10 -6 19 -17 19 -24 0 -23 -37 -48 -67 -44 -38 4 -40 46 -3 65 30 15 27 15 51 3z m1229 2 c0 -13 -12 -22 -22 -16 -10 6 -1 24 13 24 5 0 9 -4 9 -8z m194 -8 c6 -17 -18 -64 -32 -64 -14 0 -32 23 -32 40 0 36 52 55 64 24z m181 -25 c0 -15 -7 -25 -18 -27 -22 -4 -33 24 -17 43 18 21 35 13 35 -16z m-2305 -79 c9 -16 8 -22 -4 -26 -21 -8 -36 3 -36 27 0 25 26 25 40 -1z m1664 -46 c21 -8 21 -67 0 -85 -36 -30 -71 35 -38 72 20 22 17 21 38 13z m-1454 -29 c10 -12 9 -16 -4 -21 -22 -8 -46 2 -46 21 0 19 34 20 50 0z m316 -27 c8 -26 -17 -48 -57 -48 -36 0 -54 22 -39 49 16 31 86 30 96 -1z m1339 -19 c0 -15 -7 -25 -17 -27 -13 -3 -18 3 -18 21 0 13 3 27 7 31 13 12 28 -1 28 -25z m180 0 c0 -15 -7 -25 -18 -27 -22 -4 -33 24 -17 43 18 21 35 13 35 -16z m-2345 -145 c36 -8 75 -12 87 -9 15 3 37 -8 80 -42 142 -113 235 -219 304 -348 38 -69 42 -85 47 -165 5 -86 4 -91 -31 -163 -85 -179 -187 -231 -457 -231 -166 0 -252 18 -380 80 -61 30 -95 57 -181 143 l-106 107 -6 89 c-14 182 22 284 143 406 146 146 279 182 500 133z m3017 -6 c105 -39 234 -157 287 -262 34 -68 47 -161 39 -271 l-6 -89 -106 -107 c-86 -86 -120 -113 -181 -143 -128 -62 -214 -80 -380 -80 -270 0 -372 52 -457 231 -35 72 -36 77 -31 163 5 80 9 96 47 165 69 129 162 235 305 349 40 32 64 45 77 41 11 -4 52 1 92 9 136 29 224 28 314 -6z"/>
</g>
<g id="layer104" fill="#4f4f4f" stroke="none">
<path d="M5595 11399 c-33 -4 -150 -13 -260 -19 -733 -42 -1488 -241 -2181 -575 -256 -123 -432 -231 -764 -469 -210 -150 -523 -407 -517 -425 1 -4 -77 -86 -173 -182 -482 -479 -826 -958 -1116 -1554 -314 -647 -490 -1287 -556 -2025 -7 -81 -13 -284 -13 -460 0 -402 24 -670 91 -1035 142 -777 457 -1535 911 -2193 549 -795 1290 -1434 2158 -1862 751 -370 1483 -553 2338 -586 l177 -7 0 900 0 899 198 12 c418 26 611 58 890 151 386 128 612 243 844 430 138 111 280 277 345 406 14 28 52 88 83 135 88 131 159 266 191 362 15 48 58 142 94 209 233 426 411 925 524 1467 14 66 14 450 1 627 -48 647 -56 1381 -20 1835 69 882 263 1645 614 2414 l36 79 -60 58 c-33 33 -62 59 -64 59 -3 0 -60 44 -128 98 -144 116 -365 276 -502 364 -115 75 -456 264 -600 334 -255 123 -624 260 -926 344 -63 17 -170 49 -236 70 -272 86 -482 113 -1064 136 -69 2 -154 6 -190 8 -36 1 -92 -1 -125 -5z m103 -831 l107 -188 238 0 238 0 -17 -32 c-9 -18 -38 -69 -64 -113 -27 -44 -64 -109 -83 -145 -20 -35 -40 -66 -45 -68 -4 -1 -14 9 -21 24 -10 24 -6 36 59 148 38 67 70 125 70 129 0 3 -93 8 -207 9 l-207 3 -58 100 c-32 55 -77 133 -100 173 l-41 74 -17 -29 c-9 -15 -42 -72 -74 -125 -52 -89 -60 -98 -86 -98 -17 0 -30 3 -30 6 0 3 34 65 76 137 42 73 87 152 101 176 31 54 17 70 161 -181z m-438 -201 c0 -32 -24 -37 -167 -37 -87 0 -143 -4 -143 -10 0 -8 55 -106 90 -160 6 -8 14 -24 19 -35 6 -11 21 -37 34 -59 l24 -39 89 149 c49 82 95 161 103 176 l13 28 181 0 c159 0 181 -2 193 -17 7 -10 14 -21 14 -25 0 -5 -78 -8 -174 -8 l-174 0 -63 -107 c-34 -60 -91 -156 -126 -215 -34 -59 -75 -129 -90 -155 -14 -26 -35 -61 -45 -78 -13 -23 -18 -51 -18 -115 -1 -79 -2 -83 -15 -60 -8 14 -14 33 -15 43 0 30 -14 18 -47 -41 l-32 -58 45 -99 c69 -151 57 -146 -49 21 l-45 72 -109 -29 c-207 -55 -194 -49 -209 -99 l-13 -45 82 -85 c119 -121 124 -130 47 -86 -36 20 -84 47 -107 58 -52 26 -51 27 -102 -92 -19 -44 -36 -78 -38 -76 -3 2 12 69 32 148 20 78 44 171 52 205 l16 63 51 13 c28 8 109 30 179 48 l128 34 34 55 c77 128 178 306 178 315 0 9 -142 262 -163 290 -4 6 -21 36 -39 68 l-32 57 205 0 c162 0 206 -3 206 -13z m739 -328 c264 -458 250 -437 301 -449 25 -5 68 -16 95 -24 28 -8 86 -24 130 -36 44 -12 81 -23 84 -25 10 -11 115 -415 108 -421 -2 -3 -24 40 -47 96 -39 89 -46 100 -64 94 -18 -6 -54 -25 -191 -102 -19 -11 19 33 98 115 75 77 79 83 73 115 -3 19 -12 42 -19 51 -11 15 -292 96 -301 86 -2 -2 -33 -50 -70 -106 -37 -57 -69 -103 -71 -103 -5 0 17 56 50 127 40 86 40 96 4 160 l-33 57 -15 -45 -16 -44 -5 85 c-5 79 -8 91 -51 164 -54 91 -38 98 -128 -61 -29 -51 -56 -93 -60 -93 -4 0 -13 11 -19 24 -9 20 -3 36 45 117 92 157 88 136 42 215 -23 38 -56 97 -75 132 -19 35 -42 75 -51 89 l-16 25 33 -4 c32 -3 38 -12 169 -239z m-1099 -73 c0 -214 -1 -231 -21 -262 -11 -19 -23 -34 -25 -34 -2 0 -4 136 -4 303 l1 302 24 -40 c25 -39 25 -43 25 -269z m1378 -148 l-3 -153 -22 43 c-22 40 -23 54 -23 263 0 210 1 222 23 259 l22 39 3 -149 c1 -83 1 -219 0 -302z m-727 319 c36 -27 39 -53 39 -286 0 -267 -7 -251 109 -251 67 0 71 1 88 30 21 35 24 36 41 10 13 -21 9 -32 -31 -95 -20 -32 -52 -87 -82 -140 -53 -96 -147 -255 -151 -255 -2 0 -8 9 -14 20 -12 22 4 54 131 275 l58 100 -93 3 -93 3 -7 46 c-3 25 -6 143 -6 262 0 241 -4 259 -60 278 l-35 12 45 0 c25 0 52 -5 61 -12z m-276 -388 l87 -150 64 6 64 7 0 -31 c0 -31 -1 -31 -51 -31 -51 0 -51 0 -37 -22 8 -13 30 -50 48 -83 18 -33 44 -77 57 -97 27 -43 28 -57 10 -82 -13 -17 -16 -14 -44 35 -17 30 -96 168 -176 307 -130 226 -145 257 -135 278 6 13 14 21 18 19 5 -3 47 -73 95 -156z m-549 -3987 c56 -17 135 -34 175 -37 41 -4 90 -11 109 -16 19 -4 121 -15 225 -24 105 -8 217 -22 250 -30 37 -9 111 -14 195 -14 84 0 158 5 195 14 33 8 146 22 250 30 105 9 206 20 225 24 19 5 68 12 109 16 40 3 119 21 175 38 98 31 105 32 273 30 137 -1 193 -6 268 -23 59 -13 95 -26 92 -33 -2 -6 -30 -19 -63 -29 -32 -9 -68 -23 -79 -29 -12 -7 -77 -16 -155 -20 -144 -7 -210 -23 -420 -102 -131 -50 -312 -102 -455 -133 -38 -8 -83 -19 -100 -24 -16 -4 -47 -11 -67 -14 -80 -14 -126 -86 -153 -241 -18 -105 -21 -649 -4 -754 14 -90 68 -300 85 -332 46 -89 125 -134 277 -156 56 -8 126 -15 155 -16 28 0 52 -3 52 -7 0 -10 -82 -75 -131 -103 -117 -69 -272 -97 -529 -97 -257 0 -412 28 -529 97 -49 28 -131 93 -131 103 0 4 24 7 53 7 28 1 98 8 154 16 152 22 231 67 277 156 17 32 71 242 85 332 17 105 14 649 -4 754 -27 155 -73 227 -153 241 -20 3 -50 10 -67 14 -16 5 -61 16 -100 24 -143 31 -324 83 -455 133 -210 79 -276 95 -420 102 -78 4 -143 13 -155 20 -11 6 -47 20 -79 29 -33 10 -61 23 -63 29 -5 15 119 44 227 53 169 15 295 6 406 -28z m-559 -423 c14 -14 6 -39 -12 -39 -12 0 -25 21 -25 41 0 13 24 11 37 -2z m263 -35 c0 -16 -26 -19 -35 -4 -4 6 -4 18 -1 27 5 12 9 13 21 3 8 -7 15 -19 15 -26z m2802 7 c-3 -31 -7 -35 -27 -28 -8 4 -15 18 -15 32 0 22 4 26 23 23 17 -2 21 -9 19 -27z m-150 -13 c-9 -9 -12 -7 -12 12 0 19 3 21 12 12 9 -9 9 -15 0 -24z m-142 -12 c0 -31 -18 -43 -36 -24 -19 18 -8 48 17 48 13 0 19 -7 19 -24z m-139 -19 c-13 -13 -26 -3 -16 12 3 6 11 8 17 5 6 -4 6 -10 -1 -17z m-2173 1 c17 -17 15 -48 -3 -48 -17 0 -34 29 -28 48 6 15 16 15 31 0z m2069 -14 c3 -8 0 -27 -6 -41 -9 -21 -14 -23 -26 -13 -18 15 -19 42 -3 58 16 16 27 15 35 -4z m-136 -37 c-13 -13 -26 -3 -16 12 3 6 11 8 17 5 6 -4 6 -10 -1 -17z m-138 -1 c10 -25 -33 -50 -47 -27 -10 16 5 41 24 41 10 0 20 -6 23 -14z m-1501 -53 c24 -21 23 -43 -1 -43 -19 0 -51 24 -51 39 0 25 27 27 52 4z m-599 -57 c7 -16 -1 -26 -20 -26 -7 0 -13 9 -13 20 0 23 25 27 33 6z m225 -70 c-2 -12 -7 -21 -12 -21 -15 0 -29 31 -22 50 5 14 9 15 22 5 8 -8 14 -23 12 -34z m2540 -15 c5 -33 -14 -49 -34 -29 -13 13 -14 20 -4 37 14 27 34 23 38 -8z m-163 -21 c-5 -8 -11 -8 -17 -2 -6 6 -7 16 -3 22 5 8 11 8 17 2 6 -6 7 -16 3 -22z m-127 11 c8 -4 12 -19 10 -32 -2 -18 -9 -24 -28 -24 -28 0 -39 27 -20 50 14 17 20 18 38 6z m-604 -24 c36 -26 -4 -84 -41 -61 -24 15 -27 38 -8 58 20 19 26 20 49 3z m458 -2 c0 -5 -5 -11 -11 -13 -6 -2 -11 4 -11 13 0 9 5 15 11 13 6 -2 11 -8 11 -13z m-125 -11 c7 -18 -6 -45 -25 -52 -18 -6 -36 37 -21 54 15 19 38 18 46 -2z m-1713 -30 c28 -27 16 -61 -17 -48 -17 6 -39 49 -30 58 11 11 31 6 47 -10z m503 -40 c9 -24 -10 -49 -41 -52 -26 -3 -56 12 -56 29 0 34 85 54 97 23z m-869 -37 c2 -19 -1 -27 -13 -27 -19 0 -30 24 -21 46 9 23 31 11 34 -19z m-168 14 c0 -12 -20 -25 -27 -18 -7 7 6 27 18 27 5 0 9 -4 9 -9z m800 -22 c0 -5 -7 -9 -15 -9 -15 0 -20 12 -9 23 8 8 24 -1 24 -14z m-384 -64 c28 -28 28 -58 1 -63 -24 -5 -57 26 -57 53 0 42 20 46 56 10z m1598 -27 c21 -30 4 -60 -32 -56 -30 3 -42 39 -22 64 17 20 36 17 54 -8z m344 10 c17 -17 15 -53 -3 -68 -33 -28 -75 22 -49 58 17 25 34 28 52 10z m277 -34 c0 -32 -31 -47 -46 -22 -12 18 -11 24 7 43 23 22 39 14 39 -21z m-144 3 c-13 -13 -26 -3 -16 12 3 6 11 8 17 5 6 -4 6 -10 -1 -17z m373 8 c6 -17 -12 -65 -25 -65 -18 0 -30 40 -19 60 13 24 35 26 44 5z m-674 -15 c0 -5 -7 -10 -15 -10 -8 0 -15 5 -15 10 0 6 7 10 15 10 8 0 15 -4 15 -10z m-1266 -45 c19 -20 12 -39 -20 -53 -32 -15 -74 1 -74 27 0 37 65 55 94 26z m-798 -16 c10 -17 -13 -36 -27 -22 -12 12 -4 33 11 33 5 0 12 -5 16 -11z m166 -56 c22 -20 24 -63 3 -63 -19 0 -49 46 -41 65 7 19 15 19 38 -2z m1627 -72 c12 -23 -5 -61 -27 -61 -24 0 -42 19 -42 47 0 40 50 51 69 14z m216 -10 c0 -41 -25 -62 -49 -42 -33 27 -12 85 29 79 16 -2 20 -11 20 -37z m-1648 -17 c-9 -9 -28 6 -21 18 4 6 10 6 17 -1 6 -6 8 -13 4 -17z m243 -12 c44 -35 -17 -79 -66 -47 -23 15 -32 44 -17 58 13 13 61 7 83 -11z m311 8 c10 -6 19 -17 19 -24 0 -23 -37 -48 -67 -44 -38 4 -40 46 -3 65 30 15 27 15 51 3z m1229 2 c0 -13 -12 -22 -22 -16 -10 6 -1 24 13 24 5 0 9 -4 9 -8z m194 -8 c6 -17 -18 -64 -32 -64 -14 0 -32 23 -32 40 0 36 52 55 64 24z m181 -25 c0 -15 -7 -25 -18 -27 -22 -4 -33 24 -17 43 18 21 35 13 35 -16z m-2305 -79 c9 -16 8 -22 -4 -26 -21 -8 -36 3 -36 27 0 25 26 25 40 -1z m1664 -46 c21 -8 21 -67 0 -85 -36 -30 -71 35 -38 72 20 22 17 21 38 13z m-1454 -29 c10 -12 9 -16 -4 -21 -22 -8 -46 2 -46 21 0 19 34 20 50 0z m316 -27 c8 -26 -17 -48 -57 -48 -36 0 -54 22 -39 49 16 31 86 30 96 -1z m1339 -19 c0 -15 -7 -25 -17 -27 -13 -3 -18 3 -18 21 0 13 3 27 7 31 13 12 28 -1 28 -25z m180 0 c0 -15 -7 -25 -18 -27 -22 -4 -33 24 -17 43 18 21 35 13 35 -16z m-2345 -145 c36 -8 75 -12 87 -9 15 3 37 -8 80 -42 142 -113 235 -219 304 -348 38 -69 42 -85 47 -165 5 -86 4 -91 -31 -163 -85 -179 -187 -231 -457 -231 -166 0 -252 18 -380 80 -61 30 -95 57 -181 143 l-106 107 -6 89 c-14 182 22 284 143 406 146 146 279 182 500 133z m3017 -6 c105 -39 234 -157 287 -262 34 -68 47 -161 39 -271 l-6 -89 -106 -107 c-86 -86 -120 -113 -181 -143 -128 -62 -214 -80 -380 -80 -270 0 -372 52 -457 231 -35 72 -36 77 -31 163 5 80 9 96 47 165 69 129 162 235 305 349 40 32 64 45 77 41 11 -4 52 1 92 9 136 29 224 28 314 -6z"/>
<path d="M3940 3943 c-49 -18 -77 -82 -48 -111 21 -21 92 -15 116 11 52 55 3 126 -68 100z"/>
<path d="M3845 3702 c-26 -19 -37 -61 -30 -113 6 -50 12 -59 80 -125 79 -77 127 -98 146 -63 14 27 11 42 -21 107 -16 34 -30 64 -30 67 0 14 -80 123 -95 129 -22 8 -38 7 -50 -2z"/>
<path d="M7327 3933 c-42 -47 -2 -113 69 -113 47 0 64 14 64 50 0 57 -97 102 -133 63z"/>
<path d="M7442 3703 c-12 -5 -92 -116 -92 -128 0 -3 -13 -33 -30 -67 -32 -65 -35 -80 -21 -107 19 -35 67 -14 146 63 68 66 74 75 80 125 12 87 -25 137 -83 114z"/>
</g>
<g id="layer105" fill="#bb2d2d" stroke="none">
<path d="M5595 11399 c-33 -4 -150 -13 -260 -19 -733 -42 -1488 -241 -2181 -575 -256 -123 -432 -231 -764 -469 -210 -150 -523 -407 -517 -425 1 -4 -77 -86 -173 -182 -482 -479 -826 -958 -1116 -1554 -314 -647 -490 -1287 -556 -2025 -7 -81 -13 -284 -13 -460 0 -402 24 -670 91 -1035 142 -777 457 -1535 911 -2193 549 -795 1290 -1434 2158 -1862 751 -370 1483 -553 2338 -586 l177 -7 0 900 0 899 198 12 c418 26 611 58 890 151 386 128 612 243 844 430 138 111 280 277 345 406 14 28 52 88 83 135 88 131 159 266 191 362 15 48 58 142 94 209 233 426 411 925 524 1467 14 66 14 450 1 627 -48 647 -56 1381 -20 1835 69 882 263 1645 614 2414 l36 79 -60 58 c-33 33 -62 59 -64 59 -3 0 -60 44 -128 98 -178 143 -427 321 -558 398 -276 164 -507 288 -679 364 -186 81 -559 213 -796 280 -60 17 -165 49 -231 70 -271 86 -482 113 -1064 136 -69 2 -154 6 -190 8 -36 1 -92 -1 -125 -5z m103 -831 l107 -188 238 0 238 0 -17 -32 c-9 -18 -38 -69 -64 -113 -27 -44 -64 -109 -83 -145 -20 -35 -40 -66 -45 -68 -4 -1 -14 9 -21 24 -10 24 -6 36 59 148 38 67 70 125 70 129 0 3 -93 8 -207 9 l-207 3 -58 100 c-32 55 -77 133 -100 173 l-41 74 -17 -29 c-9 -15 -42 -72 -74 -125 -52 -89 -60 -98 -86 -98 -17 0 -30 3 -30 6 0 3 34 65 76 137 42 73 87 152 101 176 31 54 17 70 161 -181z m-438 -201 c0 -32 -24 -37 -167 -37 -87 0 -143 -4 -143 -10 0 -8 55 -106 90 -160 6 -8 14 -24 19 -35 6 -11 21 -37 34 -59 l24 -39 89 149 c49 82 95 161 103 176 l13 28 181 0 c159 0 181 -2 193 -17 7 -10 14 -21 14 -25 0 -5 -78 -8 -174 -8 l-174 0 -63 -107 c-34 -60 -91 -156 -126 -215 -34 -59 -75 -129 -90 -155 -14 -26 -35 -61 -45 -78 -13 -23 -18 -51 -18 -115 -1 -79 -2 -83 -15 -60 -8 14 -14 33 -15 43 0 30 -14 18 -47 -41 l-32 -58 45 -99 c69 -151 57 -146 -49 21 l-45 72 -109 -29 c-207 -55 -194 -49 -209 -99 l-13 -45 82 -85 c119 -121 124 -130 47 -86 -36 20 -84 47 -107 58 -52 26 -51 27 -102 -92 -19 -44 -36 -78 -38 -76 -3 2 12 69 32 148 20 78 44 171 52 205 l16 63 51 13 c28 8 109 30 179 48 l128 34 34 55 c77 128 178 306 178 315 0 9 -142 262 -163 290 -4 6 -21 36 -39 68 l-32 57 205 0 c162 0 206 -3 206 -13z m739 -328 c264 -458 250 -437 301 -449 25 -5 68 -16 95 -24 28 -8 86 -24 130 -36 44 -12 81 -23 84 -25 10 -11 115 -415 108 -421 -2 -3 -24 40 -47 96 -39 89 -46 100 -64 94 -18 -6 -54 -25 -191 -102 -19 -11 19 33 98 115 75 77 79 83 73 115 -3 19 -12 42 -19 51 -11 15 -292 96 -301 86 -2 -2 -33 -50 -70 -106 -37 -57 -69 -103 -71 -103 -5 0 17 56 50 127 40 86 40 96 4 160 l-33 57 -15 -45 -16 -44 -5 85 c-5 79 -8 91 -51 164 -54 91 -38 98 -128 -61 -29 -51 -56 -93 -60 -93 -4 0 -13 11 -19 24 -9 20 -3 36 45 117 92 157 88 136 42 215 -23 38 -56 97 -75 132 -19 35 -42 75 -51 89 l-16 25 33 -4 c32 -3 38 -12 169 -239z m-1099 -73 c0 -214 -1 -231 -21 -262 -11 -19 -23 -34 -25 -34 -2 0 -4 136 -4 303 l1 302 24 -40 c25 -39 25 -43 25 -269z m1378 -148 l-3 -153 -22 43 c-22 40 -23 54 -23 263 0 210 1 222 23 259 l22 39 3 -149 c1 -83 1 -219 0 -302z m-727 319 c36 -27 39 -53 39 -286 0 -267 -7 -251 109 -251 67 0 71 1 88 30 21 35 24 36 41 10 13 -21 9 -32 -31 -95 -20 -32 -52 -87 -82 -140 -53 -96 -147 -255 -151 -255 -2 0 -8 9 -14 20 -12 22 4 54 131 275 l58 100 -93 3 -93 3 -7 46 c-3 25 -6 143 -6 262 0 241 -4 259 -60 278 l-35 12 45 0 c25 0 52 -5 61 -12z m-276 -388 l87 -150 64 6 64 7 0 -31 c0 -31 -1 -31 -51 -31 -51 0 -51 0 -37 -22 8 -13 30 -50 48 -83 18 -33 44 -77 57 -97 27 -43 28 -57 10 -82 -13 -17 -16 -14 -44 35 -17 30 -96 168 -176 307 -130 226 -145 257 -135 278 6 13 14 21 18 19 5 -3 47 -73 95 -156z m-1864 -3829 c76 -344 215 -613 347 -671 52 -23 145 -44 230 -54 43 -5 62 -11 62 -21 0 -8 -2 -14 -5 -14 -28 0 -210 32 -231 41 -16 7 -35 13 -41 15 -62 12 -162 121 -227 245 -51 96 -149 356 -140 370 3 5 0 9 -6 9 -6 0 -8 10 -4 26 4 17 3 25 -3 21 -6 -4 -8 4 -5 20 4 19 2 24 -8 18 -9 -5 -10 -2 -5 14 4 12 2 27 -3 34 -10 13 -17 91 -13 142 3 27 4 25 13 -15 5 -25 23 -106 39 -180z m4571 115 c-3 -27 -9 -55 -14 -62 -5 -7 -7 -22 -3 -34 5 -16 4 -19 -5 -14 -10 6 -12 1 -8 -18 3 -16 1 -24 -5 -20 -6 4 -7 -4 -3 -21 4 -16 2 -26 -4 -26 -6 0 -9 -4 -6 -9 9 -14 -89 -274 -140 -370 -65 -124 -165 -233 -227 -245 -6 -2 -25 -8 -41 -15 -21 -9 -203 -41 -231 -41 -3 0 -5 6 -5 14 0 10 19 16 63 21 208 23 287 65 376 198 92 137 193 437 238 707 7 43 7 44 13 15 4 -16 5 -52 2 -80z m-3246 -273 c56 -17 135 -34 175 -37 41 -4 90 -11 109 -16 19 -4 121 -15 225 -24 105 -8 217 -22 250 -30 36 -8 110 -14 185 -14 75 0 149 6 185 14 33 8 146 22 250 30 105 9 206 20 225 24 19 5 68 12 109 16 40 3 119 21 175 38 100 32 103 32 286 30 138 -2 207 -7 270 -21 105 -23 118 -44 38 -62 -29 -7 -72 -21 -95 -31 -32 -15 -67 -19 -145 -19 -112 -1 -215 -26 -418 -103 -130 -49 -309 -102 -455 -133 -38 -9 -86 -19 -105 -24 -19 -5 -52 -12 -73 -15 -49 -8 -100 -59 -121 -122 -36 -112 -46 -218 -46 -511 0 -157 5 -315 11 -351 14 -91 68 -300 85 -333 26 -51 76 -99 130 -124 58 -27 225 -57 307 -55 26 1 47 -2 47 -7 0 -11 -88 -85 -132 -112 -106 -62 -269 -90 -528 -90 -259 0 -422 28 -528 90 -44 27 -132 101 -132 112 0 5 21 8 48 7 81 -2 248 28 306 55 54 25 104 73 130 124 17 33 71 242 85 333 6 36 11 194 11 351 0 293 -10 399 -46 511 -21 63 -72 114 -121 122 -21 3 -54 10 -73 15 -19 5 -66 15 -105 24 -146 31 -325 84 -455 133 -203 77 -306 102 -418 103 -78 0 -113 4 -145 19 -23 10 -66 24 -95 31 -157 37 80 91 373 86 102 -2 135 -7 221 -34z m-556 -436 c0 -22 -25 -37 -38 -24 -13 13 -16 41 -6 51 10 9 44 -12 44 -27z m100 3 c0 -11 -4 -17 -10 -14 -5 3 -10 13 -10 21 0 8 5 14 10 14 6 0 10 -9 10 -21z m2950 6 c13 -16 6 -65 -9 -65 -14 0 -41 29 -41 44 0 13 20 36 31 36 4 0 12 -7 19 -15z m-2802 -19 c2 -10 -1 -23 -8 -30 -14 -14 -41 19 -33 40 8 20 37 13 41 -10z m2662 -6 c0 -21 -15 -27 -25 -10 -7 12 2 30 16 30 5 0 9 -9 9 -20z m-2565 -8 c0 -18 -20 -15 -23 4 -3 10 1 15 10 12 7 -3 13 -10 13 -16z m2415 3 c18 -22 3 -57 -23 -53 -25 3 -34 32 -17 53 16 19 24 19 40 0z m-132 -32 c-5 -25 -28 -28 -28 -4 0 12 6 21 16 21 9 0 14 -7 12 -17z m-2167 -14 c9 -17 8 -25 -6 -38 -15 -15 -17 -15 -31 3 -8 11 -14 28 -14 38 0 25 37 23 51 -3z m2058 -3 c14 -16 -5 -66 -24 -66 -25 0 -39 29 -27 55 13 28 34 32 51 11z m-275 -40 c9 -13 7 -20 -7 -31 -35 -26 -66 12 -35 43 15 15 28 11 42 -12z m146 10 c0 -18 -16 -29 -30 -21 -13 8 -1 35 16 35 8 0 14 -6 14 -14z m-1823 -11 c3 -9 3 -19 -1 -22 -8 -9 -37 18 -30 28 8 14 24 11 31 -6z m190 -61 c30 -46 -21 -63 -56 -18 -15 19 -18 30 -11 39 15 18 48 7 67 -21z m-610 -68 c-4 -9 -11 -16 -17 -16 -15 0 -24 26 -16 47 6 15 8 15 23 1 9 -9 13 -24 10 -32z m113 -2 c0 -16 -16 -19 -25 -4 -8 13 4 32 16 25 5 -4 9 -13 9 -21z m-310 -7 c0 -17 -168 -128 -254 -168 -113 -53 -251 -51 -371 5 -43 20 -165 103 -165 112 0 2 24 -10 53 -27 154 -89 273 -126 362 -112 51 7 150 57 252 125 79 53 116 76 121 77 1 1 2 -5 2 -12z m3230 -82 c64 -46 178 -101 225 -108 89 -14 208 23 363 112 28 17 52 29 52 27 0 -9 -122 -92 -165 -112 -120 -56 -258 -58 -371 -5 -85 39 -254 151 -254 168 0 14 75 -28 150 -82z m-2810 64 c14 -25 6 -49 -14 -49 -19 0 -40 36 -32 56 8 21 34 17 46 -7z m2538 -44 c4 -31 -15 -50 -35 -33 -16 13 -17 40 -1 56 18 18 33 9 36 -23z m-2428 -19 c-13 -13 -35 7 -25 24 5 8 11 8 21 -1 10 -8 12 -15 4 -23z m2270 14 c0 -11 -7 -20 -15 -20 -8 0 -15 9 -15 20 0 11 7 20 15 20 8 0 15 -9 15 -20z m-122 -6 c20 -36 -15 -77 -44 -53 -15 12 -19 51 -7 62 12 13 42 7 51 -9z m-604 -20 c21 -20 20 -30 -4 -54 -24 -24 -63 -14 -68 19 -7 45 40 67 72 35z m330 -10 c7 -19 -10 -54 -27 -54 -35 0 -50 52 -20 68 20 12 39 6 47 -14z m126 12 c0 -8 -5 -18 -11 -22 -14 -8 -33 11 -25 25 10 16 36 13 36 -3z m-1840 -40 c25 -27 21 -56 -6 -56 -26 0 -54 30 -54 57 0 31 30 30 60 -1z m1516 13 c10 -17 -13 -36 -27 -22 -12 12 -4 33 11 33 5 0 12 -5 16 -11z m-2006 -29 c0 -5 -11 -17 -24 -25 -13 -9 -26 -25 -29 -37 -5 -18 -8 -19 -21 -9 -13 11 -30 7 -98 -22 -165 -71 -362 -113 -468 -102 -72 8 -270 62 -294 80 -34 25 -12 25 62 0 143 -48 225 -59 344 -46 96 10 158 25 213 50 11 6 56 22 100 37 44 15 104 40 134 56 55 29 81 35 81 18z m2761 -18 c30 -16 90 -41 134 -56 44 -15 89 -31 100 -37 55 -25 117 -40 213 -50 119 -13 201 -2 344 46 40 13 74 22 77 20 12 -12 -43 -36 -149 -66 -151 -43 -267 -44 -413 -5 -154 41 -375 135 -385 164 -6 20 21 14 79 -16z m-1780 8 c23 -13 25 -43 3 -60 -22 -19 -75 -16 -90 4 -16 22 -9 40 19 54 29 14 44 14 68 2z m-861 -35 c16 -19 3 -57 -18 -53 -22 4 -30 68 -9 68 8 0 20 -7 27 -15z m638 -22 c2 -8 -6 -13 -22 -13 -17 0 -26 5 -26 16 0 19 41 16 48 -3z m-540 -27 c3 -12 -1 -17 -10 -14 -7 3 -15 13 -16 22 -3 12 1 17 10 14 7 -3 15 -13 16 -22z m166 -51 c19 -51 -7 -78 -49 -51 -29 19 -42 60 -25 81 10 13 16 13 40 0 15 -8 30 -22 34 -30z m1931 -5 c38 -42 -18 -105 -61 -70 -21 18 -17 57 8 74 29 20 31 20 53 -4z m-347 -2 c21 -21 14 -57 -13 -70 -22 -10 -29 -9 -47 10 -19 18 -20 25 -10 47 13 27 49 34 70 13z m627 -18 c7 -23 -10 -60 -28 -60 -18 0 -37 21 -37 40 0 38 54 55 65 20z m215 6 c16 -20 9 -56 -13 -70 -14 -8 -20 -8 -27 4 -13 21 -12 54 2 68 16 16 23 15 38 -2z m-3040 -1 c0 -18 -34 -66 -69 -98 -38 -34 -61 -44 -161 -66 -95 -21 -302 2 -314 36 -7 17 3 16 114 -12 44 -11 83 -15 120 -11 30 4 69 8 85 10 71 7 195 88 195 127 0 10 7 19 15 19 8 0 15 -2 15 -5z m2707 -30 c21 -19 45 -35 53 -35 8 0 48 -23 88 -50 40 -27 90 -54 110 -61 20 -6 42 -15 47 -19 11 -7 173 -60 240 -78 22 -6 59 -15 81 -21 59 -16 287 -13 359 3 142 33 148 36 304 103 31 13 33 13 22 -1 -8 -9 -19 -16 -26 -16 -7 0 -15 -6 -18 -14 -8 -19 -203 -82 -319 -102 -154 -27 -350 -5 -544 61 -97 33 -348 160 -390 198 -18 15 -39 27 -48 27 -9 0 -16 8 -16 20 0 28 14 25 57 -15z m463 16 c0 -39 124 -120 195 -127 17 -2 55 -6 85 -10 37 -4 76 0 120 11 111 28 121 29 114 12 -8 -21 -85 -39 -184 -43 -79 -3 -118 2 -213 27 -43 11 -111 68 -133 110 -18 35 -18 39 1 39 8 0 15 -9 15 -19z m-800 -11 c0 -11 -7 -20 -15 -20 -8 0 -15 9 -15 20 0 11 7 20 15 20 8 0 15 -9 15 -20z m-1934 -29 c-34 -36 -295 -170 -400 -206 -195 -66 -390 -88 -544 -61 -116 20 -311 83 -319 102 -3 8 -11 14 -18 14 -7 0 -18 7 -26 16 -11 14 -9 14 22 1 156 -67 162 -70 304 -103 72 -16 300 -19 359 -3 22 6 59 15 81 21 67 18 229 71 240 78 6 4 28 13 50 20 60 20 93 47 88 74 -6 28 22 43 35 20 8 -14 13 -13 48 3 21 9 52 28 68 41 38 30 47 19 12 -17z m360 -12 c11 -18 -13 -34 -31 -19 -8 7 -15 16 -15 21 0 13 38 11 46 -2z m322 -17 c6 -42 -53 -66 -99 -42 -10 6 -19 19 -19 28 0 30 22 43 70 40 38 -3 45 -6 48 -26z m-632 -67 c19 -30 12 -55 -15 -55 -22 0 -41 27 -41 59 0 30 36 27 56 -4z m1841 -61 c3 -9 1 -26 -5 -40 -14 -30 -57 -33 -72 -5 -14 28 -13 38 10 61 17 17 24 18 41 10 11 -6 23 -18 26 -26z m-227 12 c17 -21 9 -56 -17 -73 -19 -13 -24 -12 -42 6 -25 25 -27 44 -5 65 19 20 48 20 64 2z m-1425 -26 c3 -5 4 -14 0 -20 -8 -13 -35 -1 -35 16 0 16 26 19 35 4z m1779 -15 c3 -9 -1 -18 -10 -22 -19 -7 -28 2 -21 22 8 19 23 19 31 0z m186 -1 c21 -24 1 -69 -30 -69 -20 0 -26 6 -28 28 -6 48 31 74 58 41z m-1731 -4 c45 -24 24 -70 -31 -70 -48 0 -87 48 -61 73 10 10 72 8 92 -3z m329 -22 c5 -44 -65 -77 -96 -46 -32 32 9 81 63 76 24 -2 31 -8 33 -30z m1596 6 c8 -22 -12 -56 -32 -52 -18 3 -27 30 -18 54 7 19 42 18 50 -2z m-2329 -80 c22 -12 27 -45 8 -51 -6 -2 -20 5 -30 16 l-19 21 -53 -40 c-58 -44 -100 -55 -169 -46 -66 9 -166 45 -199 73 l-28 23 26 -9 c15 -5 50 -22 79 -37 73 -38 168 -44 232 -14 26 12 64 37 84 57 20 19 40 31 43 26 3 -4 15 -13 26 -19z m2200 -8 c20 -19 57 -44 83 -56 64 -30 159 -24 232 14 29 15 64 32 79 37 l26 9 -28 -23 c-38 -32 -142 -68 -216 -74 -48 -5 -68 -2 -103 16 -50 25 -91 59 -107 90 -16 29 -8 26 34 -13z m-501 -68 c7 -11 7 -26 0 -45 -7 -22 -16 -28 -39 -28 -27 0 -30 4 -33 33 -2 18 2 40 9 48 15 19 49 14 63 -8z m-1470 -10 c8 -13 7 -21 -1 -29 -23 -23 -74 15 -57 42 9 15 45 6 58 -13z m310 -14 c20 -20 20 -29 0 -49 -11 -11 -30 -15 -58 -13 -36 3 -41 6 -44 31 -3 21 2 29 20 36 35 15 65 13 82 -5z m1354 -25 c2 -9 -5 -24 -14 -34 -15 -14 -19 -15 -31 -2 -22 21 -8 59 20 55 12 -2 23 -10 25 -19z m172 -3 c0 -26 -24 -51 -40 -41 -11 7 -14 48 -3 58 3 4 15 7 25 7 12 0 18 -7 18 -24z m-2465 -50 c65 -17 205 -76 205 -86 0 -4 33 -32 73 -63 92 -71 214 -196 259 -267 74 -116 90 -159 96 -252 5 -84 3 -90 -31 -161 -85 -179 -187 -231 -457 -231 -167 0 -253 18 -380 81 -129 63 -321 266 -347 367 -22 84 -17 221 11 288 32 77 87 150 158 208 141 114 279 152 413 116z m3174 -15 c126 -48 257 -164 312 -277 30 -60 34 -80 37 -160 5 -133 -9 -190 -68 -266 -83 -109 -207 -221 -290 -261 -127 -63 -213 -81 -380 -81 -270 0 -372 52 -457 231 -34 71 -36 77 -31 161 6 93 22 136 96 252 45 71 167 196 260 267 39 31 72 59 72 63 0 9 134 67 200 86 61 18 182 11 249 -15z"/>
</g>
<g id="layer106" fill="#7b7a79" stroke="none">
<path d="M5595 11399 c-33 -4 -150 -13 -260 -19 -492 -28 -1011 -130 -1477 -289 -337 -114 -753 -297 -974 -426 -270 -158 -661 -441 -912 -658 -93 -80 -102 -91 -88 -106 21 -24 159 -350 236 -561 218 -593 346 -1200 400 -1890 36 -459 28 -1203 -20 -1855 -15 -195 -12 -496 5 -590 17 -94 79 -338 130 -515 76 -261 214 -608 338 -849 39 -78 89 -197 117 -280 26 -81 69 -186 96 -236 41 -78 199 -323 239 -373 7 -9 51 -64 97 -122 242 -303 632 -534 1158 -685 518 -148 1169 -172 1778 -65 128 23 466 132 637 205 402 172 732 445 872 720 14 28 52 88 83 135 88 131 159 266 191 362 15 48 58 142 94 209 233 426 411 925 524 1467 14 66 14 450 1 627 -48 647 -56 1381 -20 1835 69 882 263 1645 614 2414 l36 79 -60 58 c-33 33 -62 59 -64 59 -3 0 -60 44 -128 98 -178 143 -427 321 -558 398 -276 164 -507 288 -679 364 -186 81 -559 213 -796 280 -60 17 -165 49 -231 70 -271 86 -482 113 -1064 136 -69 2 -154 6 -190 8 -36 1 -92 -1 -125 -5z m260 -237 c436 -101 783 -372 975 -762 233 -472 179 -1049 -137 -1471 -99 -131 -240 -262 -378 -350 -53 -34 -215 -112 -287 -138 -124 -45 -332 -80 -468 -80 -136 0 -344 35 -468 80 -72 26 -234 104 -287 138 -442 282 -698 793 -655 1306 39 459 272 843 666 1097 115 74 309 150 464 182 111 23 130 24 315 21 128 -2 192 -8 260 -23z m-2444 -5242 c76 -344 215 -613 347 -671 52 -23 145 -44 230 -54 43 -5 62 -11 62 -21 0 -8 -2 -14 -5 -14 -28 0 -210 32 -231 41 -16 7 -35 13 -41 15 -62 12 -162 121 -227 245 -51 96 -149 356 -140 370 3 5 0 9 -6 9 -6 0 -8 10 -4 26 4 17 3 25 -3 21 -6 -4 -8 4 -5 20 4 19 2 24 -8 18 -9 -5 -10 -2 -5 14 4 12 2 27 -3 34 -10 13 -17 91 -13 142 3 27 4 25 13 -15 5 -25 23 -106 39 -180z m4571 115 c-3 -27 -9 -55 -14 -62 -5 -7 -7 -22 -3 -34 5 -16 4 -19 -5 -14 -10 6 -12 1 -8 -18 3 -16 1 -24 -5 -20 -6 4 -7 -4 -3 -21 4 -16 2 -26 -4 -26 -6 0 -9 -4 -6 -9 9 -14 -89 -274 -140 -370 -65 -124 -165 -233 -227 -245 -6 -2 -25 -8 -41 -15 -21 -9 -203 -41 -231 -41 -3 0 -5 6 -5 14 0 10 19 16 63 21 208 23 287 65 376 198 92 137 193 437 238 707 7 43 7 44 13 15 4 -16 5 -52 2 -80z m-3246 -273 c56 -17 135 -34 175 -37 41 -4 90 -11 109 -16 19 -4 121 -15 225 -24 105 -8 217 -22 250 -30 36 -8 110 -14 185 -14 75 0 149 6 185 14 33 8 146 22 250 30 105 9 206 20 225 24 19 5 68 12 109 16 40 3 119 21 175 38 100 32 103 32 286 30 138 -2 207 -7 270 -21 105 -23 118 -44 38 -62 -29 -7 -72 -21 -95 -31 -32 -15 -67 -19 -145 -19 -112 -1 -215 -26 -418 -103 -130 -49 -309 -102 -455 -133 -38 -9 -86 -19 -105 -24 -19 -5 -52 -12 -73 -15 -49 -8 -100 -59 -121 -122 -36 -112 -46 -218 -46 -511 0 -157 5 -315 11 -351 14 -91 68 -300 85 -333 26 -51 76 -99 130 -124 58 -27 225 -57 307 -55 26 1 47 -2 47 -7 0 -11 -88 -85 -132 -112 -106 -62 -269 -90 -528 -90 -259 0 -422 28 -528 90 -44 27 -132 101 -132 112 0 5 21 8 48 7 81 -2 248 28 306 55 54 25 104 73 130 124 17 33 71 242 85 333 6 36 11 194 11 351 0 293 -10 399 -46 511 -21 63 -72 114 -121 122 -21 3 -54 10 -73 15 -19 5 -66 15 -105 24 -146 31 -325 84 -455 133 -203 77 -306 102 -418 103 -78 0 -113 4 -145 19 -23 10 -66 24 -95 31 -157 37 80 91 373 86 102 -2 135 -7 221 -34z m-556 -436 c0 -22 -25 -37 -38 -24 -13 13 -16 41 -6 51 10 9 44 -12 44 -27z m100 3 c0 -11 -4 -17 -10 -14 -5 3 -10 13 -10 21 0 8 5 14 10 14 6 0 10 -9 10 -21z m2950 6 c13 -16 6 -65 -9 -65 -14 0 -41 29 -41 44 0 13 20 36 31 36 4 0 12 -7 19 -15z m-2802 -19 c2 -10 -1 -23 -8 -30 -14 -14 -41 19 -33 40 8 20 37 13 41 -10z m2662 -6 c0 -21 -15 -27 -25 -10 -7 12 2 30 16 30 5 0 9 -9 9 -20z m-2565 -8 c0 -18 -20 -15 -23 4 -3 10 1 15 10 12 7 -3 13 -10 13 -16z m2415 3 c18 -22 3 -57 -23 -53 -25 3 -34 32 -17 53 16 19 24 19 40 0z m-132 -32 c-5 -25 -28 -28 -28 -4 0 12 6 21 16 21 9 0 14 -7 12 -17z m-2167 -14 c9 -17 8 -25 -6 -38 -15 -15 -17 -15 -31 3 -8 11 -14 28 -14 38 0 25 37 23 51 -3z m2058 -3 c14 -16 -5 -66 -24 -66 -25 0 -39 29 -27 55 13 28 34 32 51 11z m-275 -40 c9 -13 7 -20 -7 -31 -35 -26 -66 12 -35 43 15 15 28 11 42 -12z m146 10 c0 -18 -16 -29 -30 -21 -13 8 -1 35 16 35 8 0 14 -6 14 -14z m-1823 -11 c3 -9 3 -19 -1 -22 -8 -9 -37 18 -30 28 8 14 24 11 31 -6z m190 -61 c30 -46 -21 -63 -56 -18 -15 19 -18 30 -11 39 15 18 48 7 67 -21z m-610 -68 c-4 -9 -11 -16 -17 -16 -15 0 -24 26 -16 47 6 15 8 15 23 1 9 -9 13 -24 10 -32z m113 -2 c0 -16 -16 -19 -25 -4 -8 13 4 32 16 25 5 -4 9 -13 9 -21z m-310 -7 c0 -17 -168 -128 -254 -168 -113 -53 -251 -51 -371 5 -43 20 -165 103 -165 112 0 2 24 -10 53 -27 154 -89 273 -126 362 -112 51 7 150 57 252 125 79 53 116 76 121 77 1 1 2 -5 2 -12z m3230 -82 c64 -46 178 -101 225 -108 89 -14 208 23 363 112 28 17 52 29 52 27 0 -9 -122 -92 -165 -112 -120 -56 -258 -58 -371 -5 -85 39 -254 151 -254 168 0 14 75 -28 150 -82z m-2810 64 c14 -25 6 -49 -14 -49 -19 0 -40 36 -32 56 8 21 34 17 46 -7z m2538 -44 c4 -31 -15 -50 -35 -33 -16 13 -17 40 -1 56 18 18 33 9 36 -23z m-2428 -19 c-13 -13 -35 7 -25 24 5 8 11 8 21 -1 10 -8 12 -15 4 -23z m2270 14 c0 -11 -7 -20 -15 -20 -8 0 -15 9 -15 20 0 11 7 20 15 20 8 0 15 -9 15 -20z m-122 -6 c20 -36 -15 -77 -44 -53 -15 12 -19 51 -7 62 12 13 42 7 51 -9z m-604 -20 c21 -20 20 -30 -4 -54 -24 -24 -63 -14 -68 19 -7 45 40 67 72 35z m330 -10 c7 -19 -10 -54 -27 -54 -35 0 -50 52 -20 68 20 12 39 6 47 -14z m126 12 c0 -8 -5 -18 -11 -22 -14 -8 -33 11 -25 25 10 16 36 13 36 -3z m-1840 -40 c25 -27 21 -56 -6 -56 -26 0 -54 30 -54 57 0 31 30 30 60 -1z m1516 13 c10 -17 -13 -36 -27 -22 -12 12 -4 33 11 33 5 0 12 -5 16 -11z m-2006 -29 c0 -5 -11 -17 -24 -25 -13 -9 -26 -25 -29 -37 -5 -18 -8 -19 -21 -9 -13 11 -30 7 -98 -22 -165 -71 -362 -113 -468 -102 -72 8 -270 62 -294 80 -34 25 -12 25 62 0 143 -48 225 -59 344 -46 96 10 158 25 213 50 11 6 56 22 100 37 44 15 104 40 134 56 55 29 81 35 81 18z m2761 -18 c30 -16 90 -41 134 -56 44 -15 89 -31 100 -37 55 -25 117 -40 213 -50 119 -13 201 -2 344 46 40 13 74 22 77 20 12 -12 -43 -36 -149 -66 -151 -43 -267 -44 -413 -5 -154 41 -375 135 -385 164 -6 20 21 14 79 -16z m-1780 8 c23 -13 25 -43 3 -60 -22 -19 -75 -16 -90 4 -16 22 -9 40 19 54 29 14 44 14 68 2z m-861 -35 c16 -19 3 -57 -18 -53 -22 4 -30 68 -9 68 8 0 20 -7 27 -15z m638 -22 c2 -8 -6 -13 -22 -13 -17 0 -26 5 -26 16 0 19 41 16 48 -3z m-540 -27 c3 -12 -1 -17 -10 -14 -7 3 -15 13 -16 22 -3 12 1 17 10 14 7 -3 15 -13 16 -22z m166 -51 c19 -51 -7 -78 -49 -51 -29 19 -42 60 -25 81 10 13 16 13 40 0 15 -8 30 -22 34 -30z m1931 -5 c38 -42 -18 -105 -61 -70 -21 18 -17 57 8 74 29 20 31 20 53 -4z m-347 -2 c21 -21 14 -57 -13 -70 -22 -10 -29 -9 -47 10 -19 18 -20 25 -10 47 13 27 49 34 70 13z m627 -18 c7 -23 -10 -60 -28 -60 -18 0 -37 21 -37 40 0 38 54 55 65 20z m215 6 c16 -20 9 -56 -13 -70 -14 -8 -20 -8 -27 4 -13 21 -12 54 2 68 16 16 23 15 38 -2z m-3040 -1 c0 -18 -34 -66 -69 -98 -38 -34 -61 -44 -161 -66 -95 -21 -302 2 -314 36 -7 17 3 16 114 -12 44 -11 83 -15 120 -11 30 4 69 8 85 10 71 7 195 88 195 127 0 10 7 19 15 19 8 0 15 -2 15 -5z m2707 -30 c21 -19 45 -35 53 -35 8 0 48 -23 88 -50 40 -27 90 -54 110 -61 20 -6 42 -15 47 -19 11 -7 173 -60 240 -78 22 -6 59 -15 81 -21 59 -16 287 -13 359 3 142 33 148 36 304 103 31 13 33 13 22 -1 -8 -9 -19 -16 -26 -16 -7 0 -15 -6 -18 -14 -8 -19 -203 -82 -319 -102 -154 -27 -350 -5 -544 61 -97 33 -348 160 -390 198 -18 15 -39 27 -48 27 -9 0 -16 8 -16 20 0 28 14 25 57 -15z m463 16 c0 -39 124 -120 195 -127 17 -2 55 -6 85 -10 37 -4 76 0 120 11 111 28 121 29 114 12 -8 -21 -85 -39 -184 -43 -79 -3 -118 2 -213 27 -43 11 -111 68 -133 110 -18 35 -18 39 1 39 8 0 15 -9 15 -19z m-800 -11 c0 -11 -7 -20 -15 -20 -8 0 -15 9 -15 20 0 11 7 20 15 20 8 0 15 -9 15 -20z m-1934 -29 c-34 -36 -295 -170 -400 -206 -195 -66 -390 -88 -544 -61 -116 20 -311 83 -319 102 -3 8 -11 14 -18 14 -7 0 -18 7 -26 16 -11 14 -9 14 22 1 156 -67 162 -70 304 -103 72 -16 300 -19 359 -3 22 6 59 15 81 21 67 18 229 71 240 78 6 4 28 13 50 20 60 20 93 47 88 74 -6 28 22 43 35 20 8 -14 13 -13 48 3 21 9 52 28 68 41 38 30 47 19 12 -17z m360 -12 c11 -18 -13 -34 -31 -19 -8 7 -15 16 -15 21 0 13 38 11 46 -2z m322 -17 c6 -42 -53 -66 -99 -42 -10 6 -19 19 -19 28 0 30 22 43 70 40 38 -3 45 -6 48 -26z m-632 -67 c19 -30 12 -55 -15 -55 -22 0 -41 27 -41 59 0 30 36 27 56 -4z m1841 -61 c3 -9 1 -26 -5 -40 -14 -30 -57 -33 -72 -5 -14 28 -13 38 10 61 17 17 24 18 41 10 11 -6 23 -18 26 -26z m-227 12 c17 -21 9 -56 -17 -73 -19 -13 -24 -12 -42 6 -25 25 -27 44 -5 65 19 20 48 20 64 2z m-1425 -26 c3 -5 4 -14 0 -20 -8 -13 -35 -1 -35 16 0 16 26 19 35 4z m1779 -15 c3 -9 -1 -18 -10 -22 -19 -7 -28 2 -21 22 8 19 23 19 31 0z m186 -1 c21 -24 1 -69 -30 -69 -20 0 -26 6 -28 28 -6 48 31 74 58 41z m-1731 -4 c45 -24 24 -70 -31 -70 -48 0 -87 48 -61 73 10 10 72 8 92 -3z m329 -22 c5 -44 -65 -77 -96 -46 -32 32 9 81 63 76 24 -2 31 -8 33 -30z m1596 6 c8 -22 -12 -56 -32 -52 -18 3 -27 30 -18 54 7 19 42 18 50 -2z m-2329 -80 c22 -12 27 -45 8 -51 -6 -2 -20 5 -30 16 l-19 21 -53 -40 c-58 -44 -100 -55 -169 -46 -66 9 -166 45 -199 73 l-28 23 26 -9 c15 -5 50 -22 79 -37 73 -38 168 -44 232 -14 26 12 64 37 84 57 20 19 40 31 43 26 3 -4 15 -13 26 -19z m2200 -8 c20 -19 57 -44 83 -56 64 -30 159 -24 232 14 29 15 64 32 79 37 l26 9 -28 -23 c-38 -32 -142 -68 -216 -74 -48 -5 -68 -2 -103 16 -50 25 -91 59 -107 90 -16 29 -8 26 34 -13z m-501 -68 c7 -11 7 -26 0 -45 -7 -22 -16 -28 -39 -28 -27 0 -30 4 -33 33 -2 18 2 40 9 48 15 19 49 14 63 -8z m-1470 -10 c8 -13 7 -21 -1 -29 -23 -23 -74 15 -57 42 9 15 45 6 58 -13z m310 -14 c20 -20 20 -29 0 -49 -11 -11 -30 -15 -58 -13 -36 3 -41 6 -44 31 -3 21 2 29 20 36 35 15 65 13 82 -5z m1354 -25 c2 -9 -5 -24 -14 -34 -15 -14 -19 -15 -31 -2 -22 21 -8 59 20 55 12 -2 23 -10 25 -19z m172 -3 c0 -26 -24 -51 -40 -41 -11 7 -14 48 -3 58 3 4 15 7 25 7 12 0 18 -7 18 -24z m-2465 -50 c65 -17 205 -76 205 -86 0 -4 33 -32 73 -63 92 -71 214 -196 259 -267 74 -116 90 -159 96 -252 5 -84 3 -90 -31 -161 -85 -179 -187 -231 -457 -231 -167 0 -253 18 -380 81 -129 63 -321 266 -347 367 -22 84 -17 221 11 288 32 77 87 150 158 208 141 114 279 152 413 116z m3174 -15 c126 -48 257 -164 312 -277 30 -60 34 -80 37 -160 5 -133 -9 -190 -68 -266 -83 -109 -207 -221 -290 -261 -127 -63 -213 -81 -380 -81 -270 0 -372 52 -457 231 -34 71 -36 77 -31 161 6 93 22 136 96 252 45 71 167 196 260 267 39 31 72 59 72 63 0 9 134 67 200 86 61 18 182 11 249 -15z"/>
<path d="M3931 3932 c-46 -23 -58 -44 -45 -79 8 -24 16 -28 52 -31 34 -3 47 2 67 22 29 29 31 52 9 84 -18 27 -38 28 -83 4z"/>
<path d="M3835 3684 c-46 -49 -28 -125 47 -205 62 -65 98 -89 132 -89 47 0 44 39 -13 153 -53 107 -99 167 -126 167 -9 0 -27 -12 -40 -26z"/>
<path d="M7326 3929 c-22 -33 -20 -56 9 -84 32 -33 99 -35 115 -4 24 45 -10 92 -76 105 -26 5 -35 2 -48 -17z"/>
<path d="M7420 3678 c-17 -18 -53 -78 -81 -135 -57 -114 -60 -153 -13 -153 34 0 70 24 132 89 75 80 93 156 47 205 -32 34 -50 33 -85 -6z"/>
</g>
<g id="layer107" fill="#a0a09f" stroke="none">
<path d="M5578 11395 c-2 -3 -101 -12 -219 -20 -611 -43 -1171 -155 -1579 -313 -63 -25 -144 -55 -180 -67 -196 -68 -539 -226 -717 -331 -80 -47 -245 -155 -357 -234 -258 -182 -390 -283 -553 -423 -91 -78 -102 -93 -84 -113 17 -17 162 -365 231 -554 218 -593 346 -1200 400 -1890 36 -459 28 -1203 -20 -1855 -15 -195 -12 -496 5 -590 17 -94 79 -338 130 -515 76 -261 214 -608 338 -849 39 -78 89 -197 117 -280 26 -81 69 -186 96 -236 41 -78 199 -323 239 -373 7 -9 51 -64 97 -122 241 -301 638 -537 1156 -685 191 -54 263 -69 467 -95 248 -32 488 -42 712 -31 475 25 680 63 1064 200 475 169 846 442 1026 756 25 44 76 127 113 185 94 146 153 261 184 359 15 47 57 138 93 204 231 424 409 924 522 1465 14 66 14 431 1 607 -48 652 -56 1396 -20 1855 65 832 231 1517 546 2256 52 121 94 224 94 228 0 7 -100 106 -107 106 -1 0 -57 44 -125 98 -131 105 -334 253 -433 316 -33 21 -64 45 -68 52 -4 8 -12 14 -17 14 -6 0 -102 54 -215 120 -316 185 -472 260 -775 373 -196 73 -372 131 -535 177 -60 17 -165 49 -231 70 -236 75 -416 103 -765 119 -287 13 -625 22 -631 16z m277 -233 c436 -101 783 -372 975 -762 232 -470 180 -1041 -133 -1467 -190 -257 -487 -455 -794 -528 -99 -24 -257 -44 -343 -44 -128 0 -335 34 -458 76 -26 8 -90 35 -142 60 -462 216 -762 648 -810 1166 -53 575 271 1136 801 1390 104 50 216 88 329 111 111 23 130 24 315 21 128 -2 192 -8 260 -23z m-2450 -5202 c44 -200 80 -309 151 -457 72 -150 147 -233 237 -262 62 -20 131 -34 220 -46 47 -6 61 -20 31 -32 -23 -9 -174 15 -240 37 -152 53 -259 202 -368 515 -54 155 -62 187 -76 284 -9 61 -4 170 6 136 2 -5 19 -84 39 -175z m4579 70 c-10 -90 -32 -178 -80 -315 -110 -314 -216 -462 -368 -515 -66 -22 -217 -46 -240 -37 -30 12 -16 26 32 32 88 12 157 26 219 46 161 52 298 307 390 727 30 139 39 168 45 145 5 -15 6 -53 2 -83z m-3259 -264 c49 -16 113 -29 165 -32 47 -3 101 -9 120 -14 19 -5 121 -16 225 -25 105 -8 217 -22 250 -30 37 -9 111 -14 195 -14 84 0 158 5 195 14 33 8 146 22 250 30 105 9 206 20 225 25 19 6 65 10 101 10 47 0 97 10 170 33 l104 32 195 -3 c215 -3 342 -22 348 -54 2 -13 -8 -20 -40 -28 -24 -6 -67 -20 -96 -31 -43 -17 -72 -21 -150 -20 -84 2 -113 -3 -212 -32 -63 -19 -158 -50 -210 -70 -130 -49 -311 -102 -455 -133 -38 -8 -84 -19 -101 -25 -17 -5 -40 -9 -53 -9 -46 0 -103 -45 -134 -105 -39 -78 -50 -181 -55 -495 -3 -201 0 -330 7 -380 15 -95 69 -306 87 -342 26 -51 76 -99 130 -124 54 -25 218 -54 312 -54 56 0 53 -15 -11 -66 -137 -108 -288 -144 -607 -144 -319 0 -470 36 -607 144 -64 51 -67 66 -10 66 93 0 257 29 311 54 54 25 104 73 130 124 18 36 72 247 87 342 7 50 10 179 7 380 -5 314 -16 417 -55 495 -31 60 -88 105 -134 105 -13 0 -36 4 -53 9 -17 6 -62 17 -101 25 -144 31 -325 84 -455 133 -52 20 -147 51 -210 70 -99 29 -128 34 -212 32 -78 -1 -107 3 -150 20 -29 11 -72 25 -96 31 -32 8 -42 15 -40 28 7 35 209 62 428 57 103 -2 139 -8 205 -29z m-545 -421 c17 -21 3 -57 -22 -53 -26 4 -43 30 -35 52 8 20 40 21 57 1z m106 0 c4 -8 3 -23 0 -32 -6 -15 -8 -15 -23 -1 -16 17 -12 48 7 48 6 0 13 -7 16 -15z m2948 -4 c13 -14 14 -24 7 -44 -14 -36 -27 -41 -51 -17 -24 24 -25 43 -4 64 20 21 27 20 48 -3z m-2806 -3 c17 -17 15 -58 -3 -64 -21 -8 -45 14 -45 41 0 35 24 47 48 23z m2667 -28 c0 -15 -6 -26 -16 -28 -19 -3 -31 21 -22 43 9 25 38 13 38 -15z m-2561 -3 c8 -12 7 -20 -2 -29 -16 -16 -47 13 -38 37 7 19 25 16 40 -8z m2410 7 c19 -18 20 -28 6 -55 -18 -32 -70 -18 -70 20 0 16 28 51 41 51 4 0 15 -7 23 -16z m-127 -30 c7 -19 -20 -49 -36 -40 -12 8 -15 39 -4 49 12 12 33 7 40 -9z m-2178 -8 c19 -23 10 -71 -14 -71 -23 0 -51 45 -42 68 8 21 40 22 56 3z m2069 -19 c2 -10 1 -30 -2 -43 -5 -20 -12 -25 -34 -22 -21 2 -28 9 -30 31 -2 16 2 35 9 43 16 20 53 14 57 -9z m-284 -23 c19 -19 20 -25 3 -48 -17 -23 -60 -18 -65 7 -4 18 23 57 39 57 4 0 15 -7 23 -16z m151 -8 c0 -26 -33 -46 -45 -27 -12 20 7 53 28 49 9 -2 17 -12 17 -22z m-1827 2 c19 -19 15 -48 -8 -48 -21 0 -45 34 -35 50 8 14 28 13 43 -2z m190 -61 c30 -28 25 -61 -9 -65 -26 -3 -79 39 -79 62 0 39 47 40 88 3z m-598 -77 c0 -4 -7 -13 -15 -20 -31 -26 -61 30 -32 59 10 10 15 8 30 -10 9 -11 17 -25 17 -29z m99 12 c6 -11 6 -24 1 -33 -8 -12 -11 -12 -25 2 -9 9 -13 23 -9 32 8 22 21 22 33 -1z m-307 -27 c1 -12 -108 -91 -186 -135 -141 -78 -264 -92 -395 -47 -40 14 -82 33 -94 41 -12 9 -45 32 -74 51 -85 59 -68 68 24 13 156 -92 186 -102 293 -103 110 0 132 9 309 127 98 65 121 75 123 53z m424 -10 c21 -32 10 -67 -19 -63 -12 2 -28 15 -36 30 -13 22 -13 29 -2 42 19 23 38 20 57 -9z m2776 -44 c176 -117 198 -126 308 -126 107 1 137 11 293 103 92 55 109 46 24 -13 -29 -19 -62 -42 -74 -51 -12 -8 -54 -27 -94 -41 -155 -54 -317 -19 -489 105 -19 14 -50 36 -68 50 -29 21 -35 42 -12 42 5 0 55 -31 112 -69z m-239 17 c13 -19 2 -64 -18 -72 -9 -3 -21 4 -31 19 -15 23 -15 27 0 51 18 27 33 28 49 2z m-2425 -31 c2 -19 -1 -27 -12 -27 -18 0 -40 36 -31 51 13 19 40 4 43 -24z m2267 3 c0 -29 -32 -41 -41 -16 -9 24 4 48 23 44 12 -2 18 -12 18 -28z m-120 -24 c0 -67 -65 -78 -73 -12 -4 36 15 58 47 54 23 -3 26 -8 26 -42z m-599 -1 c15 -23 15 -27 0 -50 -29 -44 -96 -29 -96 21 0 53 67 73 96 29z m451 9 c7 -19 -20 -49 -36 -40 -12 8 -15 39 -4 49 12 12 33 7 40 -9z m-129 -11 c12 -22 -1 -58 -23 -67 -40 -15 -74 41 -43 72 18 18 56 15 66 -5z m-1713 -28 c45 -44 23 -101 -28 -73 -31 16 -46 39 -47 71 0 22 4 27 25 27 14 0 37 -11 50 -25z m1514 12 c8 -10 7 -19 -4 -33 -13 -18 -15 -18 -31 -2 -14 14 -15 20 -4 32 15 19 24 20 39 3z m-1999 -37 c0 -5 -11 -17 -25 -26 -14 -9 -25 -22 -25 -28 0 -23 -21 -35 -40 -24 -13 9 -37 3 -106 -25 -150 -59 -310 -97 -414 -97 -94 0 -298 57 -345 95 l-30 25 50 -16 c48 -15 117 -34 200 -56 89 -23 305 -1 396 40 24 11 62 25 84 31 22 6 76 29 120 51 77 38 135 51 135 30z m975 -2 c25 -11 33 -40 17 -65 -16 -25 -61 -34 -97 -18 -39 16 -46 42 -17 67 32 29 59 33 97 16z m1826 -32 c52 -24 107 -46 124 -50 16 -4 49 -17 74 -28 90 -41 306 -63 396 -40 83 22 152 41 200 56 l50 16 -30 -25 c-47 -38 -251 -95 -345 -95 -110 0 -265 38 -435 106 -120 48 -175 78 -175 94 0 21 50 9 141 -34z m-2679 -12 c14 -31 1 -59 -28 -59 -21 0 -41 43 -31 69 10 25 46 19 59 -10z m622 0 c9 -3 16 -15 16 -25 0 -24 -51 -27 -70 -4 -22 27 12 45 54 29z m-536 -26 c17 -17 15 -48 -3 -48 -17 0 -39 36 -30 50 8 13 18 13 33 -2z m150 -43 c51 -42 50 -105 0 -105 -27 0 -78 54 -78 82 0 26 17 48 36 48 7 0 26 -11 42 -25z m1952 -25 c27 -27 25 -56 -4 -85 -36 -36 -86 -12 -86 42 0 26 32 63 55 63 8 0 24 -9 35 -20z m-346 -6 c37 -37 1 -103 -49 -90 -14 4 -31 17 -37 31 -23 52 46 100 86 59z m618 -1 c24 -21 23 -44 -3 -77 -11 -14 -17 -26 -12 -26 5 0 35 -18 68 -40 33 -22 66 -40 74 -40 7 0 41 -13 75 -29 33 -16 93 -38 131 -49 187 -55 195 -57 355 -56 170 0 203 7 399 83 124 47 121 47 82 12 -37 -32 -124 -68 -253 -103 -68 -18 -110 -22 -233 -22 -167 -1 -234 11 -409 71 -101 34 -354 159 -391 193 -11 10 -29 20 -40 22 -24 4 -33 46 -11 54 9 3 29 -8 51 -30 42 -42 54 -45 48 -12 -3 16 2 31 16 45 25 25 29 26 53 4z m226 -5 c30 -30 -5 -109 -42 -95 -24 10 -30 54 -12 82 18 27 35 32 54 13z m-3052 -13 c8 -19 -39 -89 -77 -116 -41 -29 -171 -59 -258 -59 -80 0 -170 19 -222 46 -41 21 -34 24 26 12 176 -33 189 -34 277 -22 60 8 102 20 132 38 48 28 96 79 96 102 0 19 19 18 26 -1z m3174 1 c0 -23 48 -74 96 -102 30 -18 72 -30 132 -38 88 -12 101 -11 277 22 60 12 67 9 26 -12 -52 -27 -142 -46 -222 -46 -87 0 -217 30 -258 59 -38 27 -85 97 -77 116 7 19 26 20 26 1z m-795 -26 c0 -29 -32 -41 -41 -16 -9 24 4 48 23 44 12 -2 18 -12 18 -28z m-1914 -8 c-16 -31 -43 -49 -181 -120 -140 -73 -281 -127 -416 -158 -119 -28 -351 -26 -462 4 -129 35 -216 71 -253 103 -39 35 -42 35 82 -12 196 -76 229 -83 399 -83 160 -1 168 1 355 56 39 11 98 33 131 49 34 16 67 29 75 29 24 0 79 44 74 61 -3 8 1 24 9 34 14 19 15 19 34 2 19 -18 21 -18 59 2 21 10 47 26 58 35 28 22 48 21 36 -2z m667 -25 c34 -27 -15 -87 -72 -87 -60 0 -98 50 -61 80 32 26 103 30 133 7z m-324 -6 c35 -39 -17 -58 -54 -21 -12 12 -18 25 -15 30 10 17 51 11 69 -9z m-315 -77 c25 -31 27 -57 6 -74 -32 -26 -88 41 -71 85 9 23 42 18 65 -11z m1831 -44 c37 -37 14 -100 -36 -100 -48 0 -66 67 -28 105 21 20 40 19 64 -5z m-218 -7 c24 -21 23 -58 -2 -83 -24 -24 -43 -25 -64 -5 -25 25 -29 54 -12 80 19 29 51 32 78 8z m-1417 -48 c0 -27 -21 -29 -45 -5 -17 17 -19 24 -9 36 10 12 15 13 33 1 12 -8 21 -23 21 -32z m243 -1 c47 -30 16 -84 -49 -84 -45 0 -93 37 -87 67 8 41 83 50 136 17z m1530 -2 c2 -13 -3 -25 -13 -28 -23 -9 -38 10 -30 36 9 27 39 22 43 -8z m194 2 c18 -38 -7 -79 -47 -79 -27 0 -30 4 -33 33 -6 63 56 98 80 46z m-1402 -3 c32 -60 -85 -125 -124 -70 -28 41 13 87 81 88 22 1 36 -5 43 -18z m1588 -8 c19 -36 -17 -80 -53 -67 -18 7 -20 55 -3 72 17 17 46 15 56 -5z m-2303 -124 c0 -31 -28 -36 -53 -11 -20 20 -20 20 -74 -16 -43 -30 -64 -37 -115 -40 -82 -6 -190 27 -263 79 -51 36 -62 52 -22 29 9 -5 51 -25 93 -45 65 -30 87 -35 149 -35 84 0 117 13 178 71 l44 40 31 -24 c20 -15 32 -33 32 -48z m2189 22 c44 -46 85 -61 166 -61 62 0 84 5 149 35 42 20 84 40 93 45 40 23 29 7 -22 -29 -73 -52 -181 -85 -263 -79 -50 3 -72 11 -113 38 -28 19 -58 46 -67 61 -29 51 4 45 57 -10z m-510 -64 c19 -54 -39 -110 -80 -77 -19 17 -18 75 2 95 25 25 67 15 78 -18z m-1475 2 c24 -23 24 -37 -1 -53 -20 -12 -65 6 -74 29 -8 19 13 45 35 45 10 0 27 -9 40 -21z m306 -11 c55 -25 19 -88 -51 -88 -71 0 -101 55 -46 84 33 18 63 20 97 4z m1356 -25 c2 -33 -2 -48 -18 -60 -31 -24 -59 9 -43 52 12 30 59 36 61 8z m177 -14 c4 -34 -31 -67 -53 -49 -18 15 -19 34 -4 61 15 29 53 21 57 -12z m-2442 -60 c76 -24 184 -75 184 -87 0 -5 21 -24 48 -43 79 -56 220 -199 266 -268 81 -122 98 -167 104 -263 5 -84 3 -90 -31 -161 -85 -179 -187 -231 -457 -231 -167 0 -253 18 -380 81 -120 58 -326 271 -348 358 -45 178 -10 322 110 450 150 161 327 218 504 164z m3131 -1 c132 -49 273 -170 327 -280 46 -94 55 -213 24 -333 -22 -87 -228 -300 -348 -358 -127 -63 -213 -81 -380 -81 -270 0 -372 52 -457 231 -34 71 -36 77 -31 161 6 96 23 141 104 263 46 69 187 212 267 268 26 19 47 38 47 43 0 12 96 58 175 84 93 31 194 32 272 2z"/>
<path d="M3946 3940 c-58 -18 -79 -56 -56 -101 13 -24 75 -26 108 -3 36 25 26 116 -12 113 -6 0 -24 -5 -40 -9z"/>
<path d="M3848 3699 c-10 -5 -18 -16 -18 -24 0 -7 -5 -15 -11 -17 -8 -3 -7 -21 1 -66 12 -58 17 -66 81 -127 77 -72 114 -89 136 -60 15 22 17 47 4 60 -5 6 -31 52 -57 103 -26 51 -60 104 -76 117 -33 28 -36 29 -60 14z"/>
<path d="M7332 3938 c-6 -6 -12 -29 -12 -49 0 -46 27 -69 82 -69 41 0 62 23 56 62 -6 41 -99 83 -126 56z"/>
<path d="M7432 3685 c-16 -13 -50 -66 -76 -117 -26 -51 -52 -97 -57 -103 -13 -13 -11 -38 4 -60 22 -29 59 -12 136 60 64 61 69 69 81 127 8 45 9 63 1 66 -6 2 -11 10 -11 17 0 12 -29 35 -44 35 -2 0 -18 -11 -34 -25z"/>
</g>
<g id="layer108" fill="#f5f5f5" stroke="none">
<path d="M5578 11395 c-2 -3 -101 -12 -219 -20 -611 -43 -1171 -155 -1579 -313 -63 -25 -144 -55 -180 -67 -196 -68 -539 -226 -717 -331 -80 -47 -245 -155 -357 -234 -319 -225 -646 -485 -646 -513 0 -6 6 -18 14 -26 22 -24 160 -352 236 -561 218 -593 346 -1200 400 -1890 36 -454 28 -1188 -20 -1835 -15 -196 -12 -516 5 -610 17 -93 78 -338 129 -511 76 -259 191 -553 326 -829 43 -89 96 -217 119 -289 48 -151 113 -280 230 -455 181 -271 302 -409 473 -541 224 -174 495 -305 846 -411 318 -96 554 -129 972 -136 557 -10 933 51 1375 222 472 183 796 436 980 765 27 47 70 118 97 157 73 110 154 267 187 368 16 50 53 133 82 185 222 406 406 922 518 1458 14 66 14 460 1 637 -47 644 -56 1375 -20 1825 54 691 182 1297 400 1890 68 187 210 527 236 567 8 12 14 27 14 34 0 9 -98 109 -107 109 -1 0 -57 44 -125 98 -129 104 -330 250 -435 317 -35 22 -63 43 -63 46 0 4 -24 19 -52 34 -29 15 -127 71 -218 125 -370 219 -738 374 -1215 511 -77 22 -201 60 -275 84 -251 80 -427 108 -786 124 -290 13 -620 22 -626 16z m223 -221 c214 -40 398 -114 554 -223 318 -222 516 -523 597 -906 29 -139 29 -396 0 -540 -59 -287 -182 -516 -392 -726 -205 -206 -416 -321 -710 -390 -81 -19 -124 -22 -290 -22 -166 0 -209 3 -290 22 -294 68 -504 184 -710 391 -209 208 -332 436 -391 725 -30 144 -30 401 -1 540 81 383 280 685 597 906 152 106 318 175 530 219 119 24 386 27 506 4z m-2391 -5224 c78 -362 206 -621 343 -692 22 -10 40 -18 42 -16 2 2 -1 24 -7 49 -20 86 11 157 80 186 19 8 73 17 121 19 47 3 101 11 120 16 58 18 242 10 317 -13 36 -11 118 -29 182 -40 65 -11 151 -28 193 -39 95 -24 349 -113 380 -133 13 -8 54 -24 90 -36 87 -28 169 -79 191 -117 46 -79 77 -370 59 -559 -22 -241 -89 -411 -197 -499 -133 -109 -232 -125 -443 -72 -100 25 -126 37 -200 87 -47 32 -128 96 -180 142 -89 79 -97 85 -141 86 -70 1 -179 38 -232 79 -26 20 -46 37 -44 39 2 2 49 -17 105 -42 71 -33 111 -45 135 -43 l35 3 -80 83 -80 83 -94 -31 c-186 -59 -399 -77 -550 -45 -122 26 -277 83 -315 117 -40 35 -32 34 75 -7 66 -26 152 -53 240 -77 57 -15 299 -15 365 1 30 7 89 23 130 36 41 12 87 25 103 29 l27 6 -17 32 c-27 46 -36 60 -60 95 l-23 31 -38 -38 c-49 -49 -118 -71 -249 -77 -113 -6 -219 13 -263 48 l-25 19 45 -6 c25 -3 59 -11 75 -17 17 -7 80 -12 146 -12 109 1 119 2 180 32 81 40 118 77 102 101 -13 21 -31 20 -158 -8 -127 -28 -241 -23 -370 15 -79 23 -174 70 -163 80 2 2 55 -12 118 -31 63 -19 149 -37 190 -40 84 -7 224 8 295 32 50 17 51 21 26 86 -18 48 -33 51 -103 18 -156 -73 -312 -57 -467 47 -125 85 -140 117 -21 47 212 -126 319 -142 464 -70 l75 37 -17 28 c-56 94 -84 146 -92 166 -5 14 -27 32 -54 44 -66 29 -110 65 -163 135 -131 173 -285 637 -258 774 l8 37 8 -30 c4 -16 22 -95 39 -175z m4571 51 c-22 -181 -156 -528 -254 -657 -53 -70 -97 -106 -163 -135 -27 -12 -49 -30 -54 -44 -8 -20 -36 -72 -92 -166 l-17 -28 75 -37 c145 -72 252 -56 464 70 119 70 104 38 -21 -47 -155 -104 -311 -120 -467 -47 -70 33 -85 30 -103 -18 -25 -65 -24 -69 26 -86 71 -24 211 -39 295 -32 41 3 127 21 190 40 63 19 116 33 118 31 11 -10 -84 -57 -163 -80 -129 -38 -243 -43 -370 -15 -127 28 -145 29 -158 8 -16 -24 21 -61 102 -101 61 -30 71 -31 180 -32 66 0 129 5 146 12 17 6 50 14 75 17 l45 6 -25 -19 c-44 -35 -150 -54 -263 -48 -131 6 -200 28 -249 77 l-38 38 -23 -31 c-24 -35 -33 -49 -60 -95 l-17 -32 27 -6 c16 -4 62 -17 103 -29 41 -13 100 -29 130 -36 66 -16 308 -16 365 -1 88 24 174 51 240 77 107 41 115 42 75 7 -38 -34 -193 -91 -315 -117 -151 -32 -364 -14 -550 45 l-94 31 -80 -83 -80 -83 35 -3 c24 -2 64 10 135 43 56 25 103 44 105 42 2 -2 -18 -19 -44 -39 -53 -41 -162 -78 -232 -79 -44 -1 -52 -7 -141 -86 -52 -46 -133 -110 -180 -142 -74 -50 -100 -62 -200 -87 -211 -53 -310 -37 -443 72 -108 88 -175 258 -197 499 -18 189 13 480 59 559 22 38 104 89 191 117 36 12 77 28 90 36 31 20 285 109 380 133 42 11 128 28 193 39 64 11 146 29 182 40 75 23 259 31 317 13 19 -5 73 -13 120 -16 48 -2 102 -11 121 -19 69 -29 100 -100 80 -186 -6 -25 -9 -47 -7 -49 2 -2 20 6 42 16 155 81 295 396 378 857 l8 40 10 -29 c7 -20 6 -59 -2 -125z m-2133 28 c182 -20 367 -72 464 -131 49 -30 135 -114 143 -138 9 -29 54 -26 176 13 101 31 108 32 272 31 136 -2 185 -6 260 -24 141 -35 147 -47 34 -81 -40 -11 -78 -26 -85 -32 -8 -6 -73 -14 -145 -18 -140 -7 -209 -24 -417 -102 -88 -33 -230 -78 -340 -106 -133 -35 -136 -36 -269 -60 -89 -17 -120 -58 -151 -199 -17 -76 -20 -129 -20 -406 0 -341 4 -380 53 -575 39 -156 68 -204 149 -244 54 -28 166 -50 311 -64 36 -3 57 -9 57 -17 0 -21 -145 -123 -207 -146 -127 -48 -183 -54 -453 -54 -270 0 -326 6 -453 54 -62 23 -207 125 -207 146 0 8 21 14 58 17 144 14 256 36 310 64 81 40 110 88 149 244 49 195 53 234 53 575 0 277 -3 330 -20 406 -31 141 -62 182 -151 199 -133 24 -136 25 -269 60 -110 28 -252 73 -340 106 -208 78 -277 95 -417 102 -72 4 -137 12 -145 18 -7 6 -45 21 -85 32 -113 34 -107 48 34 81 72 17 128 22 255 23 159 2 166 1 281 -33 116 -34 119 -34 130 -15 6 11 33 43 60 72 146 154 553 243 925 202z m-1548 -1809 c47 -18 96 -45 110 -59 14 -15 54 -49 90 -78 87 -69 199 -186 242 -253 74 -116 90 -159 96 -252 5 -84 3 -90 -31 -161 -85 -179 -187 -231 -457 -231 -167 0 -252 18 -380 81 -61 29 -96 57 -186 147 -61 61 -123 129 -137 151 -32 50 -52 173 -42 262 17 160 163 330 351 409 52 22 70 24 159 21 85 -3 113 -9 185 -37z m3074 20 c185 -70 344 -250 361 -413 10 -89 -10 -212 -42 -262 -14 -22 -76 -90 -137 -151 -90 -90 -125 -118 -186 -147 -128 -63 -213 -81 -380 -81 -270 0 -372 52 -457 231 -34 71 -36 77 -31 161 4 69 11 99 33 142 70 139 163 249 305 363 41 33 79 66 83 73 11 19 71 48 159 78 96 33 213 35 292 6z"/>
<path d="M3940 3933 c-45 -17 -67 -76 -37 -101 17 -14 77 -5 100 15 20 18 23 63 5 81 -12 12 -42 15 -68 5z"/>
<path d="M3848 3685 c-7 -9 -18 -21 -24 -27 -7 -9 -7 -27 0 -64 22 -106 200 -248 214 -171 5 23 -79 192 -118 240 -34 40 -52 46 -72 22z"/>
<path d="M7333 3929 c-19 -19 -16 -63 5 -82 22 -20 82 -29 99 -15 19 16 16 62 -6 82 -25 22 -82 31 -98 15z"/>
<path d="M7420 3663 c-39 -48 -123 -217 -118 -240 9 -48 81 -15 163 75 44 49 72 137 51 160 -6 6 -17 18 -24 27 -20 24 -38 18 -72 -22z"/>
</g>


</svg>