<!DOCTYPE svg PUBLIC "-//W3C//DTD SVG 20010904//EN" "http://www.w3.org/TR/2001/REC-SVG-20010904/DTD/svg10.dtd">
<svg version="1.0" xmlns="http://www.w3.org/2000/svg" width="913px" height="698px" viewBox="0 0 9130 6980" preserveAspectRatio="xMidYMid meet">
<g id="layer101" fill="#743c3c" stroke="none">
 <path d="M4440 6618 c-310 -539 -518 -897 -556 -958 l-34 -55 112 -3 c61 -1 117 -1 123 2 6 2 135 218 286 480 151 261 276 476 279 476 3 0 79 -129 170 -287 91 -158 179 -308 196 -333 16 -25 63 -103 104 -175 198 -350 285 -502 302 -527 l19 -28 800 0 c439 0 799 -2 799 -4 0 -2 -123 -217 -273 -477 -151 -261 -279 -484 -286 -497 -11 -21 -6 -34 45 -123 46 -81 59 -98 69 -87 7 7 108 180 225 383 117 204 293 508 392 676 98 169 178 310 178 313 0 3 -411 6 -913 6 l-913 0 -453 785 c-250 432 -457 785 -461 785 -4 0 -99 -159 -210 -352z"/>
 <path d="M1913 5393 c3 -5 55 -96 118 -203 62 -107 166 -287 232 -400 360 -619 548 -951 552 -968 2 -13 -68 -144 -189 -354 -327 -564 -521 -899 -573 -987 l-50 -84 -683 -183 c-376 -101 -686 -187 -690 -191 -19 -20 -467 -1759 -456 -1770 1 -2 92 201 201 450 109 248 202 456 207 462 13 14 249 -107 572 -294 153 -89 280 -160 282 -158 13 13 -575 622 -704 729 l-43 36 50 188 c28 103 54 191 58 195 5 3 181 53 393 109 212 57 466 125 565 151 99 27 184 49 190 49 5 -1 138 -201 294 -446 156 -244 285 -443 288 -441 9 10 -81 238 -202 512 -180 406 -178 402 -171 422 19 50 260 453 266 446 4 -4 15 -41 25 -82 10 -41 36 -115 57 -165 75 -176 70 -193 65 199 l-4 349 185 321 c102 176 216 372 252 435 165 284 711 1228 779 1347 l76 132 678 1 c372 0 677 3 677 8 -1 4 -25 48 -54 97 l-52 90 -685 2 -684 3 -69 -123 c-38 -67 -109 -194 -159 -282 -49 -88 -101 -176 -116 -195 -14 -19 -121 -199 -237 -400 -116 -201 -215 -364 -219 -363 -12 2 -683 1167 -678 1176 2 4 262 7 576 7 l572 0 45 81 c25 45 47 85 48 90 2 5 -324 9 -793 9 -438 0 -794 -3 -792 -7z"/>
 <path d="M5596 4943 c21 -38 77 -135 126 -216 48 -82 98 -167 109 -190 12 -23 109 -194 216 -380 107 -186 193 -343 190 -350 -3 -7 -122 -216 -266 -465 l-261 -453 56 -100 c31 -54 59 -99 63 -99 3 1 98 162 211 360 297 522 321 562 325 558 2 -2 85 -145 185 -317 l181 -314 -6 -181 c-9 -216 -8 -161 -6 -351 l2 -160 25 60 c15 33 37 85 51 115 14 30 35 93 46 140 11 47 23 88 26 92 4 4 66 -96 140 -223 100 -175 131 -237 127 -254 -3 -13 -71 -169 -150 -347 -136 -307 -205 -476 -220 -543 -9 -39 -26 -65 264 390 134 209 258 403 276 432 l33 51 93 -25 c388 -103 1062 -284 1064 -286 1 -1 25 -88 53 -192 l51 -190 -72 -64 c-154 -135 -596 -595 -661 -686 l-22 -30 25 16 c157 100 808 459 833 459 2 0 96 -209 208 -464 112 -255 205 -463 206 -462 6 6 -243 999 -344 1375 l-109 404 -555 149 c-305 82 -615 165 -689 184 -74 20 -136 39 -138 42 -2 8 -168 291 -320 547 -52 88 -102 169 -112 180 -9 11 -255 433 -546 938 l-528 917 -109 0 -109 0 38 -67z"/>
 <path d="M1910 3822 c0 -650 2 -1182 4 -1182 2 0 49 79 105 175 l101 174 0 827 0 827 -101 176 c-56 97 -103 178 -105 180 -2 2 -4 -527 -4 -1177z"/>
 <path d="M7283 4811 l-103 -178 0 -817 0 -817 103 -178 102 -178 3 589 c1 324 1 852 0 1173 l-3 584 -102 -178z"/>
 <path d="M4340 4514 c-167 -28 -189 -49 -52 -49 98 0 129 -12 186 -71 40 -42 71 -115 86 -206 6 -40 10 -403 10 -973 0 -500 3 -927 6 -947 l7 -38 373 -2 373 -3 -225 -390 c-124 -214 -257 -446 -294 -515 -37 -69 -113 -203 -168 -298 l-101 -172 52 -90 c28 -50 54 -90 57 -90 3 0 185 312 404 692 406 704 450 779 580 994 l73 120 -56 97 c-31 53 -58 97 -61 97 -3 0 -37 -55 -75 -123 l-70 -122 -255 -3 c-293 -4 -370 2 -402 28 l-23 18 -6 839 c-4 532 -10 859 -17 896 -26 138 -115 257 -219 291 -52 17 -143 27 -183 20z"/>
 <path d="M3116 3515 l-57 -97 257 -447 c214 -371 469 -815 529 -921 139 -245 571 -989 575 -990 11 0 117 199 110 207 -11 11 -537 924 -545 946 -7 16 6 17 189 17 l196 0 0 101 0 101 -256 -3 -255 -4 -335 580 c-185 319 -339 586 -343 594 -5 9 -26 -18 -65 -84z"/>
 </g>
<g id="layer102" fill="#b92c2c" stroke="none">
 <path d="M1933 5358 c473 -808 885 -1532 882 -1550 -4 -19 -572 -1009 -736 -1283 l-78 -129 -682 -183 c-376 -101 -686 -186 -690 -190 -18 -21 -465 -1760 -455 -1770 1 -2 92 201 201 450 109 248 202 456 207 462 12 14 257 -111 558 -285 140 -81 266 -153 280 -160 l25 -13 -26 29 c-236 266 -567 607 -687 706 l-43 36 50 188 c27 103 54 190 58 195 10 10 1151 314 1156 308 2 -2 131 -203 287 -447 155 -243 284 -441 287 -439 9 10 -81 239 -202 512 -177 399 -175 396 -175 410 0 16 255 458 267 462 4 2 16 -33 26 -76 10 -44 36 -121 58 -173 76 -178 71 -195 66 196 l-5 349 186 321 c102 177 216 373 252 436 165 284 711 1228 779 1347 l76 132 678 1 c372 0 677 3 677 8 -1 4 -25 48 -54 97 l-52 90 -685 2 -684 3 -69 -123 c-38 -67 -109 -194 -159 -282 -49 -88 -101 -176 -116 -195 -14 -19 -121 -199 -237 -400 -116 -201 -215 -363 -220 -362 -8 4 -684 1167 -684 1178 0 2 260 4 578 4 l577 0 45 81 c25 45 47 85 48 90 2 5 -324 9 -793 9 l-797 0 25 -42z"/>
 <path d="M5596 4943 c21 -38 77 -135 126 -216 48 -82 98 -167 109 -190 12 -23 109 -194 216 -380 107 -186 193 -343 190 -350 -3 -7 -122 -216 -266 -465 l-261 -453 56 -100 c31 -54 59 -99 63 -99 3 1 98 162 211 360 297 522 321 562 325 558 2 -2 85 -143 183 -315 l180 -311 -5 -348 -4 -349 55 127 c31 70 63 160 72 200 9 40 19 76 23 80 4 4 67 -96 140 -223 102 -177 132 -235 127 -254 -3 -13 -71 -169 -150 -347 -137 -309 -205 -478 -220 -543 l-7 -30 20 30 c11 17 141 219 289 450 223 348 273 419 290 417 28 -4 1134 -301 1139 -305 2 -2 26 -89 54 -193 l49 -189 -72 -64 c-147 -128 -629 -631 -661 -688 -11 -19 -25 -26 293 157 206 119 526 290 543 290 2 0 96 -209 208 -464 112 -255 205 -463 207 -462 5 6 -188 775 -316 1258 l-137 518 -30 9 c-16 6 -327 89 -690 186 -363 97 -661 180 -663 184 -1 4 -50 88 -109 187 -58 98 -151 256 -206 349 -55 94 -108 179 -117 190 -9 11 -255 433 -546 938 l-528 917 -109 0 -109 0 38 -67z"/>
 <path d="M7285 4817 l-100 -172 0 -830 0 -830 100 -171 100 -171 3 589 c1 324 1 852 0 1173 l-3 583 -100 -171z"/>
 <path d="M3116 3515 l-57 -97 257 -447 c214 -371 469 -815 529 -921 138 -243 571 -989 575 -990 6 0 110 183 110 194 0 5 -121 218 -269 475 -149 256 -273 474 -276 484 -7 16 6 17 189 17 l196 0 0 101 0 101 -256 -3 -255 -4 -335 580 c-185 319 -339 586 -343 594 -5 9 -26 -18 -65 -84z"/>
 </g>

</svg>