<!DOCTYPE svg PUBLIC "-//W3C//DTD SVG 20010904//EN" "http://www.w3.org/TR/2001/REC-SVG-20010904/DTD/svg10.dtd">
<svg version="1.0" xmlns="http://www.w3.org/2000/svg" width="939px" height="814px" viewBox="0 0 9390 8140" preserveAspectRatio="xMidYMid meet">
<g id="layer101" fill="#743c3c" stroke="none">
 <path d="M1176 6104 c-927 -1608 -1167 -2029 -1160 -2044 5 -11 531 -924 1169 -2029 l1160 -2010 913 -1 912 0 0 130 0 130 -831 2 -831 3 -1080 1870 c-594 1029 -1086 1882 -1093 1896 -13 25 25 93 1080 1920 l1093 1894 2186 3 2186 2 33 -52 c50 -79 2159 -3736 2159 -3743 0 -3 -269 -472 -598 -1042 -330 -570 -602 -1044 -606 -1054 -6 -15 12 -29 98 -79 58 -34 112 -60 121 -58 19 4 1292 2204 1292 2233 0 11 -523 927 -1163 2035 l-1164 2015 -2354 2 -2353 2 -1169 -2025z"/>
 <path d="M3691 6620 c-97 -14 -207 -38 -297 -65 -81 -25 -81 -25 -76 -56 4 -29 7 -31 36 -24 77 16 218 25 291 20 447 -35 689 -305 770 -856 34 -240 36 -424 33 -3047 l-3 -2582 1301 0 c1231 0 1302 1 1306 18 3 9 206 365 451 790 246 425 447 775 447 777 0 8 -212 126 -221 123 -6 -2 -196 -325 -423 -718 l-413 -715 -829 0 c-634 0 -839 3 -870 12 -88 27 -130 73 -162 175 -15 48 -17 281 -22 2473 -7 2414 -8 2485 -41 2715 -39 276 -146 499 -323 676 -132 131 -281 217 -464 265 -60 16 -115 22 -252 24 -96 2 -204 0 -239 -5z"/>
 </g>
<g id="layer102" fill="#b92c2c" stroke="none">
 <path d="M2296 8038 c-403 -688 -2286 -3964 -2282 -3972 2 -6 528 -918 1169 -2026 l1164 -2015 911 -3 912 -2 0 130 0 130 -832 2 -832 3 -1090 1885 c-599 1037 -1089 1894 -1089 1905 0 11 490 868 1089 1905 l1089 1885 2191 3 2191 2 1093 -1892 c601 -1041 1093 -1897 1093 -1903 0 -5 -269 -476 -598 -1045 -329 -569 -600 -1044 -602 -1055 -3 -16 15 -31 96 -77 55 -32 106 -58 113 -58 16 0 -42 -99 687 1164 337 583 611 1067 609 1076 -2 10 -527 925 -1167 2034 l-1165 2016 -2348 0 -2347 0 -55 -92z"/>
 </g>

</svg>