<!DOCTYPE svg PUBLIC "-//W3C//DTD SVG 20010904//EN" "http://www.w3.org/TR/2001/REC-SVG-20010904/DTD/svg10.dtd">
<svg version="1.0" xmlns="http://www.w3.org/2000/svg" width="1000px" height="999px" viewBox="0 0 10000 9990" preserveAspectRatio="xMidYMid meet">
<g id="layer101" fill="#232222" stroke="none">
 <path d="M4702 9969 c-161 -10 -511 -52 -648 -78 -812 -157 -1602 -532 -2233 -1060 -280 -234 -483 -440 -732 -746 -201 -247 -437 -622 -586 -934 -73 -153 -174 -394 -203 -485 -10 -34 -33 -100 -49 -147 -72 -203 -171 -648 -196 -884 -3 -27 -10 -86 -15 -130 -21 -175 -32 -457 -26 -635 28 -789 205 -1484 547 -2150 418 -811 1037 -1485 1801 -1961 404 -251 885 -463 1306 -575 234 -62 293 -75 442 -100 650 -109 1130 -109 1780 0 330 55 731 175 1065 319 793 341 1471 866 1992 1542 201 261 335 472 489 770 253 491 417 998 493 1530 55 384 71 683 52 995 -12 193 -47 501 -77 675 -21 124 -117 498 -155 604 -17 47 -37 109 -46 136 -27 88 -112 295 -190 460 -384 819 -1010 1540 -1771 2042 -475 312 -977 533 -1528 671 -246 62 -318 75 -570 107 -344 42 -631 53 -942 34z"/>
 </g>
<g id="layer102" fill="#c03232" stroke="none">
 <path d="M4702 9969 c-161 -10 -511 -52 -648 -78 -812 -157 -1602 -532 -2233 -1060 -280 -234 -483 -440 -732 -746 -201 -247 -437 -622 -586 -934 -73 -153 -174 -394 -203 -485 -10 -34 -33 -100 -49 -147 -72 -203 -171 -648 -196 -884 -3 -27 -10 -86 -15 -130 -21 -175 -32 -457 -26 -635 28 -789 205 -1484 547 -2150 418 -811 1037 -1485 1801 -1961 404 -251 885 -463 1306 -575 234 -62 293 -75 442 -100 650 -109 1130 -109 1780 0 330 55 731 175 1065 319 793 341 1471 866 1992 1542 201 261 335 472 489 770 253 491 417 998 493 1530 55 384 71 683 52 995 -12 193 -47 501 -77 675 -21 124 -117 498 -155 604 -17 47 -37 109 -46 136 -27 88 -112 295 -190 460 -384 819 -1010 1540 -1771 2042 -475 312 -977 533 -1528 671 -246 62 -318 75 -570 107 -344 42 -631 53 -942 34z m388 -1520 c36 -62 67 -117 69 -123 5 -13 328 -569 402 -692 27 -45 49 -84 49 -87 0 -3 22 -43 48 -89 164 -281 196 -334 206 -340 6 -4 386 -8 844 -8 l834 0 -24 -42 c-31 -54 -133 -228 -283 -483 -65 -110 -127 -218 -139 -241 -43 -83 -291 -504 -297 -504 -8 0 -97 155 -101 174 -2 7 17 49 41 92 52 93 304 529 403 697 39 65 67 124 64 132 -5 13 -106 15 -738 15 l-733 1 -34 56 c-19 32 -45 76 -57 100 -13 23 -44 80 -70 125 -139 244 -181 318 -215 368 -20 30 -55 90 -78 132 -22 42 -51 92 -63 112 -13 19 -60 100 -106 180 -46 80 -89 146 -95 146 -7 0 -32 -37 -56 -83 -54 -100 -439 -759 -450 -770 -4 -4 -56 -6 -115 -5 l-107 3 37 60 c67 109 260 439 301 515 23 41 109 191 192 334 83 142 151 261 151 264 0 8 44 72 50 72 3 0 34 -50 70 -111z m-1142 -1354 c1 -1 -14 -34 -35 -74 l-38 -71 -524 -2 c-342 -2 -526 -7 -528 -13 -2 -6 40 -84 92 -173 52 -90 95 -165 95 -167 0 -2 14 -28 31 -57 18 -29 56 -96 87 -148 57 -100 157 -271 249 -427 30 -51 61 -93 68 -93 12 0 49 62 212 348 36 64 81 140 98 167 18 28 46 78 64 112 17 34 35 64 41 68 9 6 140 220 140 230 0 2 14 28 31 57 67 111 126 216 132 232 6 15 64 16 641 16 l634 0 46 -77 45 -78 -611 -3 -612 -2 -23 -22 c-13 -12 -23 -25 -23 -30 0 -5 -32 -64 -71 -131 -72 -122 -97 -165 -269 -462 -51 -88 -123 -212 -160 -275 -36 -63 -88 -153 -115 -200 -26 -47 -62 -107 -80 -135 -31 -47 -284 -479 -338 -575 -59 -106 -111 -197 -126 -220 -15 -22 -16 -45 -10 -180 4 -85 7 -218 7 -295 l0 -140 -39 84 c-21 46 -48 117 -58 159 -18 67 -35 103 -44 91 -9 -12 -238 -409 -242 -421 -6 -16 89 -241 249 -590 31 -68 76 -191 76 -208 0 -15 -39 44 -288 435 -101 160 -193 299 -203 309 -21 22 -14 24 -259 -43 -63 -17 -207 -55 -320 -85 -365 -97 -491 -133 -500 -142 -4 -5 -27 -79 -50 -164 -23 -85 -44 -162 -47 -170 -3 -10 40 -55 121 -128 154 -139 547 -555 535 -566 -2 -2 -101 52 -219 121 -247 143 -495 273 -522 273 -12 0 -24 -13 -35 -37 -36 -89 -295 -678 -299 -682 -14 -15 -8 23 31 179 24 96 69 279 100 405 32 127 68 266 80 310 13 44 53 195 90 335 36 140 70 258 74 263 7 7 58 22 336 96 83 22 278 74 435 116 157 42 328 87 380 100 67 18 100 31 113 47 19 24 140 227 308 518 53 91 173 298 267 461 95 163 172 303 172 311 0 8 -59 116 -131 239 -73 123 -154 265 -181 314 -53 94 -386 668 -428 735 -18 30 -90 159 -90 162 0 4 1434 -3 1438 -7z m2122 -369 c5 -14 29 -58 53 -98 24 -40 78 -131 119 -203 41 -71 120 -208 176 -303 56 -96 102 -176 102 -179 0 -3 26 -48 57 -101 32 -54 78 -135 103 -182 90 -165 333 -586 362 -625 35 -48 77 -117 153 -250 115 -202 237 -404 248 -413 7 -5 41 -17 77 -26 128 -34 249 -66 510 -136 146 -39 353 -94 460 -122 107 -28 200 -56 206 -62 6 -6 39 -117 73 -246 34 -129 73 -273 85 -320 54 -199 236 -943 233 -947 -3 -2 -11 13 -20 34 -8 21 -46 108 -85 193 -38 85 -104 234 -146 330 -42 96 -82 178 -88 181 -16 10 -220 -94 -503 -256 -130 -75 -240 -134 -242 -131 -13 13 487 532 607 628 l45 37 -17 73 c-23 105 -70 271 -80 285 -5 6 -21 14 -36 17 -15 4 -83 22 -152 41 -273 74 -508 137 -560 150 -30 8 -113 30 -184 49 -71 20 -132 33 -136 31 -5 -3 -43 -60 -86 -127 -42 -68 -114 -179 -159 -248 -44 -69 -114 -178 -155 -243 -109 -171 -116 -177 -76 -67 41 117 69 184 136 325 29 61 63 135 75 165 13 30 39 93 59 139 l36 83 -23 42 c-172 296 -212 363 -224 376 -12 13 -15 13 -23 0 -5 -8 -14 -39 -20 -68 -10 -46 -84 -239 -97 -252 -3 -3 -2 128 2 290 l7 295 -134 230 c-74 127 -149 256 -167 288 -18 31 -37 57 -43 57 -14 0 -48 -30 -48 -42 0 -5 -17 -40 -39 -76 -21 -37 -100 -175 -176 -307 -187 -326 -228 -395 -234 -395 -11 0 -91 147 -91 167 0 10 90 174 200 362 110 189 200 345 200 347 0 1 16 30 35 63 38 65 43 92 20 111 -8 7 -15 17 -15 22 0 5 -73 134 -162 286 -89 152 -177 308 -196 346 -18 38 -46 88 -61 110 -15 23 -58 95 -96 161 -37 66 -70 123 -72 128 -2 4 41 7 97 7 97 0 101 -1 110 -24z m-3476 -135 l86 -148 0 -778 0 -778 -67 -116 c-38 -64 -73 -128 -80 -143 -7 -16 -17 -28 -23 -28 -7 0 -10 330 -10 1070 0 589 2 1070 4 1070 2 0 42 -67 90 -149z m4938 -1235 l-7 -750 -81 141 -81 141 -8 768 -7 769 41 63 c23 34 41 65 41 67 0 5 66 119 89 155 15 23 16 5 18 -290 2 -173 -1 -652 -5 -1064z m-2624 923 c101 -43 168 -133 193 -259 7 -37 10 -301 9 -803 -1 -532 2 -759 10 -783 7 -19 21 -40 33 -47 23 -13 536 -24 583 -13 16 4 37 29 65 79 23 39 51 87 62 105 l20 34 48 -84 c47 -80 48 -84 32 -108 -9 -14 -39 -63 -66 -110 -27 -47 -53 -90 -58 -96 -4 -5 -41 -68 -82 -140 -40 -71 -137 -238 -215 -371 -78 -134 -142 -245 -142 -247 0 -3 -150 -262 -327 -565 l-55 -94 -45 77 -45 76 59 103 c105 180 156 271 188 332 17 33 96 173 176 310 307 529 299 512 279 525 -9 6 -148 10 -341 10 l-326 0 -6 122 c-4 66 -7 383 -8 702 0 320 -4 678 -8 796 -7 208 -8 217 -35 278 -50 108 -125 156 -237 150 -115 -6 -65 26 71 46 44 6 123 -6 168 -25z m-1222 -861 c9 -18 40 -73 69 -123 29 -49 130 -225 225 -390 234 -406 301 -519 314 -528 6 -4 111 -5 233 -1 l221 6 7 -55 c4 -30 4 -69 0 -86 l-7 -31 -158 0 c-160 0 -190 -4 -190 -22 0 -11 55 -108 351 -620 82 -141 149 -261 149 -267 0 -12 -91 -164 -95 -159 -4 5 -310 530 -334 573 -12 22 -36 65 -55 95 -18 30 -59 102 -91 160 -32 58 -80 141 -106 185 -26 44 -141 244 -256 445 -115 201 -251 436 -301 523 -51 86 -92 162 -92 168 0 16 82 159 92 159 4 0 15 -15 24 -32z"/>
 </g>

</svg>